<svg xmlns="http://www.w3.org/2000/svg" viewBox="0 0 998.271 546.441">
  <defs>
    <style>
      .cls-1 {
        isolation: isolate;
      }

      .cls-2 {
        fill: #cedaed;
      }

      .cls-3, .cls-36 {
        fill: #f44d59;
      }

      .cls-25, .cls-4, .cls-6, .cls-7 {
        fill: #4a555e;
      }

      .cls-17, .cls-5 {
        fill: #ff714d;
      }

      .cls-10, .cls-12, .cls-13, .cls-14, .cls-15, .cls-16, .cls-25, .cls-26, .cls-27, .cls-28, .cls-29, .cls-30, .cls-31, .cls-32, .cls-34, .cls-35, .cls-36, .cls-37, .cls-38, .cls-39, .cls-43, .cls-44, .cls-45, .cls-5, .cls-6, .cls-7, .cls-8, .cls-9 {
        fill-rule: evenodd;
      }

      .cls-6, .cls-7 {
        stroke: #4a555e;
      }

      .cls-11, .cls-13, .cls-41, .cls-42, .cls-6, .cls-7, .cls-8 {
        stroke-miterlimit: 10;
      }

      .cls-7 {
        stroke-width: 0.946px;
      }

      .cls-30, .cls-8 {
        fill: #e31b23;
      }

      .cls-8 {
        stroke: #e31b23;
      }

      .cls-22, .cls-44, .cls-9 {
        fill: #292a61;
      }

      .cls-22, .cls-24, .cls-9 {
        mix-blend-mode: multiply;
      }

      .cls-22, .cls-9 {
        opacity: 0.34;
      }

      .cls-10 {
        fill: #e9deff;
      }

      .cls-11 {
        fill: #768087;
        stroke: #768087;
      }

      .cls-12, .cls-42 {
        fill: #fff;
      }

      .cls-13, .cls-40 {
        fill: #b6bac5;
      }

      .cls-13, .cls-41 {
        stroke: #b6bac5;
      }

      .cls-14 {
        fill: #4c0714;
      }

      .cls-15 {
        fill: #680913;
      }

      .cls-16 {
        fill: #c44627;
      }

      .cls-18 {
        fill: #3a454c;
      }

      .cls-19 {
        fill: #d8dfef;
      }

      .cls-20, .cls-34, .cls-35 {
        fill: #b5121b;
      }

      .cls-21, .cls-28 {
        fill: #0f3996;
      }

      .cls-23 {
        fill: #eff3fe;
      }

      .cls-24 {
        fill: #a8731f;
        opacity: 0.21;
      }

      .cls-26, .cls-32, .cls-41, .cls-45 {
        fill: none;
      }

      .cls-26, .cls-32, .cls-42, .cls-45 {
        stroke: #fff;
      }

      .cls-26, .cls-32, .cls-45 {
        stroke-linecap: round;
        stroke-linejoin: round;
      }

      .cls-26 {
        stroke-width: 1.536px;
      }

      .cls-27 {
        fill: #364047;
      }

      .cls-29 {
        fill: #1c2122;
      }

      .cls-31 {
        fill: #e8e8e8;
      }

      .cls-32 {
        stroke-width: 3.964px;
      }

      .cls-33, .cls-35 {
        opacity: 0.5;
      }

      .cls-37 {
        fill: #e8e9ea;
      }

      .cls-38 {
        fill: #353e44;
      }

      .cls-39 {
        fill: #bfc5d1;
      }

      .cls-43 {
        fill: #dde0ff;
      }

      .cls-45 {
        stroke-width: 1.464px;
      }
    </style>
  </defs>
  <g class="cls-1">
    <g id="Camada_2" data-name="Camada 2">
      <g id="Camada_4" data-name="Camada 4">
        <g>
          <path class="cls-2" d="M366.624,235.982V0h-78.2V235.982a73.44,73.44,0,1,0,78.2,0Z"/>
          <path class="cls-3" d="M359.472,240.809V99.192H295.577V240.809a66.139,66.139,0,1,0,63.895,0Z"/>
          <rect class="cls-4" x="288.421" y="11.592" width="34.56" height="5.04"/>
          <rect class="cls-4" x="288.421" y="46.182" width="34.56" height="5.04"/>
          <rect class="cls-4" x="288.421" y="80.772" width="34.56" height="5.04"/>
          <rect class="cls-4" x="288.421" y="115.362" width="34.56" height="5.04"/>
          <rect class="cls-4" x="288.421" y="152.442" width="34.56" height="5.04"/>
          <rect class="cls-4" x="288.421" y="189.522" width="34.56" height="5.04"/>
          <rect class="cls-4" x="288.421" y="226.602" width="34.56" height="5.04"/>
        </g>
        <g>
          <polygon class="cls-5" points="653.305 478.772 637.603 485.127 646.284 506.577 661.987 500.22 653.305 478.772 653.305 478.772"/>
          <polygon class="cls-5" points="532.09 482.687 549.005 483.602 547.756 506.708 530.84 505.792 532.09 482.687 532.09 482.687"/>
          <path class="cls-6" d="M506.957,518.259a2.348,2.348,0,0,0,.618,1.891c.474.5,6.141,1.478,6.882,1.465,7.043-.116,20.562-1.128,29.892-1.282a6.063,6.063,0,0,0,3.988-1.635,5.593,5.593,0,0,0,1.825-3.775,66.551,66.551,0,0,0-1.157-12.659l-18.165-.708s-12.593,7.816-20.034,10.988c-3.119,1.328-3.5,2.556-3.849,5.714Z"/>
          <path class="cls-7" d="M645.075,505.788l7.837,21.762a5.085,5.085,0,0,0,2.963,3.032,4.021,4.021,0,0,0,3.864-.485l6.546-4.962a5.418,5.418,0,0,0,2-3.182c.173-.778.379-1.72.6-2.709A17.04,17.04,0,0,0,665.9,505.76c-2.981-4.145-6.323-8.8-6.323-8.8-7.869-1.8-12.379,1.648-14.5,8.823Z"/>
          <path class="cls-5" d="M423.682,118.784s-10.205-6.819-8.393-11.257,18.843,10.744,18.843,10.744l-6.049,6.176Z"/>
          <g>
            <g>
              <path class="cls-8" d="M658.472,480.571c-1.332-11.113-7.081-66.412-24.78-107.694l-23.6-108.83-.43.111c-.061-.455-.138-.909-.2-1.364-1.026-8.117-4.1-32.468-4.1-32.468-18.411,9.755-50.92,11.01-80.393.668-2.553,41.638-.431,100.073,3.888,166.4l.371,94a3.563,3.563,0,0,0,3.571,3.335l18.224-.081a3.06,3.06,0,0,0,3.039-2.855c4.838-36.966,11.676-76.586,6.713-100.533l5.859-87.739,3-.041c6.888,20.686,16.95,50.834,27.092,80.97,16.364,48.628,32.929,97.213,36.678,105.909a4.7,4.7,0,0,0,6.245,2.417l16.751-7.541C658.179,484.434,658.7,482.508,658.472,480.571Z"/>
              <path class="cls-8" d="M520.229,229.226c1.57.626,3.154,1.21,4.745,1.768l.188-7.122Z"/>
            </g>
            <path class="cls-9" d="M562.5,300.344,551.4,395.325c-2.4,24.942,6.637,49.886,1,62.636-4.774,13.683-8.786,26.973-5.9,36.707l4.524-.02a3.06,3.06,0,0,0,3.039-2.855c4.838-36.966,11.676-76.586,6.713-100.533l6.09-91.2Z"/>
            <path class="cls-9" d="M524.108,263.877s4.665,18.9,56.759,14.376c24.8-2.154,31.361-3.366,31.372-3.958.013-.754-2.018-12.062-2.018-12.062Z"/>
            <path class="cls-5" d="M579.644,145.016l-2.357-35.375-25.2,2.995L548.775,143.4c-.026,20.666,30.844,22.28,30.869,1.615Z"/>
            <path class="cls-5" d="M526.809,137.795l-65.716,47.592s-1.173,23,4.118,26.671c5.414,3.757,61.6-33.1,61.6-33.1Z"/>
            <path class="cls-5" d="M581.917,159.544l36.665,72.385s26.884,1.514,25.539-4.784c-1.624-7.6-26.935-81.413-26.935-81.413Z"/>
            <path class="cls-5" d="M474.491,194.964l-26.118-58.2-13.316,6.873s14.755,62.912,20.183,65.882S479.269,217.109,474.491,194.964Z"/>
            <path class="cls-5" d="M435.057,143.64s-6.585-6.514-12.644-12.951c-6.623-7.035-5.679-11.056,1.835-14.661,2.1-1.01,8.417,1.264,8.417,1.264l8.369,10.419s11.125,10.577,6.081,15.91S435.057,143.64,435.057,143.64Z"/>
            <path class="cls-10" d="M636.755,200.239a2.1,2.1,0,0,0,.977-2.559c-2.2-6.054-9.707-26.938-13.541-40.358-4.524-15.831-15.116-18.821-17-19.527s-28.509-7.23-28.509-7.23-6.861,23.579-20.054,22.071-8.376-22.071-8.376-22.071a81.552,81.552,0,0,0-11,2.042,58.042,58.042,0,0,0-19.292,8.384l-28.112,18.87,16.435,35.491a1.793,1.793,0,0,0,2.662.71l11.753-8.307L523,262.892c21.295,20.355,87.641,0,87.641,0l-.767-48.146Z"/>
            <path class="cls-5" d="M561.035,249.737s1.046,1.591-4.222,3.613c-3.9,1.5-14.086,2.34-18.017,1.26-4.319-1.187-9.843-6.007-9.843-6.007s-1.33-5.385,3.241-7.49c1.633-.753,7.88,2.575,7.88,2.575,4.232-2.785,9.779-4.1,16.4-4.209Z"/>
            <path class="cls-5" d="M632.726,246.033c-28.666,9.033-55.36,13.18-77.8,6.808l-.848-11.192c28.78.217,55.972-16.448,84.338-23.89l4.313,6.625A14.082,14.082,0,0,1,632.726,246.033Z"/>
            <rect class="cls-11" x="550.858" y="240.55" width="34.147" height="3.515" transform="translate(-0.592 1.393) rotate(-0.14)"/>
            <polygon class="cls-12" points="564.961 244.072 501.424 244.228 482.149 201.551 545.685 201.395 564.961 244.072"/>
            <polygon class="cls-13" points="562.496 244.078 498.959 244.234 479.684 201.557 543.221 201.401 562.496 244.078"/>
            <path class="cls-12" d="M523.4,223.081c.763,2.663-1.294,4.828-4.594,4.836s-6.591-2.144-7.354-4.807,1.295-4.828,4.594-4.836S522.637,220.418,523.4,223.081Z"/>
            <path class="cls-14" d="M553.278,69.3s-18.921,3.773-9.2,22.836,9.2-22.836,9.2-22.836Z"/>
            <path class="cls-5" d="M543.445,82.347a21.331,21.331,0,0,1,24.821-18.615h0a21.442,21.442,0,0,1,17.659,23.547c-.737,6.5-1.545,13.605-2.244,19.765a15.23,15.23,0,0,1-17.724,13.293l-11.67-2.014a15.739,15.739,0,0,1-12.965-17.287c.649-5.721,1.407-12.4,2.121-18.689Z"/>
            <path class="cls-15" d="M578.291,80.482s-8.457,20.8,6.771,22.348a25.451,25.451,0,0,0,7.05-15.091c2.262-29.9-26.849-33.163-40.926-27.029s-12.4,19.073,17.074,20.811Z"/>
            <path class="cls-5" d="M582.55,95.062c-2.831-.447-5.592,2.124-6.162,5.737s1.263,6.911,4.094,7.358,5.592-2.125,6.162-5.738-1.263-6.91-4.094-7.357Z"/>
            <path class="cls-16" d="M551.575,117.638s7.052,4.717,26.1-.623c0,0-17.348,9.926-26.869,8.168Z"/>
          </g>
          <path class="cls-6" d="M523.37,506s4.913-10.062,9.625-9.591-1.7,12.911-1.7,12.911Z"/>
        </g>
        <g>
          <polygon class="cls-17" points="192.81 156.84 184.948 166.006 192.637 176.32 204.68 164.84 192.81 156.84"/>
          <path class="cls-18" d="M87.616,53.9s.348-.191.962-.481c3.409-1.615,15.018-6.3,20.774,1.573,6.793,9.3-.862,10.663,5.153,23.513s11.756,25.426,1.367,26.52S79.39,72.967,79.39,72.967Z"/>
          <path class="cls-4" d="M48.421,65.142S35.53,71.861,33.392,91.313s3.033,17.993-3.244,29.18-3.414,18.905,0,22.6-16.118,16.877-7.916,27.747,26.656,19.073,26.656,19.073l56.594-35.108L82.2,105.323l2.328-31.057Z"/>
          <path class="cls-19" d="M186.711,161.8a223.476,223.476,0,0,0-27.672,27.813L119.005,153.03s-8.341,23.8-5.42,25.787c2.017,1.372,20.974,22.646,32.507,35.674a10.69,10.69,0,0,0,16.676-.835L199.4,171.733Z"/>
          <path class="cls-17" d="M24.965,509.9,15.28,498.015c15.584-74.572,12.422-34.671,44.426-95.757C59.706,402.258,40.94,446.1,24.965,509.9Z"/>
          <path class="cls-20" d="M132.323,263.808C131.18,313.389,91.881,404.16,87.9,411.681c-10.276,19.417-15.028,23.557-53.095,82.3L15.363,482.047c27.872-87.333,46.99-82.066,57.234-98.678,0,0,.368-55.711,23.344-126.53Z"/>
          <path class="cls-17" d="M87.928,266.9s3.141,93.7,4.676,99.611S90.687,437.2,103.96,482.187,115.747,527.6,115.747,527.6L98.885,511.032c-23.914-76.84-32.171-61.989-30-151.807,0,0,1.584-11.612-13.169-84.858Z"/>
          <path class="cls-21" d="M93.458,545.066l3.011.009,2.039-22.727c5.823,4.815,8.326,11.575,9.921,18.867a7.328,7.328,0,0,0,6.463,3.918l17.364.054,7.937.025c2.026-5.046-4.9-9.169-17.256-14.9l-16.772-14.865-5.989-10.032-5.2-2.567c-3.6,2.492-4.152,11.865-3.95,15.663Z"/>
          <path class="cls-17" d="M94.977,502.852s12.244,33.887,27.96,27.464L110.746,505.86l-10.04-10.207Z"/>
          <path class="cls-21" d="M0,531.355l2.876.893,8.62-21.127c4.153,6.311,4.561,13.508,3.946,20.947a7.326,7.326,0,0,0,5.028,5.642l16.584,5.148,7.58,2.354c3.418-4.229-1.989-10.2-12.124-19.3L20.84,506.774l-2.781-11.347-4.217-3.98c-4.174,1.325-7.451,10.123-8.373,13.813Z"/>
          <path class="cls-17" d="M13.842,491.447s1.759,35.988,18.668,34.46l-4.476-26.956-6.6-12.705Z"/>
          <path class="cls-20" d="M96.178,266.133s-.822,101.2.753,107,12.541,121.943,12.541,121.943l-26.578,2.14S68.127,455.3,65.373,370.5c0,0-24.662-69.367-13.751-113.658Z"/>
          <path class="cls-22" d="M62.842,259.18s8.18,118.391,9.755,124.189,18.394,113.2,18.394,113.2l-8.1.652S68.127,455.3,65.373,370.5c0,0-24.662-69.367-13.751-113.658Z"/>
          <path class="cls-23" d="M59.706,133.646s-27.5-2.262-28.529,27.982L49.256,174.2v86.231s50.751,13.373,83.2,4.6c0,0-4.1-37.251-2.9-58.286,0,0,2.376-10.864,2.9-13.274,4.922-22.628-7.463-35.446-25.056-56.436C94.294,121.4,59.706,133.646,59.706,133.646Z"/>
          <path class="cls-24" d="M50.631,166.777s-18.42-35.393-19.454-5.149L49.256,174.2v86.231a270.992,270.992,0,0,0,33.1,6.057C55.714,222.518,55.428,204.589,50.631,166.777Z"/>
          <path class="cls-17" d="M102,143.1c3.234,10.742.82,11.712,1.23,30.826,0,0-26.908-23.04-43.521-38.345,8.725-5.538,18.213-10.491,33.028-5.969C97.066,130.929,100.691,138.759,102,143.1Z"/>
          <path class="cls-17" d="M189.935,160.781l9.377-12.855a54.044,54.044,0,0,1,6.141-4.976,2.612,2.612,0,0,1,.547-.42l14.924-5.006c1.213-.68,2.579,1.763,1.367,2.444l-11.723,5.313c.047.034.095.068.141.1a2.681,2.681,0,0,1,.43-.3l13.788-6.324c1.212-.681,3.219,2.093,2.006,2.774l-3.3,2.289c1.214-.678,3.69,3.247,2.475,3.925l-1.615.9c.546.159,1.632,2.1.418,2.781l-10.1,6.992-12.106,7.666C198.379,168.357,189.2,164.612,189.935,160.781Z"/>
          <path class="cls-5" d="M91.608,111.222s-.931,15.473-1.7,28.289a9.472,9.472,0,0,1-14.844,7.221L72.4,144.886a12.119,12.119,0,0,1-5.061-11.948c1.966-11.858,5.545-33.46,5.545-33.46l18.728,11.744Z"/>
          <path class="cls-16" d="M91.126,119.236s-10.519.977-15.477-2.783c0,0,5.812,7.381,14.871,8.26Z"/>
          <path class="cls-5" d="M57.991,81.756a11.714,11.714,0,0,1,8.687-14.107l21.91-5.211c6.3-1.5,11.655,2.7,14.108,8.685,2.894,7.067,5.382,22.568,5.82,34.033.246,6.465-3.284,13.32-9.579,14.817-6.719,1.6-28.376-.014-33.177-11.563-3.655-8.793-5.566-17.389-7.769-26.654Z"/>
          <path class="cls-25" d="M33.392,99.919s5.137-27.075,15.029-34.777C62.7,54.021,78.349,45.244,98.682,59.8c0,0,5.855,38.01-53.173,41.521Z"/>
          <path class="cls-5" d="M57.847,104.3c2.922,4.441,8.271,6.08,11.947,3.661s4.285-7.98,1.363-12.421-8.272-6.079-11.947-3.66S54.924,99.858,57.847,104.3Z"/>
          <path class="cls-17" d="M192.585,157.709,196,144.551l7.032-8.735s2.391.6,1.251,4.146a17.7,17.7,0,0,1-3.157,5.812l-1.852,7.026Z"/>
          <path class="cls-4" d="M64.5,118.147s6.532,13.67,7.625,22.966S83.645,156.15,79.39,164.9s-14.088,3.008-13.273-4.921,5.947-7.79-3.275-16.882-10.126-25.222-9.306-24.948S64.5,118.147,64.5,118.147Z"/>
          <path class="cls-17" d="M48.584,295.482l2.007,12.23a53.976,53.976,0,0,1-.428,7.893,2.6,2.6,0,0,1-.055.687l-6.3,14.428c-.309,1.356-3.037.731-2.729-.625l3.922-12.259c-.057.012-.115.025-.172.035a2.7,2.7,0,0,1-.065.522l-4.556,14.468c-.308,1.357-3.712.985-3.4-.371l.513-3.98c-.311,1.355-4.883.56-4.571-.8l.414-1.8c-.484.3-2.654-.2-2.343-1.555l1.588-12.18,2.433-14.122C36.064,293.321,46.233,292.37,48.584,295.482Z"/>
          <path class="cls-17" d="M34.945,280.78l1.367,18.085s12.17,1.561,12.525-1.844-1.862-18.388-1.862-18.388Z"/>
          <path class="cls-23" d="M44.914,137.072c-24.049-1.256-19.558,95.836-19.558,95.836,5.426,23.887,5.821,55.021,5.821,55.021l19.453.547s-2.648-26.7-4.653-62.634l9.528-48.759S64.2,138.08,44.914,137.072Z"/>
          <path class="cls-26" d="M82.358,165.1l23.124,18.249s9.638-25.534-.82-46.293"/>
        </g>
        <g>
          <g>
            <rect class="cls-17" x="734.381" y="482.065" width="18.319" height="30.003"/>
            <rect class="cls-17" x="708.418" y="476.657" width="17.336" height="30.003" transform="translate(-56.66 95.101) rotate(-7.3)"/>
            <path class="cls-25" d="M750.228,249.786l-59.054-4.017c-13.382,32.151-14.8,75.982-14.8,75.982L674.746,398.8a24.577,24.577,0,0,0,1.647,9.375l31.985,82.7,20-5.068c-5.253-36-7.986-63.387-20.451-76.308l13.322-89.254c20.351-2.549,40.16.119,43.147-33.636C766.9,258.338,750.228,249.786,750.228,249.786Z"/>
            <path class="cls-27" d="M724.929,487.457l3.451-1.648c-4.795-32.865-6.49-56.424-16.554-72.422A15.267,15.267,0,0,1,709.711,403l12.367-82.856c20.351-2.549-6.5-38.484-6.5-38.484-1.774,17.385-2.714,35.9-7.24,49.547a84.629,84.629,0,0,0-4.438,25.956,202.081,202.081,0,0,1-3.8,38.949,36.909,36.909,0,0,0,2.455,22.438C710.892,437.2,715.9,456.329,724.929,487.457Z"/>
            <path class="cls-25" d="M712.029,255.778l10.2,133.623,9.4,100.027,22.43,1.449c4.146-39.163,8.532-62.313-.673-90.977l9.377-103.981-28-31.649Z"/>
            <path class="cls-27" d="M766.211,272.662l-16.973,21.052c-6.27,24.194,4.785,36-5.36,77.843a143.13,143.13,0,0,0,2.271,37c5.057,26.154,4.508,45.5,2.75,81.992l5.152.333c4.146-39.163,6.673-51.3,2.106-93.472Z"/>
            <path class="cls-28" d="M733.1,509.777s.086,15.529.138,24.894a4.937,4.937,0,0,0,6.581,4.627l9.225-3.259a6.9,6.9,0,0,0,3.474-2.727c.5-.759,1.1-1.678,1.731-2.642a17.381,17.381,0,0,0,1.99-14.883c-1.679-5.173-3.562-10.977-3.562-10.977-8.034-4.149-14.4-1.876-19.577,4.967Z"/>
            <path class="cls-28" d="M710.317,501.853l-5.128,13.6-12.647,8.214a3.34,3.34,0,0,0,.87,6l6.059,1.8,24.6-8.068a6.092,6.092,0,0,0,4.183-6.145c-.376-6.413-1-17.14-1-17.14-5.758-3.64-11.412-3.5-16.928,1.736Z"/>
            <path class="cls-29" d="M705.717,66.666S678.4,80.8,691.149,110.588s19.428,7.965,19.428,7.965S720.263,78.259,705.717,66.666Z"/>
            <path class="cls-29" d="M753.859,82.22s3.955,10.445,15.982,17.552c10.612,6.271,11.62,15.272,13.185,29.272,2.5,22.4,25.244,17.99,20.159,48.866-3.117,18.928-22.965,30.479-48.843,7.276s-65.192-24.309-63.324-40.526c2.634-22.868,44.218-50.282,44.218-50.282Z"/>
            <path class="cls-30" d="M708.077,128.527s15.063-5.947,28.037.517c13.151,6.553,1.661,25.734,1.661,25.734L697.382,147.5S699.885,131.192,708.077,128.527Z"/>
            <polygon class="cls-31" points="688 136.87 713.383 131.919 729.036 131.356 764.398 145.666 748.346 245.562 687.965 242.509 688 136.87"/>
            <path class="cls-25" d="M731.864,247.387l.689,9.387c.263-.02.54-.037.8-.058l-1.486-20.258c-13.3,3.524-28.218,1.144-43.994-4.385l2.611,11.814C705.292,248.773,719.3,250.716,731.864,247.387Z"/>
            <path class="cls-32" d="M764.043,152.428c-6.938-2.493-12.186-5.12-15.063-7.933"/>
            <path class="cls-32" d="M759.937,177.9c-5.96-1.305-21.48-9.428-25.7-13.218"/>
            <path class="cls-5" d="M710.165,111.7s.8,13.229,1.455,24.186a8.1,8.1,0,0,0,12.69,6.173l2.28-1.577a10.365,10.365,0,0,0,4.328-10.216c-1.682-10.138-4.741-28.606-4.741-28.606L710.165,111.7Z"/>
            <path class="cls-16" d="M710.577,118.553s8.994.835,13.233-2.379c0,0-4.969,10.239-12.715,10.991Z"/>
            <path class="cls-30" d="M698.828,167.609c1.006-15.078,9.249-39.082,9.249-39.082L686.8,136.912s-19.459,3.846-25.328,54.2l3.067,20.188,18.311-26.646c-1.045,20.51-2.138,40.966-2.57,45.679-1.309,14.283-7.3,40.38-7.3,40.38a44.388,44.388,0,0,0,25.843,8.249l3.116-49.105S697.5,187.562,698.828,167.609Z"/>
            <path class="cls-30" d="M781.584,231.968,773.091,154.7c-2.458-10.909-18.97-16.707-25.972-18.7l-11-6.961s-12.331,38.9-12.815,67.348-4.441,84.411-4.441,84.411,35.475,4.3,50.867-5.838l-3.759-37.875c.892,5.049,7.959.195,14.321-2.8A2.288,2.288,0,0,0,781.584,231.968Z"/>
            <g class="cls-33">
              <path class="cls-34" d="M781.582,232l-8.492-77.264c-1.974-8.759-13-14.22-20.9-17.065,4.715,3.553,12.9,7.9,14.1,13.222,12.725,26.955-1.81,31.913,4.819,49.382,9.1,23.985,3.578,28.977.388,38.3,2.6-1,5.774-2.832,8.795-4.253A2.285,2.285,0,0,0,781.582,232Z"/>
            </g>
            <path class="cls-5" d="M738.906,86.51a10.015,10.015,0,0,0-7.427-12.061l-18.732-4.455c-5.381-1.28-9.964,2.307-12.061,7.426-2.475,6.041-4.6,19.293-4.976,29.1-.211,5.528,2.808,11.388,8.189,12.668,5.745,1.366,24.26-.012,28.365-9.886,3.124-7.517,4.759-14.866,6.642-22.787Z"/>
            <path class="cls-29" d="M759.937,102.038s-4.392-23.148-12.849-29.732C734.877,62.8,721.5,55.294,704.117,67.735c0,0-5,32.5,45.46,35.5Z"/>
            <path class="cls-5" d="M739.03,105.783c-2.5,3.8-7.072,5.2-10.214,3.129s-3.665-6.822-1.166-10.619,7.071-5.2,10.214-3.129S741.528,101.986,739.03,105.783Z"/>
            <path class="cls-35" d="M760.84,235.05l-6.917-39.063c-.465-2.628-2.333-2.5-2.422.172l-2.4,84.892c8.072-.994,15.429-2.606,20.625-6.086L767.355,249Z"/>
            <path class="cls-5" d="M724.655,285.727s-6.719,2.615-9.141,7.855c-.849,1.836-3.665,3.6-4.632,4.694-3.649,4.149,6.847,2.645,10.179-4,4.054-8.086,3.94-7.913,3.94-7.913Z"/>
            <path class="cls-5" d="M760.84,235.05c-10.578,6.828-17.223,38-38.313,54.141l7.534,8.691s42.668-32.437,50.414-63.705C773.262,236.147,766.562,236.828,760.84,235.05Z"/>
            <path class="cls-5" d="M728.7,283.658s-9.442,3.636-10.182,9.6c-.353,2.843-2.692,6.364-3.109,10.686-.458,4.75,2.244,12.078,2.244,12.078s4.856,3.367,8.686-.383c1.368-1.34.427-8.822.427-8.822,4.378-3.155,7.792-8.178,10.415-14.729Z"/>
            <path class="cls-5" d="M716.6,297.2l-4.2,8.758s-.248,7.913,1.137,7.688,3.429-7.287,3.429-7.287.175-9.508-.1-9.333"/>
            <path class="cls-36" d="M736.114,129.044s-11.306,36.833-11.911,48.831-1.063,25.137-1.063,25.137l15.885-33.288-2.566-8.36,15.729-23.694Z"/>
            <path class="cls-36" d="M708.077,128.527s-7.86,26.956-8.555,33.019-.224,35.746-.224,35.746l-15.2-33.138,9.138-10.72-3.1-17.45S704.958,128.206,708.077,128.527Z"/>
            <polygon class="cls-37" points="704.576 236.16 652.706 233.431 637.603 164.388 689.474 167.117 704.576 236.16"/>
          </g>
          <g>
            <path class="cls-5" d="M652.972,202.92l-9.107.636a2.035,2.035,0,0,1-2.008-2.058h0a2.033,2.033,0,0,1,2.058-2.008l9.081.66c1.123.014,1.876.385,1.862,1.507h0C654.845,202.78,654.1,202.934,652.972,202.92Z"/>
            <path class="cls-5" d="M654.725,205.914l-9.107.635a2.034,2.034,0,0,1-2.008-2.058h0a2.034,2.034,0,0,1,2.058-2.008l9.081.661c1.123.014,1.876.384,1.862,1.507h0C656.6,205.773,655.848,205.928,654.725,205.914Z"/>
            <path class="cls-5" d="M653.681,208.284l-9.107.635a2.033,2.033,0,0,1-2.008-2.058h0a2.033,2.033,0,0,1,2.058-2.007l9.081.66c1.122.014,1.876.384,1.862,1.507h0C655.553,208.144,654.8,208.3,653.681,208.284Z"/>
            <path class="cls-5" d="M653.554,210.683l-9.107.635a2.032,2.032,0,0,1-2.007-2.057h0a2.032,2.032,0,0,1,2.057-2.008l9.082.66c1.122.014,1.875.384,1.862,1.507h0C655.427,210.543,654.677,210.7,653.554,210.683Z"/>
            <path class="cls-5" d="M647.967,199.886s-7.2-1.727-6.9.7-1.011,2.4-.319,5.706.047,5.468,2.938,6.681a63.515,63.515,0,0,0,7.662,2.36l-.986-4.485Z"/>
          </g>
        </g>
        <g>
          <polygon class="cls-5" points="944.251 501.388 927.456 507.706 936.087 530.649 952.883 524.329 944.251 501.388 944.251 501.388"/>
          <polygon class="cls-5" points="822.564 503.644 840.482 504.613 839.159 529.09 821.239 528.12 822.564 503.644 822.564 503.644"/>
          <path class="cls-29" d="M794.4,541.161a2.653,2.653,0,0,0,.7,2.137c.535.564,6.938,1.669,7.775,1.655,7.958-.132,23.234-1.274,33.776-1.449a6.848,6.848,0,0,0,4.507-1.847,6.323,6.323,0,0,0,2.063-4.265c.294-5.906-2.068-16.1-2.068-16.1l-19.4-.89s-14.59,10.713-23,14.3c-3.524,1.5-3.959,2.888-4.349,6.457Z"/>
          <path class="cls-38" d="M839.1,64.991S819.918,72.039,833.21,90.4,839.1,64.991,839.1,64.991Z"/>
          <path class="cls-5" d="M834.593,79.552a22.595,22.595,0,0,1,26.293-19.719h0a22.714,22.714,0,0,1,18.706,24.945c-.781,6.879-2.133,9.4-2.873,15.924-.5,4.413-3.734,11.016-7.288,13.68s-6.613,6.169-10.991,5.414c-4.057-.7-8.371-1.444-12.362-2.133a16.672,16.672,0,0,1-13.734-18.312c.687-6.062,1.49-13.135,2.247-19.8Z"/>
          <path class="cls-25" d="M866.923,79.22s-4.376,20.386,11.755,22.031c0,0,2.488-20.985,4.786-30.3s-25.759-20.813-40.672-14.315S835.7,77.378,866.923,79.22Z"/>
          <path class="cls-5" d="M876.017,93.022c-3-.474-5.923,2.25-6.527,6.077s1.338,7.321,4.337,7.8,5.923-2.251,6.528-6.079-1.338-7.32-4.338-7.793Z"/>
          <path class="cls-36" d="M860.32,313.833c17.687,57.851,56.5,184.251,62.551,199.3l26.8-9.708c-2.674-9.216-11.621-85.889-24.564-120.609-8.605-44.269-15.72-81.9-19.015-99.421-.228-2.894-.484-5.416-.77-7.191q-.444-2.748-.791-5.5l-4.347-34.4c-20.556,10.892-48.243,13.691-80.727.735l-5.668-.391L813,313.218l-.129.009,6.668,199.641,26.307.422c4.869-42.14,10.027-91.6,7.871-117.87l5.447-81.571Z"/>
          <path class="cls-12" d="M935.982,286.663c1.164,4.038-1.159,8.912-5.188,10.884s-8.237.3-9.4-3.741,1.159-8.912,5.188-10.884S934.819,282.624,935.982,286.663Z"/>
          <path class="cls-29" d="M949.675,514.191l10.1,14.9c2.15,6.032-3.28,13.385-6.895,14.08l-16.4,3.153a6.506,6.506,0,0,1-7.618-5.161l.749-23.114Z"/>
          <path class="cls-39" d="M767.921,173.983l7.959,34.6,32.572-16.6v81.164s41.43,12.564,96.874,3.064l4.122-75.315s7.3-52.972-17.353-59.982-64.622-8.418-82.16,8.258Z"/>
          <g>
            <g>
              <rect class="cls-40" x="892.851" y="240.355" width="96.878" height="62.415" transform="translate(-35.264 349.763) rotate(-20.671)"/>
              <rect class="cls-41" x="892.851" y="240.355" width="96.878" height="62.415" transform="translate(-35.264 349.763) rotate(-20.671)"/>
            </g>
            <circle class="cls-42" cx="939.824" cy="271.075" r="11.595" transform="translate(-30.324 395.829) rotate(-23.417)"/>
          </g>
          <path class="cls-5" d="M956.056,279.178s6.129,15.835,5.758,19.647-2.308,4.912-8.595,5.685-11.654,2.552-12.653-3.851-.208-.807-.208-.807-5.682-4.26-5.537-10.891,3.309-7.964,3.706-13.8S956.056,279.178,956.056,279.178Z"/>
          <path class="cls-5" d="M901.507,147.947s39.594,40.878,46.426,64.721,7.175,67.739,7.175,67.739l-18.016.221s-7.3-49.57-13.673-63.24-33.73-46.787-33.73-46.787Z"/>
          <path class="cls-39" d="M886.493,170.405s30.1,37.439,33.222,53.31c11.256-1.508,21.03-6.923,28.609-18.133,0,0-34.64-55.913-52.144-62.938S886.493,170.405,886.493,170.405Z"/>
          <path class="cls-5" d="M872.939,145.939l-2.5-37.473-26.7,3.173-3.509,34.26c9.333-6.458,20.648-4.731,32.7.04Z"/>
          <polygon class="cls-43" points="842.072 127.991 827.852 139.508 840.238 154.38 853.074 141.707 842.072 127.991"/>
          <path class="cls-43" d="M852.879,141.707,871.5,127.2l14.385,12.18s-18.735,20.079-19,19.688S852.879,141.707,852.879,141.707Z"/>
          <path class="cls-44" d="M852.1,159.076a2.41,2.41,0,1,1-2.41-2.411A2.41,2.41,0,0,1,852.1,159.076Z"/>
          <path class="cls-44" d="M852.1,171.572a2.41,2.41,0,1,1-2.41-2.41A2.41,2.41,0,0,1,852.1,171.572Z"/>
          <path class="cls-44" d="M852.1,184.069a2.41,2.41,0,1,1-2.41-2.41A2.41,2.41,0,0,1,852.1,184.069Z"/>
          <path class="cls-45" d="M917.37,214.824s20.443-7.35,26.051-16.9"/>
          <path class="cls-45" d="M771.972,173.724s13.459,12.238,10.247,31.624"/>
          <path class="cls-5" d="M754.738,108.027s-5.793-11.64-1.793-14.766,10.836,18.122,10.836,18.122L755.8,115.55Z"/>
          <path class="cls-5" d="M752.114,136.866s-2.626-9.455-4.809-18.561c-2.386-9.954.6-13.154,9.4-12.514,2.466.179,7.073,5.592,7.073,5.592l2.212,13.983s4.661,15.579-2.783,17.827S752.114,136.866,752.114,136.866Z"/>
          <path class="cls-5" d="M776.832,199.523l-9.527-66.9-15.57,3.093s-3.423,68.366,1.232,72.981S775.2,223.466,776.832,199.523Z"/>
          <polyline class="cls-45" points="830.6 140.244 840.463 151.579 849.687 142.589"/>
          <polyline class="cls-45" points="855.99 142.752 866.657 155.845 882.877 139.527"/>
          <path class="cls-16" d="M843.121,116.68s13.9,3.66,25.522-3.47c0,0-13.971,11.489-25.629,9.529Z"/>
        </g>
      </g>
    </g>
  </g>
</svg>
