<svg xmlns="http://www.w3.org/2000/svg" viewBox="0 0 883.508 425.448">
  <defs>
    <style>
      .cls-1 {
        fill: #e31b23;
      }

      .cls-2 {
        fill: #f26b7b;
      }

      .cls-10, .cls-3, .cls-5 {
        fill: none;
      }

      .cls-10, .cls-3 {
        stroke: #4a555e;
      }

      .cls-10, .cls-3, .cls-4, .cls-5, .cls-6 {
        stroke-miterlimit: 10;
      }

      .cls-3 {
        stroke-width: 3.308px;
      }

      .cls-4, .cls-6 {
        fill: #fff;
      }

      .cls-4 {
        stroke: #fff;
      }

      .cls-5 {
        stroke: #1c2122;
      }

      .cls-6 {
        stroke: #eff3fe;
      }

      .cls-7 {
        fill: #f44d59;
      }

      .cls-8 {
        fill: #5183f2;
      }

      .cls-9 {
        fill: #4a555e;
      }

      .cls-10 {
        stroke-width: 2px;
      }
    </style>
  </defs>
  <g id="Camada_2" data-name="Camada 2">
    <g id="Camada_5" data-name="Camada 5">
      <rect class="cls-1" x="11.734" y="115.022" width="551.52" height="102.24"/>
      <rect class="cls-2" x="563.254" y="115.022" width="309.6" height="102.24"/>
      <rect class="cls-3" x="1.654" y="105.139" width="880.2" height="122.005"/>
      <g>
        <path class="cls-4" d="M263.414,161.074a9.959,9.959,0,0,1,3.43,4.358A15.712,15.712,0,0,1,268,171.6a12.941,12.941,0,0,1-1.5,6.25,11.018,11.018,0,0,1-4.26,4.381,13.335,13.335,0,0,1-12.951-.158,11.8,11.8,0,0,1-4.456-4.98,16.7,16.7,0,0,1-1.587-7.471v-2.832a22.112,22.112,0,0,1,2.258-10.217,16.243,16.243,0,0,1,6.409-6.812,18.841,18.841,0,0,1,9.619-2.405h1.074v6.08h-.439a12.272,12.272,0,0,0-7.788,2.331,9.747,9.747,0,0,0-3.589,6.6,9.4,9.4,0,0,1,3.125-2.136,10.115,10.115,0,0,1,4-.769A9.247,9.247,0,0,1,263.414,161.074Zm-5.09,15.991a5.226,5.226,0,0,0,1.721-2.221,8.022,8.022,0,0,0,.61-3.2,8.175,8.175,0,0,0-.622-3.284,5.044,5.044,0,0,0-1.77-2.209,4.667,4.667,0,0,0-2.686-.781,5.324,5.324,0,0,0-3.015.867,5.416,5.416,0,0,0-1.941,2.185v2.221a8.939,8.939,0,0,0,1.367,5.4,4.458,4.458,0,0,0,3.784,1.831A4.231,4.231,0,0,0,258.324,177.065Z"/>
        <path class="cls-4" d="M294.664,177.2a10.6,10.6,0,0,1-4.188,5.006,12.143,12.143,0,0,1-6.383,1.623,12.281,12.281,0,0,1-6.409-1.623,10.684,10.684,0,0,1-4.236-5.006,20.855,20.855,0,0,1-1.513-8.508v-6.3a20.958,20.958,0,0,1,1.5-8.5,10.584,10.584,0,0,1,4.212-4.98,13.5,13.5,0,0,1,12.793,0,10.578,10.578,0,0,1,4.212,4.98,20.957,20.957,0,0,1,1.5,8.5v6.3A21.186,21.186,0,0,1,294.664,177.2Zm-7.08-22.07a4.258,4.258,0,0,0-7.08,0q-1.2,1.893-1.2,6.263v8.276q0,4.419,1.208,6.323a3.965,3.965,0,0,0,3.577,1.9,3.857,3.857,0,0,0,3.515-1.9q1.173-1.9,1.172-6.323v-8.276Q288.78,157.021,287.584,155.129Z"/>
        <path class="cls-4" d="M301.622,150.906a6.565,6.565,0,0,1,2.661-2.649,9.594,9.594,0,0,1,8.436,0,6.507,6.507,0,0,1,2.636,2.649,7.79,7.79,0,0,1,.891,3.723v1.88a7.75,7.75,0,0,1-.879,3.686,6.434,6.434,0,0,1-2.625,2.637,8.5,8.5,0,0,1-4.211.977,8.647,8.647,0,0,1-4.236-.977,6.556,6.556,0,0,1-2.673-2.637,7.573,7.573,0,0,1-.9-3.686v-1.88A7.7,7.7,0,0,1,301.622,150.906Zm4.724,7.787a2.728,2.728,0,0,0,2.185.892,2.627,2.627,0,0,0,2.137-.892,3.29,3.29,0,0,0,.744-2.184v-1.88a3.348,3.348,0,0,0-.757-2.222,2.68,2.68,0,0,0-2.173-.9,2.65,2.65,0,0,0-2.148.9,3.343,3.343,0,0,0-.757,2.222v1.88A3.226,3.226,0,0,0,306.346,158.693Zm.061,20.106,17.359-27.783,3.564,1.879-17.358,27.784Zm12.183-7.873a6.567,6.567,0,0,1,2.661-2.65,8.529,8.529,0,0,1,4.2-.976,8.638,8.638,0,0,1,4.248.976,6.527,6.527,0,0,1,2.65,2.637,7.733,7.733,0,0,1,.89,3.711v1.88a7.808,7.808,0,0,1-.879,3.711,6.431,6.431,0,0,1-2.636,2.637,9.652,9.652,0,0,1-8.459,0,6.558,6.558,0,0,1-2.674-2.637,7.629,7.629,0,0,1-.9-3.711v-1.88A7.642,7.642,0,0,1,318.59,170.926Zm4.785,7.763a2.738,2.738,0,0,0,2.124.915,2.646,2.646,0,0,0,2.246-.842,3.663,3.663,0,0,0,.635-2.258v-1.88a3.3,3.3,0,0,0-.757-2.21,2.7,2.7,0,0,0-2.173-.891,2.662,2.662,0,0,0-2.148.891,3.3,3.3,0,0,0-.757,2.21v1.88A3.139,3.139,0,0,0,323.375,178.689Z"/>
      </g>
      <g>
        <path class="cls-5" d="M265.758,162.517a9.954,9.954,0,0,1,3.429,4.357,15.7,15.7,0,0,1,1.161,6.165,12.936,12.936,0,0,1-1.5,6.25,11.027,11.027,0,0,1-4.26,4.382,13.342,13.342,0,0,1-12.951-.158,11.786,11.786,0,0,1-4.456-4.981,16.693,16.693,0,0,1-1.587-7.471v-2.832a22.1,22.1,0,0,1,2.258-10.216,16.239,16.239,0,0,1,6.409-6.813,18.845,18.845,0,0,1,9.619-2.4h1.074v6.079h-.439a12.272,12.272,0,0,0-7.788,2.331,9.751,9.751,0,0,0-3.589,6.605,9.37,9.37,0,0,1,3.125-2.136,10.1,10.1,0,0,1,4-.77A9.241,9.241,0,0,1,265.758,162.517Zm-5.09,15.991a5.237,5.237,0,0,0,1.721-2.222,8.017,8.017,0,0,0,.61-3.2,8.175,8.175,0,0,0-.622-3.284,5.034,5.034,0,0,0-1.771-2.209,4.654,4.654,0,0,0-2.685-.782,5.322,5.322,0,0,0-3.015.868,5.413,5.413,0,0,0-1.941,2.184v2.222a8.934,8.934,0,0,0,1.367,5.4,4.458,4.458,0,0,0,3.784,1.831A4.237,4.237,0,0,0,260.668,178.508Z"/>
        <path class="cls-5" d="M297.008,178.642a10.6,10.6,0,0,1-4.188,5,12.149,12.149,0,0,1-6.384,1.623,12.283,12.283,0,0,1-6.409-1.623,10.69,10.69,0,0,1-4.235-5,20.854,20.854,0,0,1-1.514-8.508v-6.3a20.948,20.948,0,0,1,1.5-8.5,10.591,10.591,0,0,1,4.212-4.981,13.5,13.5,0,0,1,12.793,0A10.586,10.586,0,0,1,297,155.339a20.948,20.948,0,0,1,1.5,8.5v6.3A21.186,21.186,0,0,1,297.008,178.642Zm-7.08-22.071a4.259,4.259,0,0,0-7.08,0q-1.2,1.893-1.2,6.263v8.276q0,4.42,1.208,6.324a3.968,3.968,0,0,0,3.577,1.9,3.859,3.859,0,0,0,3.516-1.9q1.172-1.905,1.172-6.324v-8.276Q291.124,158.465,289.928,156.571Z"/>
        <path class="cls-5" d="M303.966,152.349a6.561,6.561,0,0,1,2.661-2.65,9.6,9.6,0,0,1,8.435,0,6.512,6.512,0,0,1,2.637,2.65,7.786,7.786,0,0,1,.891,3.722v1.88a7.754,7.754,0,0,1-.879,3.687,6.437,6.437,0,0,1-2.625,2.636,8.491,8.491,0,0,1-4.211.977,8.63,8.63,0,0,1-4.236-.977,6.553,6.553,0,0,1-2.673-2.636,7.577,7.577,0,0,1-.9-3.687v-1.88A7.692,7.692,0,0,1,303.966,152.349Zm4.723,7.787a2.734,2.734,0,0,0,2.186.891,2.629,2.629,0,0,0,2.137-.891,3.294,3.294,0,0,0,.744-2.185v-1.88A3.343,3.343,0,0,0,313,153.85a2.679,2.679,0,0,0-2.173-.9,2.646,2.646,0,0,0-2.148.9,3.338,3.338,0,0,0-.757,2.221v1.88A3.235,3.235,0,0,0,308.689,160.136Zm.062,20.105,17.358-27.783,3.565,1.88-17.359,27.783Zm12.183-7.873a6.558,6.558,0,0,1,2.661-2.649,8.518,8.518,0,0,1,4.2-.977,8.628,8.628,0,0,1,4.248.977,6.51,6.51,0,0,1,2.649,2.636,7.725,7.725,0,0,1,.891,3.711v1.88a7.8,7.8,0,0,1-.879,3.711,6.416,6.416,0,0,1-2.637,2.637,9.652,9.652,0,0,1-8.459,0,6.55,6.55,0,0,1-2.673-2.637,7.627,7.627,0,0,1-.9-3.711v-1.88A7.645,7.645,0,0,1,320.934,172.368Zm4.785,7.764a2.739,2.739,0,0,0,2.124.915,2.644,2.644,0,0,0,2.246-.843,3.659,3.659,0,0,0,.635-2.258v-1.88a3.3,3.3,0,0,0-.757-2.21,2.7,2.7,0,0,0-2.173-.89,2.666,2.666,0,0,0-2.149.89,3.3,3.3,0,0,0-.756,2.21v1.88A3.143,3.143,0,0,0,325.719,180.132Z"/>
      </g>
      <g>
        <path class="cls-6" d="M707.3,175.7h-3.906v7.642h-7.374V175.7H681.663l-.366-4.663,14.673-23.242h7.422v21.973H707.3Zm-11.28-5.932V157.778l-.488.855-7.007,11.133Z"/>
        <path class="cls-6" d="M733.665,177.2a10.6,10.6,0,0,1-4.188,5.006,12.143,12.143,0,0,1-6.383,1.623,12.281,12.281,0,0,1-6.409-1.623,10.684,10.684,0,0,1-4.236-5.006,20.854,20.854,0,0,1-1.514-8.508v-6.3a20.957,20.957,0,0,1,1.5-8.5,10.584,10.584,0,0,1,4.212-4.98,13.5,13.5,0,0,1,12.793,0,10.578,10.578,0,0,1,4.212,4.98,20.957,20.957,0,0,1,1.5,8.5v6.3A21.186,21.186,0,0,1,733.665,177.2Zm-7.08-22.07a4.258,4.258,0,0,0-7.08,0q-1.2,1.893-1.2,6.263v8.276q0,4.419,1.208,6.323a3.965,3.965,0,0,0,3.577,1.9,3.857,3.857,0,0,0,3.515-1.9q1.173-1.9,1.172-6.323v-8.276Q727.781,157.021,726.585,155.129Z"/>
        <path class="cls-6" d="M740.623,150.906a6.565,6.565,0,0,1,2.661-2.649,9.594,9.594,0,0,1,8.436,0,6.507,6.507,0,0,1,2.636,2.649,7.79,7.79,0,0,1,.891,3.723v1.88a7.75,7.75,0,0,1-.879,3.686,6.434,6.434,0,0,1-2.625,2.637,8.5,8.5,0,0,1-4.211.977,8.644,8.644,0,0,1-4.236-.977,6.556,6.556,0,0,1-2.673-2.637,7.573,7.573,0,0,1-.9-3.686v-1.88A7.7,7.7,0,0,1,740.623,150.906Zm4.724,7.787a2.728,2.728,0,0,0,2.185.892,2.627,2.627,0,0,0,2.137-.892,3.29,3.29,0,0,0,.744-2.184v-1.88a3.348,3.348,0,0,0-.757-2.222,2.68,2.68,0,0,0-2.173-.9,2.65,2.65,0,0,0-2.148.9,3.343,3.343,0,0,0-.757,2.222v1.88A3.226,3.226,0,0,0,745.347,158.693Zm.061,20.106,17.359-27.783,3.564,1.879-17.358,27.784Zm12.183-7.873a6.567,6.567,0,0,1,2.661-2.65,8.529,8.529,0,0,1,4.2-.976,8.638,8.638,0,0,1,4.248.976,6.527,6.527,0,0,1,2.65,2.637,7.733,7.733,0,0,1,.89,3.711v1.88a7.808,7.808,0,0,1-.879,3.711,6.431,6.431,0,0,1-2.636,2.637,9.652,9.652,0,0,1-8.459,0,6.558,6.558,0,0,1-2.674-2.637,7.629,7.629,0,0,1-.9-3.711v-1.88A7.642,7.642,0,0,1,757.591,170.926Zm4.785,7.763a2.738,2.738,0,0,0,2.124.915,2.646,2.646,0,0,0,2.246-.842,3.663,3.663,0,0,0,.635-2.258v-1.88a3.3,3.3,0,0,0-.757-2.21,2.7,2.7,0,0,0-2.173-.891,2.662,2.662,0,0,0-2.148.891,3.3,3.3,0,0,0-.757,2.21v1.88A3.139,3.139,0,0,0,762.376,178.689Z"/>
      </g>
      <g>
        <path class="cls-5" d="M708.688,177.141h-3.906v7.641h-7.373v-7.641H683.054l-.367-4.663,14.673-23.243h7.422v21.973h3.906Zm-11.279-5.933V159.221l-.488.854-7.007,11.133Z"/>
        <path class="cls-5" d="M735.056,178.642a10.609,10.609,0,0,1-4.188,5,12.149,12.149,0,0,1-6.384,1.623,12.283,12.283,0,0,1-6.409-1.623,10.69,10.69,0,0,1-4.235-5,20.854,20.854,0,0,1-1.514-8.508v-6.3a20.948,20.948,0,0,1,1.5-8.5,10.586,10.586,0,0,1,4.212-4.981,13.5,13.5,0,0,1,12.793,0,10.586,10.586,0,0,1,4.212,4.981,20.948,20.948,0,0,1,1.5,8.5v6.3A21.186,21.186,0,0,1,735.056,178.642Zm-7.08-22.071a4.26,4.26,0,0,0-7.081,0q-1.2,1.893-1.2,6.263v8.276q0,4.42,1.208,6.324a3.968,3.968,0,0,0,3.577,1.9,3.859,3.859,0,0,0,3.516-1.9q1.171-1.905,1.172-6.324v-8.276Q729.172,158.465,727.976,156.571Z"/>
        <path class="cls-5" d="M742.014,152.349a6.561,6.561,0,0,1,2.661-2.65,9.6,9.6,0,0,1,8.435,0,6.518,6.518,0,0,1,2.637,2.65,7.786,7.786,0,0,1,.891,3.722v1.88a7.754,7.754,0,0,1-.879,3.687,6.437,6.437,0,0,1-2.625,2.636,8.491,8.491,0,0,1-4.211.977,8.637,8.637,0,0,1-4.237-.977,6.557,6.557,0,0,1-2.672-2.636,7.577,7.577,0,0,1-.9-3.687v-1.88A7.692,7.692,0,0,1,742.014,152.349Zm4.723,7.787a2.733,2.733,0,0,0,2.186.891,2.631,2.631,0,0,0,2.137-.891,3.294,3.294,0,0,0,.744-2.185v-1.88a3.343,3.343,0,0,0-.757-2.221,2.679,2.679,0,0,0-2.173-.9,2.644,2.644,0,0,0-2.148.9,3.338,3.338,0,0,0-.757,2.221v1.88A3.235,3.235,0,0,0,746.737,160.136Zm.062,20.105,17.358-27.783,3.565,1.88-17.359,27.783Zm12.182-7.873a6.567,6.567,0,0,1,2.662-2.649,8.516,8.516,0,0,1,4.2-.977,8.628,8.628,0,0,1,4.248.977,6.516,6.516,0,0,1,2.649,2.636,7.725,7.725,0,0,1,.891,3.711v1.88a7.8,7.8,0,0,1-.879,3.711,6.416,6.416,0,0,1-2.637,2.637,9.652,9.652,0,0,1-8.459,0,6.558,6.558,0,0,1-2.674-2.637,7.637,7.637,0,0,1-.9-3.711v-1.88A7.656,7.656,0,0,1,758.981,172.368Zm4.786,7.764a2.739,2.739,0,0,0,2.124.915,2.644,2.644,0,0,0,2.246-.843,3.659,3.659,0,0,0,.634-2.258v-1.88a3.306,3.306,0,0,0-.756-2.21,2.7,2.7,0,0,0-2.173-.89,2.666,2.666,0,0,0-2.149.89,3.3,3.3,0,0,0-.757,2.21v1.88A3.144,3.144,0,0,0,763.767,180.132Z"/>
      </g>
      <g>
        <path class="cls-7" d="M623.427,272.2h-10.84v29.346h-7.642V272.2H594.276V266h29.151Z"/>
        <path class="cls-7" d="M653.858,293.834a14.22,14.22,0,0,1-5.358,6.079,15.929,15.929,0,0,1-15.894,0,14.245,14.245,0,0,1-5.395-6.079,20.939,20.939,0,0,1-1.929-9.277v-1.538a21.029,21.029,0,0,1,1.929-9.291,14.288,14.288,0,0,1,5.371-6.09,15.907,15.907,0,0,1,15.882,0,14.274,14.274,0,0,1,5.383,6.09,21.043,21.043,0,0,1,1.928,9.291v1.538A21.036,21.036,0,0,1,653.858,293.834Zm-7.8-19.152a6.795,6.795,0,0,0-11.084-.013q-1.931,2.856-1.929,8.3v1.587q0,5.4,1.953,8.3a6.31,6.31,0,0,0,5.566,2.906,6.23,6.23,0,0,0,5.518-2.906q1.928-2.9,1.929-8.3V282.97Q648.012,277.549,646.059,274.682Z"/>
        <path class="cls-7" d="M682,267.527a11.123,11.123,0,0,1,4.675,4.212,11.606,11.606,0,0,1,1.624,6.128,11,11,0,0,1-1.611,5.982,10.467,10.467,0,0,1-4.664,3.955,17.242,17.242,0,0,1-7.2,1.391h-6.3v12.354h-7.666V266h13.965A15.888,15.888,0,0,1,682,267.527Zm-2.856,14.1a4.922,4.922,0,0,0,1.416-3.711,6.626,6.626,0,0,0-.611-2.856,4.78,4.78,0,0,0-1.9-2.076,6.15,6.15,0,0,0-3.223-.781h-6.3v10.791h6.3A6.013,6.013,0,0,0,679.14,281.627Z"/>
        <path class="cls-7" d="M725.2,268.139a14.926,14.926,0,0,1,5.774,6,18.451,18.451,0,0,1,2.075,8.85v1.563a18.427,18.427,0,0,1-2.075,8.862,14.928,14.928,0,0,1-5.786,5.993,16.719,16.719,0,0,1-8.5,2.137H705.653V266h11.084A16.6,16.6,0,0,1,725.2,268.139Zm.061,14.806q0-5.272-2.173-8.008a7.628,7.628,0,0,0-6.348-2.734h-3.418v23.169h3.369a7.65,7.65,0,0,0,6.372-2.77q2.2-2.772,2.2-8.045Z"/>
        <path class="cls-7" d="M765.65,293.834a14.22,14.22,0,0,1-5.358,6.079,15.929,15.929,0,0,1-15.894,0A14.245,14.245,0,0,1,739,293.834a20.939,20.939,0,0,1-1.929-9.277v-1.538A21.029,21.029,0,0,1,739,273.728a14.288,14.288,0,0,1,5.371-6.09,15.907,15.907,0,0,1,15.882,0,14.274,14.274,0,0,1,5.383,6.09,21.043,21.043,0,0,1,1.928,9.291v1.538A21.036,21.036,0,0,1,765.65,293.834Zm-7.8-19.152a6.795,6.795,0,0,0-11.084-.013q-1.931,2.856-1.929,8.3v1.587q0,5.4,1.953,8.3a6.31,6.31,0,0,0,5.566,2.906,6.23,6.23,0,0,0,5.518-2.906q1.928-2.9,1.929-8.3V282.97Q759.8,277.549,757.851,274.682Z"/>
        <path class="cls-7" d="M812.514,266l-7.788,35.547h-7.764l-5.518-23.1-5.493,23.1h-7.764L770.375,266h7.617l4.614,24.707L788.2,266h6.494l5.616,24.707L804.9,266Z"/>
        <path class="cls-7" d="M837.807,301.549l-13.819-22.925v22.925h-7.666V266h7.666l13.819,22.925V266h7.641v35.547Z"/>
      </g>
      <g>
        <path class="cls-5" d="M625.379,274.567h-10.84v29.346H606.9V274.567H596.228v-6.2h29.151Z"/>
        <path class="cls-5" d="M655.81,296.2a14.22,14.22,0,0,1-5.358,6.079,15.927,15.927,0,0,1-15.893,0,14.241,14.241,0,0,1-5.4-6.079,20.936,20.936,0,0,1-1.929-9.277v-1.538a21.021,21.021,0,0,1,1.929-9.29A14.285,14.285,0,0,1,634.534,270a15.907,15.907,0,0,1,15.882,0,14.265,14.265,0,0,1,5.383,6.091,21.035,21.035,0,0,1,1.928,9.29v1.538A21.033,21.033,0,0,1,655.81,296.2Zm-7.8-19.152a6.8,6.8,0,0,0-11.084-.013q-1.929,2.856-1.929,8.3v1.587q0,5.4,1.953,8.3a6.312,6.312,0,0,0,5.567,2.905,6.231,6.231,0,0,0,5.517-2.905q1.928-2.905,1.929-8.3v-1.587Q649.964,279.915,648.011,277.046Z"/>
        <path class="cls-5" d="M683.948,269.892a11.114,11.114,0,0,1,4.675,4.211,11.606,11.606,0,0,1,1.624,6.128,11,11,0,0,1-1.611,5.982,10.469,10.469,0,0,1-4.663,3.955,17.234,17.234,0,0,1-7.2,1.392h-6.3v12.353h-7.666V268.366H676.77A15.875,15.875,0,0,1,683.948,269.892Zm-2.856,14.1a4.92,4.92,0,0,0,1.416-3.711,6.611,6.611,0,0,0-.611-2.856,4.772,4.772,0,0,0-1.9-2.075,6.139,6.139,0,0,0-3.223-.782h-6.3v10.791h6.3A6.013,6.013,0,0,0,681.092,283.991Z"/>
        <path class="cls-5" d="M727.149,270.5a14.935,14.935,0,0,1,5.774,6.006A18.433,18.433,0,0,1,735,285.358v1.563a18.415,18.415,0,0,1-2.075,8.862,14.922,14.922,0,0,1-5.786,5.993,16.718,16.718,0,0,1-8.5,2.137H707.605V268.366h11.084A16.6,16.6,0,0,1,727.149,270.5Zm.061,14.807q0-5.274-2.173-8.008a7.625,7.625,0,0,0-6.348-2.735h-3.418v23.169h3.37a7.653,7.653,0,0,0,6.372-2.77q2.2-2.772,2.2-8.045Z"/>
        <path class="cls-5" d="M767.6,296.2a14.22,14.22,0,0,1-5.358,6.079,15.927,15.927,0,0,1-15.893,0,14.241,14.241,0,0,1-5.4-6.079,20.936,20.936,0,0,1-1.929-9.277v-1.538a21.021,21.021,0,0,1,1.929-9.29A14.285,14.285,0,0,1,746.326,270a15.907,15.907,0,0,1,15.882,0,14.265,14.265,0,0,1,5.383,6.091,21.035,21.035,0,0,1,1.928,9.29v1.538A21.033,21.033,0,0,1,767.6,296.2Zm-7.8-19.152a6.8,6.8,0,0,0-11.084-.013q-1.929,2.856-1.929,8.3v1.587q0,5.4,1.953,8.3a6.312,6.312,0,0,0,5.567,2.905,6.231,6.231,0,0,0,5.517-2.905q1.928-2.905,1.929-8.3v-1.587Q761.756,279.915,759.8,277.046Z"/>
        <path class="cls-5" d="M814.466,268.366l-7.788,35.547h-7.764l-5.518-23.1-5.493,23.1H780.14l-7.813-35.547h7.617l4.615,24.707,5.59-24.707h6.494l5.616,24.707,4.59-24.707Z"/>
        <path class="cls-5" d="M839.759,303.913,825.94,280.988v22.925h-7.666V268.366h7.666l13.819,22.925V268.366H847.4v35.547Z"/>
      </g>
      <g>
        <path class="cls-1" d="M123.574,288.4a8.516,8.516,0,0,1,1.441,4.871q0,5.178-3.321,7.837t-9.643,2.662H98.306V268.222h12.548q6.422,0,9.9,2.441a9.207,9.207,0,0,1,2.222,11.854,7.624,7.624,0,0,1-3.8,2.99A7.218,7.218,0,0,1,123.574,288.4Zm-17.6-13.976v8.642h4.882a7.131,7.131,0,0,0,4.31-1.062,3.711,3.711,0,0,0,1.4-3.161,4,4,0,0,0-1.354-3.382,7.239,7.239,0,0,0-4.359-1.037Zm10.058,21.961a4.084,4.084,0,0,0,1.343-3.187q0-4.784-5.005-4.785h-6.4v9.18h6.079A5.782,5.782,0,0,0,116.03,296.384Z"/>
        <path class="cls-1" d="M157.839,296.054a14.234,14.234,0,0,1-5.359,6.079,15.927,15.927,0,0,1-15.893,0,14.247,14.247,0,0,1-5.4-6.079,20.94,20.94,0,0,1-1.928-9.278v-1.538a21.024,21.024,0,0,1,1.928-9.29,14.3,14.3,0,0,1,5.371-6.091,15.907,15.907,0,0,1,15.882,0,14.271,14.271,0,0,1,5.383,6.091,21.038,21.038,0,0,1,1.929,9.29v1.538A21.051,21.051,0,0,1,157.839,296.054Zm-7.8-19.153a6.8,6.8,0,0,0-11.084-.012q-1.929,2.856-1.929,8.3v1.587q0,5.4,1.953,8.3a6.311,6.311,0,0,0,5.567,2.905,6.229,6.229,0,0,0,5.517-2.905q1.929-2.9,1.929-8.3v-1.587Q151.992,279.77,150.039,276.9Z"/>
        <path class="cls-1" d="M190.542,274.423H179.7v29.346H172.06V274.423H161.392v-6.2h29.15Z"/>
        <path class="cls-1" d="M222.109,274.423h-10.84v29.346h-7.641V274.423H192.959v-6.2h29.15Z"/>
        <path class="cls-1" d="M252.541,296.054a14.232,14.232,0,0,1-5.358,6.079,15.929,15.929,0,0,1-15.894,0,14.253,14.253,0,0,1-5.4-6.079,20.94,20.94,0,0,1-1.928-9.278v-1.538a21.024,21.024,0,0,1,1.928-9.29,14.3,14.3,0,0,1,5.372-6.091,15.9,15.9,0,0,1,15.881,0,14.271,14.271,0,0,1,5.383,6.091,21.038,21.038,0,0,1,1.929,9.29v1.538A21.051,21.051,0,0,1,252.541,296.054Zm-7.8-19.153a6.8,6.8,0,0,0-11.084-.012q-1.929,2.856-1.929,8.3v1.587q0,5.4,1.954,8.3a6.308,6.308,0,0,0,5.566,2.905,6.23,6.23,0,0,0,5.518-2.905q1.927-2.9,1.928-8.3v-1.587Q246.694,279.77,244.741,276.9Z"/>
        <path class="cls-1" d="M297.207,303.769h-7.69v-9.18l.756-16.992-9.326,26.172h-5.2l-9.3-26.172.757,16.992v9.18h-7.666V268.222H269.57l8.789,25.366,8.789-25.366h10.059Z"/>
        <path class="cls-1" d="M335.354,270.358a14.935,14.935,0,0,1,5.774,6.006,18.437,18.437,0,0,1,2.075,8.85v1.562a18.422,18.422,0,0,1-2.075,8.863,14.928,14.928,0,0,1-5.786,5.993,16.718,16.718,0,0,1-8.5,2.137H315.81V268.222h11.084A16.609,16.609,0,0,1,335.354,270.358Zm.061,14.807q0-5.274-2.173-8.008a7.627,7.627,0,0,0-6.348-2.734h-3.418v23.169h3.37a7.651,7.651,0,0,0,6.372-2.771q2.2-2.771,2.2-8.045Z"/>
        <path class="cls-1" d="M375.808,296.054a14.234,14.234,0,0,1-5.359,6.079,15.927,15.927,0,0,1-15.893,0,14.247,14.247,0,0,1-5.4-6.079,20.94,20.94,0,0,1-1.929-9.278v-1.538a21.024,21.024,0,0,1,1.929-9.29,14.291,14.291,0,0,1,5.371-6.091,15.907,15.907,0,0,1,15.882,0,14.271,14.271,0,0,1,5.383,6.091,21.038,21.038,0,0,1,1.929,9.29v1.538A21.051,21.051,0,0,1,375.808,296.054Zm-7.8-19.153a6.8,6.8,0,0,0-11.084-.012q-1.929,2.856-1.929,8.3v1.587q0,5.4,1.953,8.3a6.31,6.31,0,0,0,5.567,2.905,6.229,6.229,0,0,0,5.517-2.905q1.928-2.9,1.929-8.3v-1.587Q369.961,279.77,368.008,276.9Z"/>
        <path class="cls-1" d="M422.671,268.222l-7.788,35.547h-7.764l-5.518-23.1-5.493,23.1h-7.763l-7.813-35.547h7.617l4.615,24.707,5.59-24.707h6.5l5.615,24.707,4.59-24.707Z"/>
        <path class="cls-1" d="M447.964,303.769l-13.819-22.925v22.925h-7.666V268.222h7.666l13.819,22.924V268.222h7.641v35.547Z"/>
      </g>
      <g>
        <path class="cls-5" d="M126.4,290.619a8.516,8.516,0,0,1,1.441,4.871q0,5.176-3.321,7.837t-9.643,2.661H101.136V270.441h12.549q6.42,0,9.9,2.442a9.208,9.208,0,0,1,2.223,11.853,7.633,7.633,0,0,1-3.8,2.991A7.209,7.209,0,0,1,126.4,290.619Zm-17.6-13.976v8.642h4.883a7.127,7.127,0,0,0,4.309-1.062,3.712,3.712,0,0,0,1.4-3.162,4,4,0,0,0-1.354-3.381,7.23,7.23,0,0,0-4.358-1.037ZM118.86,298.6a4.082,4.082,0,0,0,1.343-3.186q0-4.783-5.005-4.785h-6.4v9.179h6.079A5.777,5.777,0,0,0,118.86,298.6Z"/>
        <path class="cls-5" d="M160.669,298.273a14.23,14.23,0,0,1-5.359,6.08,15.927,15.927,0,0,1-15.893,0,14.256,14.256,0,0,1-5.4-6.08A20.933,20.933,0,0,1,132.093,289v-1.538a21.021,21.021,0,0,1,1.928-9.29,14.294,14.294,0,0,1,5.372-6.091,15.9,15.9,0,0,1,15.881,0,14.265,14.265,0,0,1,5.383,6.091,21.035,21.035,0,0,1,1.929,9.29V289A21.044,21.044,0,0,1,160.669,298.273Zm-7.8-19.152a6.8,6.8,0,0,0-11.084-.013q-1.929,2.857-1.929,8.3V289q0,5.4,1.954,8.3a6.31,6.31,0,0,0,5.566,2.9,6.231,6.231,0,0,0,5.517-2.9q1.929-2.906,1.929-8.3v-1.587Q154.822,281.99,152.869,279.121Z"/>
        <path class="cls-5" d="M193.372,276.643h-10.84v29.345h-7.641V276.643H164.222v-6.2h29.15Z"/>
        <path class="cls-5" d="M224.939,276.643H214.1v29.345h-7.642V276.643H195.789v-6.2h29.15Z"/>
        <path class="cls-5" d="M255.371,298.273a14.228,14.228,0,0,1-5.358,6.08,15.929,15.929,0,0,1-15.894,0,14.254,14.254,0,0,1-5.4-6.08A20.919,20.919,0,0,1,226.8,289v-1.538a21.007,21.007,0,0,1,1.929-9.29,14.285,14.285,0,0,1,5.371-6.091,15.9,15.9,0,0,1,15.881,0,14.265,14.265,0,0,1,5.383,6.091,21.035,21.035,0,0,1,1.929,9.29V289A21.044,21.044,0,0,1,255.371,298.273Zm-7.8-19.152a6.8,6.8,0,0,0-11.084-.013q-1.929,2.857-1.928,8.3V289q0,5.4,1.953,8.3a6.31,6.31,0,0,0,5.566,2.9,6.231,6.231,0,0,0,5.518-2.9q1.928-2.906,1.928-8.3v-1.587Q249.524,281.99,247.571,279.121Z"/>
        <path class="cls-5" d="M300.037,305.988h-7.69v-9.179l.756-16.993-9.326,26.172h-5.2l-9.3-26.172.757,16.993v9.179h-7.666V270.441H272.4l8.789,25.367,8.789-25.367h10.059Z"/>
        <path class="cls-5" d="M338.185,272.578a14.939,14.939,0,0,1,5.773,6.006,18.434,18.434,0,0,1,2.075,8.85V289a18.415,18.415,0,0,1-2.075,8.862,14.925,14.925,0,0,1-5.786,5.994,16.728,16.728,0,0,1-8.5,2.136H318.641V270.441h11.084A16.6,16.6,0,0,1,338.185,272.578Zm.06,14.807q0-5.274-2.173-8.008a7.626,7.626,0,0,0-6.347-2.734h-3.418v23.168h3.369a7.65,7.65,0,0,0,6.372-2.77q2.2-2.772,2.2-8.045Z"/>
        <path class="cls-5" d="M378.638,298.273a14.237,14.237,0,0,1-5.359,6.08,15.927,15.927,0,0,1-15.893,0,14.25,14.25,0,0,1-5.4-6.08A20.933,20.933,0,0,1,350.061,289v-1.538a21.021,21.021,0,0,1,1.929-9.29,14.285,14.285,0,0,1,5.371-6.091,15.907,15.907,0,0,1,15.882,0,14.265,14.265,0,0,1,5.383,6.091,21.035,21.035,0,0,1,1.929,9.29V289A21.044,21.044,0,0,1,378.638,298.273Zm-7.8-19.152a6.8,6.8,0,0,0-11.084-.013q-1.929,2.857-1.929,8.3V289q0,5.4,1.953,8.3a6.312,6.312,0,0,0,5.567,2.9,6.231,6.231,0,0,0,5.517-2.9q1.927-2.906,1.929-8.3v-1.587Q372.791,281.99,370.838,279.121Z"/>
        <path class="cls-5" d="M425.5,270.441l-7.788,35.547h-7.764l-5.517-23.1-5.494,23.1h-7.763l-7.813-35.547h7.617l4.615,24.707,5.591-24.707h6.494l5.615,24.707,4.59-24.707Z"/>
        <path class="cls-5" d="M450.794,305.988l-13.818-22.925v22.925H429.31V270.441h7.666l13.818,22.925V270.441h7.641v35.547Z"/>
      </g>
      <g>
        <path class="cls-8" d="M243.54,44.1A13.115,13.115,0,0,1,238.1,48.9a18.342,18.342,0,0,1-8.191,1.719,16.1,16.1,0,0,1-8.7-2.3,14.718,14.718,0,0,1-5.627-6.553,23.909,23.909,0,0,1-1.947-10.03v-2.39a23.35,23.35,0,0,1,2.015-10.031,15.188,15.188,0,0,1,5.694-6.593,15.812,15.812,0,0,1,8.593-2.31,17.808,17.808,0,0,1,8.245,1.773,13.091,13.091,0,0,1,5.33,4.9,16.73,16.73,0,0,1,2.269,7.238h-8.406a8.071,8.071,0,0,0-1.947-5.277q-1.706-1.734-5.491-1.733a6.519,6.519,0,0,0-5.855,2.9q-1.908,2.9-1.906,9.077v2.444a24.328,24.328,0,0,0,.779,6.78,7.352,7.352,0,0,0,2.471,3.908,7.207,7.207,0,0,0,4.484,1.289q3.624,0,5.41-1.652a7.357,7.357,0,0,0,2.03-5.089h8.4A14.992,14.992,0,0,1,243.54,44.1Z"/>
        <path class="cls-8" d="M281.581,49.683v.4h-9.023l-7.2-14.126h-6.1V50.085h-8.432v-39.1H265.6a20.28,20.28,0,0,1,7.8,1.357,10.748,10.748,0,0,1,5.008,4,11.467,11.467,0,0,1,1.746,6.459,11.854,11.854,0,0,1-1.8,6.807,12.134,12.134,0,0,1-5.156,4.177ZM259.263,29.138H265.6a6.324,6.324,0,0,0,4.566-1.5,5.478,5.478,0,0,0,1.557-4.136,5.578,5.578,0,0,0-1.543-4.189,6.317,6.317,0,0,0-4.58-1.5h-6.338Z"/>
        <path class="cls-8" d="M286.685,50.085v-39.1h8.4v39.1Z"/>
        <path class="cls-8" d="M324.5,42.323H310.638l-2.551,7.762h-8.969l14.5-39.1h7.842l14.582,39.1h-9Zm-2.256-6.82-4.7-14.261L312.868,35.5Z"/>
        <path class="cls-8" d="M360.011,42.068a7.357,7.357,0,0,0,2.029-5.089h8.4a15.274,15.274,0,0,1-1.812,6.446,12.9,12.9,0,0,1-4.377,4.659,16.234,16.234,0,0,1-6.647,2.351l-.215,1.074a5.325,5.325,0,0,1,2.874,1.409,4.3,4.3,0,0,1,1.154,3.236,5.57,5.57,0,0,1-1.088,3.424,6.922,6.922,0,0,1-3.234,2.27,15,15,0,0,1-5.239.8l-.187-4.673a3.7,3.7,0,0,0,2.095-.523,1.824,1.824,0,0,0,.778-1.625,1.52,1.52,0,0,0-.86-1.464,8.077,8.077,0,0,0-2.925-.577l.724-3.411a14.654,14.654,0,0,1-7.076-3.1,15.288,15.288,0,0,1-4.525-6.4,24.884,24.884,0,0,1-1.559-9.131v-2.39a23.335,23.335,0,0,1,2.016-10.031,15.186,15.186,0,0,1,5.693-6.593,15.816,15.816,0,0,1,8.594-2.31,17.807,17.807,0,0,1,8.244,1.773,13.091,13.091,0,0,1,5.33,4.9,16.717,16.717,0,0,1,2.27,7.238h-8.407a8.066,8.066,0,0,0-1.947-5.277q-1.705-1.734-5.49-1.733a6.52,6.52,0,0,0-5.856,2.9q-1.906,2.9-1.906,9.077v2.444a24.365,24.365,0,0,0,.779,6.78,7.352,7.352,0,0,0,2.471,3.908A7.208,7.208,0,0,0,354.6,43.72Q358.225,43.72,360.011,42.068Z"/>
        <path class="cls-8" d="M397.677,42.323H383.819l-2.552,7.762H372.3l14.5-39.1h7.842l14.582,39.1h-9Zm2.509-37.852A6.558,6.558,0,0,1,398,7.089a5.4,5.4,0,0,1-3.143.967,6.256,6.256,0,0,1-2.082-.309,13.945,13.945,0,0,1-2-.926,14.817,14.817,0,0,0-1.718-.793,4.6,4.6,0,0,0-1.584-.255,2.079,2.079,0,0,0-1.586.659,2.587,2.587,0,0,0-.618,1.838l-4.646-.241a8.312,8.312,0,0,1,.793-3.585A6.722,6.722,0,0,1,383.6,1.772,5.242,5.242,0,0,1,386.72.778a5.386,5.386,0,0,1,1.826.309,18.75,18.75,0,0,1,1.986.873q1.263.59,1.988.846a4.72,4.72,0,0,0,1.584.255,2.163,2.163,0,0,0,1.612-.658A2.557,2.557,0,0,0,396.36.536l4.619.322A8.217,8.217,0,0,1,400.186,4.471ZM395.421,35.5l-4.7-14.261L386.048,35.5Z"/>
        <path class="cls-8" d="M442.942,41.6a15.667,15.667,0,0,1-5.894,6.687,17.527,17.527,0,0,1-17.485,0A15.684,15.684,0,0,1,413.63,41.6a23.015,23.015,0,0,1-2.123-10.2V29.7a23.1,23.1,0,0,1,2.123-10.219,15.727,15.727,0,0,1,5.908-6.7,17.5,17.5,0,0,1,17.469,0,15.7,15.7,0,0,1,5.922,6.7A23.133,23.133,0,0,1,445.05,29.7v1.692A23.168,23.168,0,0,1,442.942,41.6Zm-8.58-21.069a7.477,7.477,0,0,0-12.193-.013q-2.121,3.142-2.121,9.13v1.747q0,5.935,2.148,9.13a6.943,6.943,0,0,0,6.123,3.2,6.854,6.854,0,0,0,6.069-3.2q2.121-3.2,2.123-9.13V29.647Q436.511,23.686,434.362,20.53Z"/>
        <path class="cls-8" d="M485.829,13.333a16.432,16.432,0,0,1,6.352,6.606,20.288,20.288,0,0,1,2.283,9.736v1.719a20.267,20.267,0,0,1-2.283,9.748,16.413,16.413,0,0,1-6.364,6.593,18.393,18.393,0,0,1-9.345,2.35H464.333v-39.1h12.191A18.262,18.262,0,0,1,485.829,13.333Zm.068,16.288q0-5.8-2.39-8.809a8.389,8.389,0,0,0-6.983-3.007h-3.759V43.29h3.707a8.412,8.412,0,0,0,7.007-3.048Q485.9,37.2,485.9,31.394Z"/>
        <path class="cls-8" d="M530.329,41.6a15.667,15.667,0,0,1-5.894,6.687,17.524,17.524,0,0,1-17.483,0,15.675,15.675,0,0,1-5.935-6.687,23.029,23.029,0,0,1-2.122-10.2V29.7a23.119,23.119,0,0,1,2.122-10.219,15.721,15.721,0,0,1,5.908-6.7,17.5,17.5,0,0,1,17.468,0,15.7,15.7,0,0,1,5.922,6.7A23.133,23.133,0,0,1,532.436,29.7v1.692A23.154,23.154,0,0,1,530.329,41.6Zm-8.58-21.069a7.477,7.477,0,0,0-12.193-.013q-2.121,3.142-2.121,9.13v1.747q0,5.935,2.148,9.13a6.947,6.947,0,0,0,6.123,3.2,6.853,6.853,0,0,0,6.07-3.2q2.121-3.2,2.121-9.13V29.647Q523.9,23.686,521.749,20.53Z"/>
        <path class="cls-8" d="M582,41.6a15.662,15.662,0,0,1-5.895,6.687,17.522,17.522,0,0,1-17.482,0,15.684,15.684,0,0,1-5.936-6.687,23.043,23.043,0,0,1-2.121-10.2V29.7a23.133,23.133,0,0,1,2.121-10.219,15.729,15.729,0,0,1,5.909-6.7,17.5,17.5,0,0,1,17.468,0,15.7,15.7,0,0,1,5.922,6.7A23.133,23.133,0,0,1,584.106,29.7v1.692A23.154,23.154,0,0,1,582,41.6Zm-8.58-21.069a7.477,7.477,0,0,0-12.193-.013q-2.122,3.142-2.122,9.13v1.747q0,5.935,2.149,9.13a6.945,6.945,0,0,0,6.123,3.2,6.853,6.853,0,0,0,6.07-3.2q2.121-3.2,2.121-9.13V29.647Q575.567,23.686,573.419,20.53Z"/>
        <path class="cls-8" d="M602.235,34.724l-4.109,4.458v10.9h-8.432v-39.1h8.432V28.52l3.465-4.915,9.56-12.622h10.366L607.849,28.358l13.964,21.727h-9.99Z"/>
        <path class="cls-8" d="M655.435,49.683v.4h-9.024l-7.2-14.126h-6.1V50.085h-8.432v-39.1h14.77a20.275,20.275,0,0,1,7.8,1.357,10.759,10.759,0,0,1,5.01,4,11.467,11.467,0,0,1,1.746,6.459,11.862,11.862,0,0,1-1.8,6.807,12.134,12.134,0,0,1-5.156,4.177ZM633.118,29.138h6.338a6.322,6.322,0,0,0,4.566-1.5,5.482,5.482,0,0,0,1.557-4.136,5.579,5.579,0,0,0-1.545-4.189,6.31,6.31,0,0,0-4.578-1.5h-6.338Z"/>
      </g>
      <g>
        <path class="cls-5" d="M245.742,44.1a13.106,13.106,0,0,1-5.437,4.806,18.349,18.349,0,0,1-8.192,1.719,16.105,16.105,0,0,1-8.7-2.3,14.71,14.71,0,0,1-5.626-6.553,23.909,23.909,0,0,1-1.947-10.03v-2.39a23.35,23.35,0,0,1,2.014-10.031,15.188,15.188,0,0,1,5.694-6.593,15.816,15.816,0,0,1,8.594-2.31,17.8,17.8,0,0,1,8.244,1.773,13.094,13.094,0,0,1,5.331,4.9,16.729,16.729,0,0,1,2.268,7.238h-8.405a8.076,8.076,0,0,0-1.947-5.277q-1.706-1.734-5.491-1.733a6.52,6.52,0,0,0-5.856,2.9q-1.905,2.9-1.906,9.077v2.444a24.365,24.365,0,0,0,.779,6.78,7.358,7.358,0,0,0,2.471,3.908,7.209,7.209,0,0,0,4.484,1.289q3.625,0,5.411-1.652a7.357,7.357,0,0,0,2.029-5.089h8.405A14.992,14.992,0,0,1,245.742,44.1Z"/>
        <path class="cls-5" d="M283.783,49.683v.4H274.76l-7.2-14.126h-6.1V50.085h-8.432v-39.1H267.8a20.272,20.272,0,0,1,7.8,1.357,10.751,10.751,0,0,1,5.009,4A11.467,11.467,0,0,1,282.36,22.8a11.854,11.854,0,0,1-1.8,6.807,12.128,12.128,0,0,1-5.156,4.177ZM261.466,29.138H267.8a6.322,6.322,0,0,0,4.566-1.5,5.482,5.482,0,0,0,1.557-4.136,5.578,5.578,0,0,0-1.544-4.189,6.314,6.314,0,0,0-4.579-1.5h-6.338Z"/>
        <path class="cls-5" d="M288.887,50.085v-39.1h8.4v39.1Z"/>
        <path class="cls-5" d="M326.7,42.323H312.841l-2.552,7.762H301.32l14.5-39.1h7.842l14.582,39.1h-9Zm-2.256-6.82-4.7-14.261L315.07,35.5Z"/>
        <path class="cls-5" d="M362.214,42.068a7.361,7.361,0,0,0,2.028-5.089h8.4a15.289,15.289,0,0,1-1.812,6.446,12.915,12.915,0,0,1-4.378,4.659,16.234,16.234,0,0,1-6.647,2.351l-.214,1.074a5.322,5.322,0,0,1,2.873,1.409,4.292,4.292,0,0,1,1.155,3.236,5.576,5.576,0,0,1-1.088,3.424,6.925,6.925,0,0,1-3.235,2.27,14.99,14.99,0,0,1-5.238.8l-.188-4.673a3.708,3.708,0,0,0,2.1-.523,1.824,1.824,0,0,0,.778-1.625,1.523,1.523,0,0,0-.859-1.464,8.1,8.1,0,0,0-2.927-.577l.724-3.411a14.663,14.663,0,0,1-7.076-3.1,15.3,15.3,0,0,1-4.525-6.4,24.905,24.905,0,0,1-1.558-9.131v-2.39a23.335,23.335,0,0,1,2.015-10.031,15.186,15.186,0,0,1,5.693-6.593,15.818,15.818,0,0,1,8.594-2.31,17.8,17.8,0,0,1,8.244,1.773,13.088,13.088,0,0,1,5.331,4.9,16.717,16.717,0,0,1,2.269,7.238h-8.406a8.071,8.071,0,0,0-1.947-5.277q-1.7-1.734-5.491-1.733a6.518,6.518,0,0,0-5.855,2.9q-1.907,2.9-1.907,9.077v2.444a24.323,24.323,0,0,0,.78,6.78,7.351,7.351,0,0,0,2.47,3.908A7.21,7.21,0,0,0,356.8,43.72Q360.429,43.72,362.214,42.068Z"/>
        <path class="cls-5" d="M399.879,42.323H386.021l-2.551,7.762H374.5l14.5-39.1h7.842l14.582,39.1h-9ZM402.39,4.471A6.57,6.57,0,0,1,400.2,7.089a5.393,5.393,0,0,1-3.141.967,6.262,6.262,0,0,1-2.083-.309,13.945,13.945,0,0,1-2-.926,14.817,14.817,0,0,0-1.718-.793,4.6,4.6,0,0,0-1.585-.255,2.077,2.077,0,0,0-1.585.659,2.582,2.582,0,0,0-.617,1.838l-4.647-.241a8.3,8.3,0,0,1,.793-3.585,6.722,6.722,0,0,1,2.189-2.672,5.242,5.242,0,0,1,3.115-.994,5.382,5.382,0,0,1,1.826.309,18.667,18.667,0,0,1,1.987.873q1.263.59,1.988.846a4.718,4.718,0,0,0,1.585.255,2.162,2.162,0,0,0,1.611-.658,2.552,2.552,0,0,0,.644-1.867l4.62.322A8.245,8.245,0,0,1,402.39,4.471ZM397.623,35.5l-4.7-14.261L388.251,35.5Z"/>
        <path class="cls-5" d="M445.144,41.6a15.667,15.667,0,0,1-5.894,6.687,17.524,17.524,0,0,1-17.483,0,15.682,15.682,0,0,1-5.935-6.687,23.029,23.029,0,0,1-2.122-10.2V29.7a23.119,23.119,0,0,1,2.122-10.219,15.727,15.727,0,0,1,5.908-6.7,17.5,17.5,0,0,1,17.469,0,15.7,15.7,0,0,1,5.922,6.7A23.133,23.133,0,0,1,447.252,29.7v1.692A23.154,23.154,0,0,1,445.144,41.6Zm-8.58-21.069a7.477,7.477,0,0,0-12.193-.013q-2.121,3.142-2.121,9.13v1.747q0,5.935,2.148,9.13a6.945,6.945,0,0,0,6.123,3.2,6.854,6.854,0,0,0,6.07-3.2q2.121-3.2,2.122-9.13V29.647Q438.713,23.686,436.564,20.53Z"/>
        <path class="cls-5" d="M488.032,13.333a16.432,16.432,0,0,1,6.352,6.606,20.288,20.288,0,0,1,2.282,9.736v1.719a20.267,20.267,0,0,1-2.282,9.748,16.415,16.415,0,0,1-6.365,6.593,18.386,18.386,0,0,1-9.345,2.35H466.535v-39.1h12.191A18.268,18.268,0,0,1,488.032,13.333Zm.068,16.288q0-5.8-2.391-8.809a8.388,8.388,0,0,0-6.983-3.007h-3.759V43.29h3.707a8.417,8.417,0,0,0,7.009-3.048Q488.1,37.2,488.1,31.394Z"/>
        <path class="cls-5" d="M532.532,41.6a15.667,15.667,0,0,1-5.894,6.687,17.526,17.526,0,0,1-17.484,0A15.679,15.679,0,0,1,503.22,41.6a23.029,23.029,0,0,1-2.122-10.2V29.7a23.119,23.119,0,0,1,2.122-10.219,15.721,15.721,0,0,1,5.908-6.7,17.5,17.5,0,0,1,17.469,0,15.7,15.7,0,0,1,5.921,6.7A23.119,23.119,0,0,1,534.64,29.7v1.692A23.168,23.168,0,0,1,532.532,41.6Zm-8.58-21.069a7.477,7.477,0,0,0-12.193-.013q-2.121,3.142-2.121,9.13v1.747q0,5.935,2.148,9.13a6.945,6.945,0,0,0,6.123,3.2,6.852,6.852,0,0,0,6.069-3.2q2.123-3.2,2.123-9.13V29.647Q526.1,23.686,523.952,20.53Z"/>
        <path class="cls-5" d="M584.2,41.6a15.667,15.667,0,0,1-5.894,6.687,17.526,17.526,0,0,1-17.484,0A15.679,15.679,0,0,1,554.89,41.6a23.029,23.029,0,0,1-2.122-10.2V29.7a23.119,23.119,0,0,1,2.122-10.219,15.721,15.721,0,0,1,5.908-6.7,17.5,17.5,0,0,1,17.469,0,15.7,15.7,0,0,1,5.921,6.7A23.133,23.133,0,0,1,586.31,29.7v1.692A23.168,23.168,0,0,1,584.2,41.6Zm-8.58-21.069a7.477,7.477,0,0,0-12.193-.013q-2.121,3.142-2.121,9.13v1.747q0,5.935,2.148,9.13a6.945,6.945,0,0,0,6.123,3.2,6.852,6.852,0,0,0,6.069-3.2q2.121-3.2,2.122-9.13V29.647Q577.77,23.686,575.622,20.53Z"/>
        <path class="cls-5" d="M604.437,34.724l-4.109,4.458v10.9H591.9v-39.1h8.432V28.52l3.465-4.915,9.56-12.622H623.72L610.051,28.358l13.965,21.727h-9.991Z"/>
        <path class="cls-5" d="M657.638,49.683v.4h-9.024l-7.2-14.126h-6.1V50.085h-8.431v-39.1h14.769a20.277,20.277,0,0,1,7.8,1.357,10.751,10.751,0,0,1,5.009,4,11.467,11.467,0,0,1,1.746,6.459,11.861,11.861,0,0,1-1.8,6.807,12.134,12.134,0,0,1-5.156,4.177ZM635.32,29.138h6.338a6.326,6.326,0,0,0,4.567-1.5,5.481,5.481,0,0,0,1.556-4.136,5.574,5.574,0,0,0-1.544-4.189,6.311,6.311,0,0,0-4.579-1.5H635.32Z"/>
      </g>
      <g>
        <path class="cls-9" d="M717.272,359.231a9.155,9.155,0,0,1-3.759,3.418,12.714,12.714,0,0,1-5.821,1.231,11.108,11.108,0,0,1-6.093-1.651,10.724,10.724,0,0,1-4-4.7,16.853,16.853,0,0,1-1.407-7.129v-2.246a16.572,16.572,0,0,1,1.436-7.129,10.867,10.867,0,0,1,4.082-4.707,11.4,11.4,0,0,1,6.182-1.66,12.133,12.133,0,0,1,5.7,1.24,9.122,9.122,0,0,1,3.681,3.457,12.321,12.321,0,0,1,1.612,5.127h-5.039a7.323,7.323,0,0,0-1.69-4.287,6.582,6.582,0,0,0-9.2.977q-1.67,2.412-1.67,6.943V350.4a12.95,12.95,0,0,0,1.553,6.914,5.324,5.324,0,0,0,4.853,2.461,7.478,7.478,0,0,0,3.311-.634,4.305,4.305,0,0,0,1.933-1.856,8.87,8.87,0,0,0,.889-3.1h5.039A11.453,11.453,0,0,1,717.272,359.231Z"/>
        <path class="cls-9" d="M741.872,359.427v4.062H723.22V335.052h18.535v4.082H728.278v7.715H739.9v3.984H728.278v8.594Z"/>
        <path class="cls-9" d="M767.155,357.386a11.085,11.085,0,0,1-4.15,4.814,12.212,12.212,0,0,1-12.363,0,11.22,11.22,0,0,1-4.2-4.824,16.943,16.943,0,0,1-1.5-7.383v-1.426a17.022,17.022,0,0,1,1.5-7.382,10.984,10.984,0,0,1,10.341-6.524,11.45,11.45,0,0,1,6.2,1.68,11.112,11.112,0,0,1,4.169,4.824,17.177,17.177,0,0,1,1.485,7.4v1.426A17.2,17.2,0,0,1,767.155,357.386Zm-5.371-16.055a5.783,5.783,0,0,0-5.01-2.49,5.959,5.959,0,0,0-3.613,1.113,6.92,6.92,0,0,0-2.334,3.291,15.212,15.212,0,0,0-.81,5.283v1.465a15.117,15.117,0,0,0,.82,5.293,7.022,7.022,0,0,0,2.353,3.311,5.964,5.964,0,0,0,3.623,1.123,5.724,5.724,0,0,0,4.991-2.5q1.748-2.5,1.748-7.227v-1.465Q763.552,343.823,761.784,341.331Z"/>
      </g>
      <g>
        <path class="cls-9" d="M646.892,410.019H635.974l-2.266,6.523h-5.293L639.138,388.1h4.55l10.762,28.438h-5.293Zm-1.426-4.083-4.043-11.66-4.043,11.66Z"/>
        <path class="cls-9" d="M657.458,416.542v-30h4.863v30Z"/>
        <path class="cls-9" d="M677.321,412.714v3.75a9.986,9.986,0,0,1-3.164.469,5.62,5.62,0,0,1-4.062-1.426,6.073,6.073,0,0,1-1.485-4.551V399h-3.437v-3.594h3.437v-5.156h4.864v5.156h3.711V399h-3.711v11.621a2.351,2.351,0,0,0,.546,1.807,2.434,2.434,0,0,0,1.641.478A7.675,7.675,0,0,0,677.321,412.714Z"/>
        <path class="cls-9" d="M698.3,416.21v.332h-4.961a8.7,8.7,0,0,1-.547-1.973,7.553,7.553,0,0,1-2.383,1.719,7.371,7.371,0,0,1-3.144.645,8.182,8.182,0,0,1-3.711-.821,6.279,6.279,0,0,1-2.559-2.265,6.442,6.442,0,0,1,1.592-8.418q2.51-1.8,7.119-1.8h2.93v-1.367A3.257,3.257,0,0,0,689,398.69a4.564,4.564,0,0,0-1.895.371,3.029,3.029,0,0,0-1.269,1.016,2.464,2.464,0,0,0-.449,1.445h-4.864a5.344,5.344,0,0,1,1.084-3.193,7.561,7.561,0,0,1,3.086-2.4,10.971,10.971,0,0,1,4.58-.908,10.491,10.491,0,0,1,4.278.82,6.429,6.429,0,0,1,2.9,2.461,7.308,7.308,0,0,1,1.045,4v9.316A10.915,10.915,0,0,0,698.3,416.21Zm-7.393-3.887a4.644,4.644,0,0,0,1.729-1.738V406.64H690.1a6.68,6.68,0,0,0-3.848.918,2.969,2.969,0,0,0-1.309,2.578,2.754,2.754,0,0,0,.86,2.1,3.366,3.366,0,0,0,2.4.811A5.077,5.077,0,0,0,690.905,412.323Z"/>
        <path class="cls-9" d="M730.036,386.542v30h-4.394l-.235-2.207a6.9,6.9,0,0,1-5.644,2.6,7.2,7.2,0,0,1-4.385-1.387,8.828,8.828,0,0,1-2.9-3.828,14.244,14.244,0,0,1-1.015-5.508v-.41a14.723,14.723,0,0,1,1.006-5.645,8.5,8.5,0,0,1,2.89-3.789,7.444,7.444,0,0,1,4.444-1.347,6.818,6.818,0,0,1,5.371,2.324v-10.8Zm-4.863,23.867v-8.945a4.319,4.319,0,0,0-4.141-2.481,3.876,3.876,0,0,0-3.545,1.895,9.31,9.31,0,0,0-1.162,4.922v.41a9.226,9.226,0,0,0,1.143,4.873,3.844,3.844,0,0,0,3.525,1.865A4.36,4.36,0,0,0,725.173,410.409Z"/>
        <path class="cls-9" d="M739.7,388.056a2.507,2.507,0,0,1,.742,1.865,2.453,2.453,0,0,1-.742,1.836,3.18,3.18,0,0,1-4.023.01,2.443,2.443,0,0,1-.743-1.846,2.5,2.5,0,0,1,.743-1.865,3.126,3.126,0,0,1,4.023,0Zm-4.453,28.486V395.409h4.863v21.133Z"/>
        <path class="cls-9" d="M755.651,395.1a3.883,3.883,0,0,1,.772.175l-.039,4.59a12.257,12.257,0,0,0-1.934-.156q-3.263,0-4.375,2.441v14.395h-4.863V395.409h4.629l.136,2.383a5.917,5.917,0,0,1,1.993-2.051,5.21,5.21,0,0,1,2.754-.722A6.275,6.275,0,0,1,755.651,395.1Z"/>
        <path class="cls-9" d="M777.224,407.5h-13.77a6.971,6.971,0,0,0,.84,2.871,5.134,5.134,0,0,0,1.9,1.953,5.447,5.447,0,0,0,2.8.7,6.336,6.336,0,0,0,5.273-2.578l2.6,2.52a9.087,9.087,0,0,1-3.2,2.832,10.125,10.125,0,0,1-4.961,1.133,10.553,10.553,0,0,1-5.391-1.338,9.071,9.071,0,0,1-3.535-3.662,10.98,10.98,0,0,1-1.23-5.215v-.8a12.536,12.536,0,0,1,1.25-5.732,9.29,9.29,0,0,1,3.437-3.819,9.2,9.2,0,0,1,4.922-1.347,9.091,9.091,0,0,1,5.02,1.308,7.953,7.953,0,0,1,3.037,3.662,13.793,13.793,0,0,1,1.006,5.459Zm-4.805-3.887a5.85,5.85,0,0,0-1.113-3.369,3.741,3.741,0,0,0-3.164-1.318,3.913,3.913,0,0,0-3.086,1.328,6.946,6.946,0,0,0-1.5,3.73h8.867Z"/>
        <path class="cls-9" d="M791.579,412.577a3.71,3.71,0,0,0,1.465-1.25,3.523,3.523,0,0,0,.605-1.816h4.59a6.82,6.82,0,0,1-1.035,3.418,8.055,8.055,0,0,1-2.637,2.617,9.2,9.2,0,0,1-3.691,1.308l-.156.8a3.885,3.885,0,0,1,2.09,1.026,3.124,3.124,0,0,1,.839,2.353,3.817,3.817,0,0,1-.732,2.324,4.65,4.65,0,0,1-2.188,1.543,10.037,10.037,0,0,1-3.525.547l-.137-2.773a3.741,3.741,0,0,0,1.9-.42,1.4,1.4,0,0,0,.713-1.3,1.218,1.218,0,0,0-.665-1.182,6.431,6.431,0,0,0-2.265-.459l.586-2.6a8.378,8.378,0,0,1-4.082-1.953,9.158,9.158,0,0,1-2.481-3.662,13.5,13.5,0,0,1-.82-4.8v-.664a13.029,13.029,0,0,1,1.084-5.4,8.7,8.7,0,0,1,3.252-3.818,10.55,10.55,0,0,1,9.756-.4,7.485,7.485,0,0,1,3.037,2.823,8.32,8.32,0,0,1,1.152,4.16h-4.59a4.736,4.736,0,0,0-.566-2.061,3.855,3.855,0,0,0-1.416-1.474,4.063,4.063,0,0,0-2.139-.547,3.828,3.828,0,0,0-3.652,1.894,9.842,9.842,0,0,0-1.055,4.825v.664q0,6.718,4.727,6.718A4.551,4.551,0,0,0,791.579,412.577Z"/>
        <path class="cls-9" d="M819.313,416.21v.332h-4.961a8.712,8.712,0,0,1-.546-1.973,7.553,7.553,0,0,1-2.383,1.719,7.376,7.376,0,0,1-3.145.645,8.185,8.185,0,0,1-3.711-.821,6.282,6.282,0,0,1-2.558-2.265,5.913,5.913,0,0,1-.918-3.243,5.975,5.975,0,0,1,2.51-5.175q2.508-1.8,7.119-1.8h2.929v-1.367a3.257,3.257,0,0,0-3.632-3.575,4.564,4.564,0,0,0-1.9.371,3.026,3.026,0,0,0-1.27,1.016,2.471,2.471,0,0,0-.449,1.445H801.54a5.338,5.338,0,0,1,1.084-3.193,7.561,7.561,0,0,1,3.086-2.4,10.968,10.968,0,0,1,4.58-.908,10.487,10.487,0,0,1,4.277.82,6.432,6.432,0,0,1,2.9,2.461,7.308,7.308,0,0,1,1.045,4v9.316A10.916,10.916,0,0,0,819.313,416.21Zm-2.285-26.68a4.437,4.437,0,0,1-1.572,1.807,4.017,4.017,0,0,1-2.236.654,4.2,4.2,0,0,1-1.5-.234,10.906,10.906,0,0,1-1.426-.7,7.157,7.157,0,0,0-1.172-.606,3.257,3.257,0,0,0-1.172-.195,1.615,1.615,0,0,0-1.26.557,2.07,2.07,0,0,0-.5,1.435l-2.968-.156a5.837,5.837,0,0,1,.566-2.578,4.579,4.579,0,0,1,1.563-1.846,3.885,3.885,0,0,1,2.226-.674,3.764,3.764,0,0,1,1.309.215,11.723,11.723,0,0,1,1.426.664,11.529,11.529,0,0,0,1.337.645,3.372,3.372,0,0,0,1.221.214,1.656,1.656,0,0,0,1.26-.556,2.053,2.053,0,0,0,.517-1.455l2.95.234A5.761,5.761,0,0,1,817.028,389.53Zm-5.107,22.793a4.634,4.634,0,0,0,1.728-1.738V406.64H811.11a6.678,6.678,0,0,0-3.847.918,2.969,2.969,0,0,0-1.309,2.578,2.754,2.754,0,0,0,.859,2.1,3.368,3.368,0,0,0,2.4.811A5.08,5.08,0,0,0,811.921,412.323Z"/>
        <path class="cls-9" d="M823.7,400.253a9.115,9.115,0,0,1,3.408-3.838,9.649,9.649,0,0,1,5.235-1.4,9.769,9.769,0,0,1,5.283,1.4,9.091,9.091,0,0,1,3.418,3.838,12.525,12.525,0,0,1,1.182,5.527v.41a12.526,12.526,0,0,1-1.182,5.528,9.053,9.053,0,0,1-3.408,3.828,10.664,10.664,0,0,1-10.518,0,9.03,9.03,0,0,1-3.418-3.828,12.526,12.526,0,0,1-1.181-5.528v-.41A12.525,12.525,0,0,1,823.7,400.253Zm4.932,10.859a4.178,4.178,0,0,0,3.75,1.914,4.282,4.282,0,0,0,2.783-.908,5.307,5.307,0,0,0,1.66-2.451,10.51,10.51,0,0,0,.537-3.477v-.41a10.537,10.537,0,0,0-.537-3.467,5.338,5.338,0,0,0-1.67-2.47,4.315,4.315,0,0,0-2.812-.918,4.212,4.212,0,0,0-2.774.918,5.4,5.4,0,0,0-1.65,2.47,10.564,10.564,0,0,0-.537,3.467v.41A8.85,8.85,0,0,0,828.63,411.112Z"/>
      </g>
      <g>
        <path class="cls-9" d="M176.894,362.571a9.155,9.155,0,0,1-3.759,3.418,12.714,12.714,0,0,1-5.821,1.231,11.108,11.108,0,0,1-6.093-1.651,10.724,10.724,0,0,1-4-4.7,16.853,16.853,0,0,1-1.407-7.129V351.5a16.565,16.565,0,0,1,1.436-7.129,10.867,10.867,0,0,1,4.082-4.707A11.4,11.4,0,0,1,167.51,338a12.133,12.133,0,0,1,5.7,1.24,9.116,9.116,0,0,1,3.681,3.457,12.321,12.321,0,0,1,1.612,5.127h-5.039a7.317,7.317,0,0,0-1.69-4.287,6.582,6.582,0,0,0-9.2.977q-1.669,2.412-1.67,6.943v2.285a12.95,12.95,0,0,0,1.553,6.914,5.324,5.324,0,0,0,4.853,2.461,7.463,7.463,0,0,0,3.311-.635,4.31,4.31,0,0,0,1.934-1.855,8.9,8.9,0,0,0,.888-3.1h5.039A11.453,11.453,0,0,1,176.894,362.571Z"/>
        <path class="cls-9" d="M182.7,350.54A9.115,9.115,0,0,1,186.1,346.7a9.649,9.649,0,0,1,5.235-1.4,9.769,9.769,0,0,1,5.283,1.4,9.091,9.091,0,0,1,3.418,3.838,12.525,12.525,0,0,1,1.182,5.527v.411a12.525,12.525,0,0,1-1.182,5.527,9.053,9.053,0,0,1-3.408,3.828,10.664,10.664,0,0,1-10.518,0,9.03,9.03,0,0,1-3.418-3.828,12.525,12.525,0,0,1-1.181-5.527v-.411A12.525,12.525,0,0,1,182.7,350.54Zm4.932,10.859a4.178,4.178,0,0,0,3.75,1.914,4.282,4.282,0,0,0,2.783-.908,5.307,5.307,0,0,0,1.66-2.451,10.5,10.5,0,0,0,.537-3.476v-.411a10.527,10.527,0,0,0-.537-3.466,5.336,5.336,0,0,0-1.67-2.471,4.32,4.32,0,0,0-2.812-.918,4.217,4.217,0,0,0-2.774.918,5.4,5.4,0,0,0-1.65,2.471,10.553,10.553,0,0,0-.537,3.466v.411A8.849,8.849,0,0,0,187.627,361.4Z"/>
        <path class="cls-9" d="M205.459,366.829v-30h4.863v30Z"/>
        <path class="cls-9" d="M232.959,366.5v.332H228a8.7,8.7,0,0,1-.547-1.973,7.553,7.553,0,0,1-2.383,1.719,7.371,7.371,0,0,1-3.144.645,8.185,8.185,0,0,1-3.711-.821,6.278,6.278,0,0,1-2.559-2.265,6.442,6.442,0,0,1,1.592-8.418q2.51-1.8,7.119-1.8h2.93v-1.367a3.256,3.256,0,0,0-3.633-3.574,4.556,4.556,0,0,0-1.894.371,3.024,3.024,0,0,0-1.27,1.015,2.465,2.465,0,0,0-.449,1.446h-4.864a5.345,5.345,0,0,1,1.084-3.194,7.561,7.561,0,0,1,3.086-2.4,10.971,10.971,0,0,1,4.58-.908,10.488,10.488,0,0,1,4.278.82,6.429,6.429,0,0,1,2.9,2.461,7.3,7.3,0,0,1,1.045,4v9.316A10.915,10.915,0,0,0,232.959,366.5Zm-7.393-3.887a4.637,4.637,0,0,0,1.729-1.738v-3.945h-2.539a6.68,6.68,0,0,0-3.848.918,2.969,2.969,0,0,0-1.308,2.578,2.754,2.754,0,0,0,.859,2.1,3.366,3.366,0,0,0,2.4.811A5.077,5.077,0,0,0,225.566,362.61Z"/>
        <path class="cls-9" d="M251.914,346.663a8.2,8.2,0,0,1,2.8,3.779,15.529,15.529,0,0,1,.937,5.625v.411a15.248,15.248,0,0,1-.947,5.585,8.344,8.344,0,0,1-2.8,3.79,7.331,7.331,0,0,1-4.472,1.367,6.905,6.905,0,0,1-5.762-2.676l-.235,2.285h-4.394v-30H241.9v10.879a6.815,6.815,0,0,1,5.489-2.4A7.474,7.474,0,0,1,251.914,346.663Zm-1.123,9.4a9.906,9.906,0,0,0-1.065-4.931,3.773,3.773,0,0,0-3.564-1.866,4.33,4.33,0,0,0-4.258,2.657v8.633a4.378,4.378,0,0,0,4.3,2.695,3.762,3.762,0,0,0,3.516-1.826,9.755,9.755,0,0,0,1.074-4.951Z"/>
        <path class="cls-9" d="M259.863,350.54a9.115,9.115,0,0,1,3.408-3.838,9.649,9.649,0,0,1,5.235-1.4,9.769,9.769,0,0,1,5.283,1.4,9.091,9.091,0,0,1,3.418,3.838,12.525,12.525,0,0,1,1.182,5.527v.411a12.525,12.525,0,0,1-1.182,5.527,9.053,9.053,0,0,1-3.408,3.828,10.664,10.664,0,0,1-10.518,0,9.03,9.03,0,0,1-3.418-3.828,12.525,12.525,0,0,1-1.181-5.527v-.411A12.525,12.525,0,0,1,259.863,350.54ZM264.8,361.4a4.178,4.178,0,0,0,3.75,1.914,4.282,4.282,0,0,0,2.783-.908,5.307,5.307,0,0,0,1.66-2.451,10.5,10.5,0,0,0,.537-3.476v-.411a10.527,10.527,0,0,0-.537-3.466,5.336,5.336,0,0,0-1.67-2.471,4.32,4.32,0,0,0-2.812-.918,4.217,4.217,0,0,0-2.774.918,5.4,5.4,0,0,0-1.65,2.471,10.553,10.553,0,0,0-.537,3.466v.411A8.849,8.849,0,0,0,264.8,361.4Z"/>
        <path class="cls-9" d="M292.754,345.384a3.857,3.857,0,0,1,.771.176l-.039,4.589a12.244,12.244,0,0,0-1.933-.156q-3.263,0-4.375,2.442v14.394h-4.864V345.7h4.629l.137,2.383a5.906,5.906,0,0,1,1.992-2.051,5.21,5.21,0,0,1,2.754-.722A6.288,6.288,0,0,1,292.754,345.384Z"/>
        <path class="cls-9" d="M313.643,366.5v.332h-4.961a8.7,8.7,0,0,1-.547-1.973,7.553,7.553,0,0,1-2.383,1.719,7.376,7.376,0,0,1-3.145.645,8.185,8.185,0,0,1-3.711-.821,6.275,6.275,0,0,1-2.558-2.265,6.442,6.442,0,0,1,1.592-8.418q2.508-1.8,7.119-1.8h2.929v-1.367a3.255,3.255,0,0,0-3.632-3.574,4.564,4.564,0,0,0-1.895.371,3.015,3.015,0,0,0-1.269,1.015,2.466,2.466,0,0,0-.45,1.446h-4.863a5.338,5.338,0,0,1,1.084-3.194,7.561,7.561,0,0,1,3.086-2.4,10.968,10.968,0,0,1,4.58-.908,10.487,10.487,0,0,1,4.277.82,6.427,6.427,0,0,1,2.9,2.461,7.311,7.311,0,0,1,1.045,4v9.316A10.9,10.9,0,0,0,313.643,366.5Zm-7.393-3.887a4.634,4.634,0,0,0,1.728-1.738v-3.945h-2.539a6.678,6.678,0,0,0-3.847.918,2.969,2.969,0,0,0-1.309,2.578,2.751,2.751,0,0,0,.86,2.1,3.366,3.366,0,0,0,2.4.811A5.08,5.08,0,0,0,306.25,362.61Z"/>
        <path class="cls-9" d="M335.42,336.829v30h-4.4l-.234-2.207a6.9,6.9,0,0,1-5.645,2.6,7.193,7.193,0,0,1-4.384-1.387,8.828,8.828,0,0,1-2.9-3.828,14.244,14.244,0,0,1-1.015-5.508v-.41a14.742,14.742,0,0,1,1-5.645,8.5,8.5,0,0,1,2.891-3.789,7.44,7.44,0,0,1,4.443-1.347,6.821,6.821,0,0,1,5.372,2.324v-10.8ZM330.557,360.7v-8.945a4.319,4.319,0,0,0-4.141-2.481,3.875,3.875,0,0,0-3.545,1.9,9.31,9.31,0,0,0-1.162,4.922v.41a9.236,9.236,0,0,0,1.142,4.873,3.847,3.847,0,0,0,3.526,1.865A4.36,4.36,0,0,0,330.557,360.7Z"/>
        <path class="cls-9" d="M340.625,350.54a9.115,9.115,0,0,1,3.408-3.838,9.649,9.649,0,0,1,5.235-1.4,9.769,9.769,0,0,1,5.283,1.4,9.091,9.091,0,0,1,3.418,3.838,12.525,12.525,0,0,1,1.181,5.527v.411a12.525,12.525,0,0,1-1.181,5.527,9.049,9.049,0,0,1-3.409,3.828,10.662,10.662,0,0,1-10.517,0,9.03,9.03,0,0,1-3.418-3.828,12.525,12.525,0,0,1-1.182-5.527v-.411A12.525,12.525,0,0,1,340.625,350.54Zm4.932,10.859a4.178,4.178,0,0,0,3.75,1.914,4.282,4.282,0,0,0,2.783-.908,5.307,5.307,0,0,0,1.66-2.451,10.53,10.53,0,0,0,.537-3.476v-.411a10.553,10.553,0,0,0-.537-3.466,5.336,5.336,0,0,0-1.67-2.471,4.32,4.32,0,0,0-2.812-.918,4.215,4.215,0,0,0-2.774.918,5.4,5.4,0,0,0-1.65,2.471,10.527,10.527,0,0,0-.537,3.466v.411A8.849,8.849,0,0,0,345.557,361.4Z"/>
        <path class="cls-9" d="M373.516,345.384a3.874,3.874,0,0,1,.771.176l-.039,4.589a12.247,12.247,0,0,0-1.934-.156q-3.261,0-4.375,2.442v14.394h-4.863V345.7h4.629l.137,2.383a5.906,5.906,0,0,1,1.992-2.051,5.21,5.21,0,0,1,2.754-.722A6.3,6.3,0,0,1,373.516,345.384Z"/>
        <path class="cls-9" d="M395.088,357.786h-13.77a6.971,6.971,0,0,0,.84,2.871,5.134,5.134,0,0,0,1.9,1.953,5.447,5.447,0,0,0,2.8.7,6.338,6.338,0,0,0,5.274-2.578l2.6,2.52a9.078,9.078,0,0,1-3.2,2.832,10.122,10.122,0,0,1-4.961,1.133,10.552,10.552,0,0,1-5.39-1.338,9.074,9.074,0,0,1-3.536-3.662,10.977,10.977,0,0,1-1.23-5.215v-.8a12.536,12.536,0,0,1,1.25-5.732,9.29,9.29,0,0,1,3.437-3.819,9.2,9.2,0,0,1,4.922-1.347,9.089,9.089,0,0,1,5.02,1.308,7.953,7.953,0,0,1,3.037,3.662,13.793,13.793,0,0,1,1.006,5.459Zm-4.805-3.887a5.835,5.835,0,0,0-1.113-3.369,3.741,3.741,0,0,0-3.164-1.318,3.913,3.913,0,0,0-3.086,1.328,6.961,6.961,0,0,0-1.5,3.73h8.867Z"/>
        <path class="cls-9" d="M400.4,355.755a4.77,4.77,0,0,1-1.972-4.024,5.579,5.579,0,0,1,1.006-3.212,6.884,6.884,0,0,1,2.871-2.344,10.093,10.093,0,0,1,4.306-.869,10.794,10.794,0,0,1,4.522.879,6.939,6.939,0,0,1,2.959,2.412,6.02,6.02,0,0,1,1.035,3.447h-4.863a2.967,2.967,0,0,0-1.661-2.695,4.237,4.237,0,0,0-1.992-.43,3.914,3.914,0,0,0-2.558.742,2.311,2.311,0,0,0-.9,1.856,1.877,1.877,0,0,0,.381,1.191,3.225,3.225,0,0,0,1.318.879,15.181,15.181,0,0,0,2.6.742,20.6,20.6,0,0,1,4.277,1.328,6.565,6.565,0,0,1,2.618,2.031,5.137,5.137,0,0,1,.918,3.125,5.506,5.506,0,0,1-1.065,3.321,6.882,6.882,0,0,1-3.017,2.275,11.7,11.7,0,0,1-4.512.811,10.631,10.631,0,0,1-4.805-1.016,7.647,7.647,0,0,1-3.086-2.637,6.166,6.166,0,0,1-1.054-3.418h4.707a3.115,3.115,0,0,0,1.318,2.618,5.227,5.227,0,0,0,3,.839,4.755,4.755,0,0,0,2.764-.693,2.152,2.152,0,0,0,.986-1.846,2.228,2.228,0,0,0-.352-1.269,3.13,3.13,0,0,0-1.337-.977,13.59,13.59,0,0,0-2.8-.82A14.179,14.179,0,0,1,400.4,355.755Z"/>
      </g>
      <line class="cls-10" x1="562.182" y1="258.639" x2="562.182" y2="316.715"/>
    </g>
  </g>
</svg>
