<svg xmlns="http://www.w3.org/2000/svg" viewBox="0 0 1349.618 638.077">
  <defs>
    <style>
      .cls-1, .cls-11, .cls-12, .cls-13, .cls-14, .cls-15, .cls-2, .cls-3, .cls-4, .cls-5, .cls-6, .cls-7 {
        fill: none;
      }

      .cls-1, .cls-2, .cls-3, .cls-4 {
        stroke: #e31b23;
      }

      .cls-1, .cls-11, .cls-12, .cls-13, .cls-14, .cls-15, .cls-16, .cls-17, .cls-18, .cls-2, .cls-3, .cls-4, .cls-5, .cls-6, .cls-7 {
        stroke-miterlimit: 10;
      }

      .cls-1 {
        stroke-width: 20px;
      }

      .cls-2 {
        stroke-width: 18.98px;
      }

      .cls-3 {
        stroke-width: 19px;
      }

      .cls-4 {
        stroke-width: 16.538px;
      }

      .cls-5, .cls-6, .cls-7 {
        stroke: #4a555e;
      }

      .cls-5 {
        stroke-width: 2.305px;
      }

      .cls-6 {
        stroke-width: 2.257px;
      }

      .cls-7 {
        stroke-width: 2.149px;
      }

      .cls-8 {
        fill: #4a555e;
      }

      .cls-9 {
        fill: #1c2122;
      }

      .cls-10 {
        fill: #a09395;
      }

      .cls-11, .cls-12, .cls-13, .cls-14, .cls-15 {
        stroke: #a09395;
      }

      .cls-11 {
        stroke-width: 3.65px;
      }

      .cls-12 {
        stroke-width: 1.833px;
      }

      .cls-13 {
        stroke-width: 3.792px;
      }

      .cls-14 {
        stroke-linecap: round;
        stroke-width: 3.65px;
      }

      .cls-15 {
        stroke-width: 2.576px;
      }

      .cls-16, .cls-18, .cls-19 {
        fill: #5183f2;
      }

      .cls-16, .cls-18 {
        stroke: #5183f2;
      }

      .cls-16 {
        stroke-width: 6px;
      }

      .cls-17 {
        fill: #2a59dd;
        stroke: #2a59dd;
        stroke-width: 5.281px;
      }

      .cls-18 {
        stroke-width: 2px;
      }
    </style>
  </defs>
  <g id="Camada_2" data-name="Camada 2">
    <g id="Camada_4" data-name="Camada 4">
      <circle class="cls-1" cx="204.465" cy="150.006" r="140.006"/>
      <circle class="cls-2" cx="204.465" cy="150.006" r="103.826"/>
      <circle class="cls-3" cx="204.465" cy="150.006" r="66.529"/>
      <circle class="cls-4" cx="204.465" cy="150.006" r="26.187"/>
      <circle class="cls-4" cx="684.217" cy="153.833" r="26.187"/>
      <circle class="cls-4" cx="1180.835" cy="156.665" r="26.187"/>
      <circle class="cls-1" cx="684.217" cy="153.833" r="140.006"/>
      <circle class="cls-2" cx="684.217" cy="153.833" r="103.826"/>
      <circle class="cls-3" cx="684.217" cy="153.833" r="66.529"/>
      <circle class="cls-1" cx="1180.835" cy="156.665" r="140.006"/>
      <circle class="cls-2" cx="1180.835" cy="156.665" r="103.826"/>
      <circle class="cls-3" cx="1180.835" cy="156.665" r="66.529"/>
      <circle class="cls-5" cx="29.37" cy="31.878" r="28.218"/>
      <circle class="cls-6" cx="524.089" cy="32.178" r="27.631"/>
      <circle class="cls-7" cx="1014.578" cy="36.52" r="26.301"/>
      <path class="cls-8" d="M26.878,46.257v-21.8l-6.66,2.233v-3.9l10.75-3.94h.581v27.41Z"/>
      <path class="cls-8" d="M514.412,46.187V43.026l8.708-9.442a31.255,31.255,0,0,0,2.241-2.746,9.414,9.414,0,0,0,1.148-2.067,5.278,5.278,0,0,0,.339-1.837,4.371,4.371,0,0,0-1.037-3.032,3.667,3.667,0,0,0-2.876-1.157,4.138,4.138,0,0,0-3.315,1.332,5.225,5.225,0,0,0-1.149,3.536H513.9a8.733,8.733,0,0,1,1.084-4.317,7.865,7.865,0,0,1,3.142-3.086,9.888,9.888,0,0,1,4.868-1.14,10.537,10.537,0,0,1,4.556.9,6.519,6.519,0,0,1,2.884,2.563,7.505,7.505,0,0,1,.993,3.922,9.093,9.093,0,0,1-1.4,4.693,29.946,29.946,0,0,1-4.078,5.154l-5.806,6.21h12.309v3.674Z"/>
      <path class="cls-8" d="M1020.42,38.608a6.368,6.368,0,0,1,1.049,3.62,6.906,6.906,0,0,1-4.2,6.6,10.642,10.642,0,0,1-4.424.883,10.382,10.382,0,0,1-4.171-.83,7.123,7.123,0,0,1-3.059-2.457,6.625,6.625,0,0,1-1.146-3.917h4.354a3.678,3.678,0,0,0,.508,1.931,3.394,3.394,0,0,0,1.433,1.312,4.739,4.739,0,0,0,2.152.464,4.315,4.315,0,0,0,3.086-1.05,3.869,3.869,0,0,0,1.11-2.955A3.823,3.823,0,0,0,1015.9,39.1a5.19,5.19,0,0,0-3.419-1.015h-2.536V34.656h2.536a4.368,4.368,0,0,0,3.165-1.05,3.733,3.733,0,0,0,1.084-2.815,3.777,3.777,0,0,0-.962-2.763,3.825,3.825,0,0,0-2.849-.979,4.427,4.427,0,0,0-1.977.429,3.315,3.315,0,0,0-1.373,1.215,3.359,3.359,0,0,0-.5,1.836h-4.354a6.372,6.372,0,0,1,1.049-3.585,7.115,7.115,0,0,1,2.911-2.492,9.48,9.48,0,0,1,4.171-.9,10.62,10.62,0,0,1,4.337.822,6.329,6.329,0,0,1,2.876,2.448,7.3,7.3,0,0,1,1.024,3.969,5.581,5.581,0,0,1-1.015,3.131,6.616,6.616,0,0,1-2.885,2.36A6.116,6.116,0,0,1,1020.42,38.608Z"/>
      <g>
        <path class="cls-9" d="M91.048,364.633v.241H85.889l-5.362-10.353h-5.14v10.353H70.582V337.858h9.574q4.675,0,7.227,2.1A7.381,7.381,0,0,1,89.934,346a7.771,7.771,0,0,1-1.28,4.527,8.155,8.155,0,0,1-3.637,2.858ZM75.387,350.661h4.788a5.145,5.145,0,0,0,3.682-1.206,4.216,4.216,0,0,0,1.272-3.21,4.414,4.414,0,0,0-1.225-3.321,5.2,5.2,0,0,0-3.748-1.188H75.387Z"/>
        <path class="cls-9" d="M110.938,356.283H97.857a6.62,6.62,0,0,0,.8,2.728,4.871,4.871,0,0,0,1.809,1.855,5.168,5.168,0,0,0,2.663.668,6.018,6.018,0,0,0,5.009-2.449l2.468,2.394a8.625,8.625,0,0,1-3.043,2.69,9.622,9.622,0,0,1-4.713,1.076,10.018,10.018,0,0,1-5.121-1.271,8.6,8.6,0,0,1-3.358-3.479,10.425,10.425,0,0,1-1.169-4.954v-.761a11.9,11.9,0,0,1,1.187-5.445,8.641,8.641,0,0,1,7.942-4.908,8.637,8.637,0,0,1,4.768,1.243,7.557,7.557,0,0,1,2.886,3.479,13.107,13.107,0,0,1,.955,5.186Zm-4.564-3.692a5.557,5.557,0,0,0-1.058-3.2,3.557,3.557,0,0,0-3.006-1.252,3.721,3.721,0,0,0-2.931,1.261,6.6,6.6,0,0,0-1.429,3.544h8.424Z"/>
        <path class="cls-9" d="M115.985,354.354a4.53,4.53,0,0,1-1.874-3.823,5.3,5.3,0,0,1,.956-3.051,6.545,6.545,0,0,1,2.727-2.227,9.578,9.578,0,0,1,4.091-.826,10.243,10.243,0,0,1,4.3.835,6.588,6.588,0,0,1,2.812,2.292,5.719,5.719,0,0,1,.983,3.274h-4.62a2.82,2.82,0,0,0-1.577-2.56,4.036,4.036,0,0,0-1.893-.409,3.724,3.724,0,0,0-2.43.705,2.195,2.195,0,0,0-.854,1.763,1.775,1.775,0,0,0,.363,1.132,3.031,3.031,0,0,0,1.252.835,14.434,14.434,0,0,0,2.467.705,19.666,19.666,0,0,1,4.064,1.262,6.235,6.235,0,0,1,2.486,1.929,4.886,4.886,0,0,1,.872,2.969,5.233,5.233,0,0,1-1.011,3.155,6.542,6.542,0,0,1-2.867,2.162,11.138,11.138,0,0,1-4.286.769,10.093,10.093,0,0,1-4.564-.965,7.245,7.245,0,0,1-2.932-2.5,5.855,5.855,0,0,1-1-3.247h4.472a2.961,2.961,0,0,0,1.252,2.487,4.96,4.96,0,0,0,2.848.8,4.511,4.511,0,0,0,2.626-.66,2.042,2.042,0,0,0,.937-1.753,2.124,2.124,0,0,0-.334-1.206,2.985,2.985,0,0,0-1.271-.927,12.976,12.976,0,0,0-2.663-.78A13.45,13.45,0,0,1,115.985,354.354Z"/>
        <path class="cls-9" d="M150.608,344.8v20.076h-4.36l-.112-1.985a6.91,6.91,0,0,1-5.622,2.356,6.473,6.473,0,0,1-4.879-1.818q-1.764-1.818-1.763-5.659V344.8h4.62v13.007a3.82,3.82,0,0,0,.863,2.811,3.106,3.106,0,0,0,2.273.844q3.209,0,4.341-2.282V344.8Z"/>
        <path class="cls-9" d="M155.414,364.874v-28.5h4.62v28.5Z"/>
        <path class="cls-9" d="M174.284,361.237V364.8a9.476,9.476,0,0,1-3.006.445,5.336,5.336,0,0,1-3.859-1.354,5.767,5.767,0,0,1-1.41-4.324V348.212h-3.266V344.8h3.266v-4.9h4.62v4.9h3.525v3.414h-3.525v11.04a2.225,2.225,0,0,0,.519,1.716,2.3,2.3,0,0,0,1.559.455A7.272,7.272,0,0,0,174.284,361.237Z"/>
        <path class="cls-9" d="M194.212,364.559v.315H189.5a8.3,8.3,0,0,1-.52-1.874,7.173,7.173,0,0,1-2.263,1.633,7.014,7.014,0,0,1-2.988.612,7.781,7.781,0,0,1-3.525-.779,5.966,5.966,0,0,1-2.431-2.152,5.621,5.621,0,0,1-.872-3.081,5.678,5.678,0,0,1,2.385-4.917,11.5,11.5,0,0,1,6.763-1.707h2.783v-1.3a3.093,3.093,0,0,0-3.451-3.4,4.324,4.324,0,0,0-1.8.353,2.862,2.862,0,0,0-1.206.964,2.347,2.347,0,0,0-.427,1.374h-4.62a5.075,5.075,0,0,1,1.03-3.035,7.175,7.175,0,0,1,2.932-2.281,10.409,10.409,0,0,1,4.35-.863,9.978,9.978,0,0,1,4.064.779,6.119,6.119,0,0,1,2.756,2.338,6.947,6.947,0,0,1,.992,3.8v8.85A10.361,10.361,0,0,0,194.212,364.559Zm-7.023-3.693a4.418,4.418,0,0,0,1.642-1.651v-3.748h-2.412a6.358,6.358,0,0,0-3.656.872,2.82,2.82,0,0,0-1.243,2.449,2.611,2.611,0,0,0,.817,1.994,3.191,3.191,0,0,0,2.282.771A4.825,4.825,0,0,0,187.189,360.866Z"/>
        <path class="cls-9" d="M214.9,336.374v28.5h-4.175l-.222-2.1a6.553,6.553,0,0,1-5.363,2.468,6.833,6.833,0,0,1-4.165-1.317,8.381,8.381,0,0,1-2.756-3.637,13.512,13.512,0,0,1-.964-5.232v-.39a14,14,0,0,1,.955-5.362,8.075,8.075,0,0,1,2.746-3.6,7.069,7.069,0,0,1,4.221-1.28,6.481,6.481,0,0,1,5.1,2.208V336.374Zm-4.62,22.674v-8.5a4.1,4.1,0,0,0-3.934-2.357,3.682,3.682,0,0,0-3.367,1.8,8.841,8.841,0,0,0-1.1,4.676v.39a8.778,8.778,0,0,0,1.085,4.63,3.655,3.655,0,0,0,3.349,1.771A4.142,4.142,0,0,0,210.28,359.048Z"/>
        <path class="cls-9" d="M219.845,349.4a8.667,8.667,0,0,1,3.238-3.646,9.163,9.163,0,0,1,4.972-1.326,9.282,9.282,0,0,1,5.019,1.326,8.65,8.65,0,0,1,3.248,3.646,11.91,11.91,0,0,1,1.122,5.251v.39a11.9,11.9,0,0,1-1.122,5.251,8.6,8.6,0,0,1-3.238,3.637,10.135,10.135,0,0,1-9.992,0,8.571,8.571,0,0,1-3.247-3.637,11.89,11.89,0,0,1-1.123-5.251v-.39A11.9,11.9,0,0,1,219.845,349.4Zm4.685,10.317a3.969,3.969,0,0,0,3.563,1.818,4.064,4.064,0,0,0,2.643-.863,5.039,5.039,0,0,0,1.578-2.328,10.011,10.011,0,0,0,.51-3.3v-.39a10.049,10.049,0,0,0-.51-3.294,5.089,5.089,0,0,0-1.587-2.346,4.108,4.108,0,0,0-2.672-.872,4,4,0,0,0-2.634.872,5.141,5.141,0,0,0-1.568,2.346,10.022,10.022,0,0,0-.51,3.294v.39A8.4,8.4,0,0,0,224.53,359.716Z"/>
        <path class="cls-9" d="M242.788,354.354a4.53,4.53,0,0,1-1.874-3.823,5.3,5.3,0,0,1,.956-3.051,6.548,6.548,0,0,1,2.726-2.227,9.583,9.583,0,0,1,4.092-.826,10.247,10.247,0,0,1,4.3.835,6.594,6.594,0,0,1,2.812,2.292,5.719,5.719,0,0,1,.983,3.274h-4.62a2.82,2.82,0,0,0-1.577-2.56,4.041,4.041,0,0,0-1.893-.409,3.722,3.722,0,0,0-2.43.705,2.195,2.195,0,0,0-.854,1.763,1.78,1.78,0,0,0,.362,1.132,3.045,3.045,0,0,0,1.252.835,14.45,14.45,0,0,0,2.468.705,19.685,19.685,0,0,1,4.064,1.262,6.235,6.235,0,0,1,2.486,1.929,4.886,4.886,0,0,1,.872,2.969,5.233,5.233,0,0,1-1.011,3.155,6.553,6.553,0,0,1-2.867,2.162,11.138,11.138,0,0,1-4.286.769,10.1,10.1,0,0,1-4.565-.965,7.242,7.242,0,0,1-2.931-2.5,5.855,5.855,0,0,1-1-3.247h4.472a2.958,2.958,0,0,0,1.251,2.487,4.965,4.965,0,0,0,2.849.8,4.511,4.511,0,0,0,2.626-.66,2.042,2.042,0,0,0,.937-1.753,2.131,2.131,0,0,0-.334-1.206,2.985,2.985,0,0,0-1.271-.927,13,13,0,0,0-2.663-.78A13.443,13.443,0,0,1,242.788,354.354Z"/>
        <path class="cls-9" d="M259.932,355.226v-3.711h9.816v3.711Z"/>
        <path class="cls-9" d="M290.1,358.194a6.44,6.44,0,0,1-1.169,3.544,7.888,7.888,0,0,1-2.968,2.561,8.816,8.816,0,0,1-4.064.946,9.128,9.128,0,0,1-5.057-1.336,8.174,8.174,0,0,1-3.088-3.627,12.469,12.469,0,0,1-1.021-5.131v-.63a12.407,12.407,0,0,1,1.029-5.131,8.267,8.267,0,0,1,3.09-3.627,10.02,10.02,0,0,1,9.268-.381,7.118,7.118,0,0,1,2.886,2.682,7.908,7.908,0,0,1,1.094,3.952h-4.36a4.518,4.518,0,0,0-.538-1.958,3.666,3.666,0,0,0-1.346-1.4,3.871,3.871,0,0,0-2.031-.519,3.635,3.635,0,0,0-3.47,1.8,9.346,9.346,0,0,0-1,4.583v.63q0,6.384,4.49,6.383a4.311,4.311,0,0,0,1.93-.427,3.521,3.521,0,0,0,1.392-1.187,3.351,3.351,0,0,0,.575-1.726Z"/>
        <path class="cls-9" d="M310.1,351.979v12.9h-4.62V351.941a3.991,3.991,0,0,0-.862-2.885,3.6,3.6,0,0,0-2.645-.863,4.436,4.436,0,0,0-2.347.613,4.537,4.537,0,0,0-1.623,1.707v14.361h-4.621v-28.5h4.621v10.613a7.129,7.129,0,0,1,5.547-2.56Q310.1,344.427,310.1,351.979Z"/>
        <path class="cls-9" d="M331.257,364.559v.315h-4.713a8.244,8.244,0,0,1-.52-1.874,7.166,7.166,0,0,1-2.264,1.633,7.01,7.01,0,0,1-2.987.612,7.781,7.781,0,0,1-3.525-.779,5.966,5.966,0,0,1-2.431-2.152,5.621,5.621,0,0,1-.872-3.081,5.678,5.678,0,0,1,2.385-4.917,11.5,11.5,0,0,1,6.763-1.707h2.783v-1.3a3.093,3.093,0,0,0-3.451-3.4,4.324,4.324,0,0,0-1.8.353,2.862,2.862,0,0,0-1.206.964,2.347,2.347,0,0,0-.427,1.374h-4.62a5.075,5.075,0,0,1,1.03-3.035,7.175,7.175,0,0,1,2.932-2.281,10.406,10.406,0,0,1,4.35-.863,9.978,9.978,0,0,1,4.064.779,6.119,6.119,0,0,1,2.756,2.338,6.947,6.947,0,0,1,.992,3.8v8.85A10.361,10.361,0,0,0,331.257,364.559Zm-7.023-3.693a4.418,4.418,0,0,0,1.642-1.651v-3.748h-2.412a6.355,6.355,0,0,0-3.656.872,2.82,2.82,0,0,0-1.243,2.449,2.611,2.611,0,0,0,.817,1.994,3.191,3.191,0,0,0,2.282.771A4.825,4.825,0,0,0,324.234,360.866Z"/>
        <path class="cls-9" d="M350.943,344.8,344,364.874H339.94L332.964,344.8h4.787L342,359.029l4.156-14.231Z"/>
        <path class="cls-9" d="M370.685,356.283H357.6a6.62,6.62,0,0,0,.8,2.728,4.871,4.871,0,0,0,1.809,1.855,5.168,5.168,0,0,0,2.663.668,6.021,6.021,0,0,0,5.01-2.449l2.467,2.394a8.625,8.625,0,0,1-3.043,2.69,9.62,9.62,0,0,1-4.713,1.076,10.018,10.018,0,0,1-5.121-1.271,8.6,8.6,0,0,1-3.358-3.479,10.425,10.425,0,0,1-1.169-4.954v-.761a11.9,11.9,0,0,1,1.188-5.445,8.639,8.639,0,0,1,7.941-4.908,8.637,8.637,0,0,1,4.768,1.243,7.551,7.551,0,0,1,2.886,3.479,13.107,13.107,0,0,1,.955,5.186Zm-4.564-3.692a5.557,5.557,0,0,0-1.058-3.2,3.557,3.557,0,0,0-3.006-1.252,3.721,3.721,0,0,0-2.931,1.261,6.609,6.609,0,0,0-1.429,3.544h8.424Z"/>
        <path class="cls-9" d="M378.868,345.058a2.489,2.489,0,0,1,.724,1.837,2.436,2.436,0,0,1-.724,1.809,3.04,3.04,0,0,1-3.915,0,2.432,2.432,0,0,1-.724-1.809,2.485,2.485,0,0,1,.724-1.837,3.008,3.008,0,0,1,3.915,0Zm0,15.678a2.492,2.492,0,0,1,.724,1.837,2.435,2.435,0,0,1-.724,1.809,3.037,3.037,0,0,1-3.915,0,2.431,2.431,0,0,1-.724-1.809,2.488,2.488,0,0,1,.724-1.837,3.011,3.011,0,0,1,3.915,0Z"/>
      </g>
      <g>
        <path class="cls-9" d="M542.363,368.46v.241h-5.158l-5.362-10.353H526.7V368.7H521.9V341.686h9.574q4.677,0,7.227,2.1a7.382,7.382,0,0,1,2.552,6.049,7.772,7.772,0,0,1-1.281,4.527,8.158,8.158,0,0,1-3.636,2.858ZM526.7,354.488h4.787a5.148,5.148,0,0,0,3.683-1.206,4.217,4.217,0,0,0,1.271-3.21,4.41,4.41,0,0,0-1.225-3.321,5.2,5.2,0,0,0-3.748-1.187H526.7Z"/>
        <path class="cls-9" d="M562.254,360.11H549.173a6.62,6.62,0,0,0,.8,2.728,4.878,4.878,0,0,0,1.809,1.855,5.17,5.17,0,0,0,2.663.668,6.021,6.021,0,0,0,5.01-2.449l2.468,2.394a8.634,8.634,0,0,1-3.043,2.69,9.622,9.622,0,0,1-4.713,1.076,10.018,10.018,0,0,1-5.121-1.271,8.61,8.61,0,0,1-3.359-3.479,10.422,10.422,0,0,1-1.169-4.954v-.761a11.9,11.9,0,0,1,1.188-5.445,8.827,8.827,0,0,1,3.265-3.628,8.737,8.737,0,0,1,4.676-1.28,8.638,8.638,0,0,1,4.769,1.243,7.56,7.56,0,0,1,2.886,3.48,13.117,13.117,0,0,1,.955,5.185Zm-4.565-3.692a5.556,5.556,0,0,0-1.057-3.2,3.559,3.559,0,0,0-3.006-1.252,3.721,3.721,0,0,0-2.932,1.262,6.6,6.6,0,0,0-1.429,3.544h8.424Z"/>
        <path class="cls-9" d="M567.3,358.181a4.531,4.531,0,0,1-1.875-3.823,5.3,5.3,0,0,1,.957-3.051,6.535,6.535,0,0,1,2.726-2.227,9.583,9.583,0,0,1,4.092-.826,10.25,10.25,0,0,1,4.295.835,6.592,6.592,0,0,1,2.811,2.292,5.715,5.715,0,0,1,.984,3.274h-4.62a2.823,2.823,0,0,0-1.578-2.56,4.034,4.034,0,0,0-1.892-.408,3.721,3.721,0,0,0-2.431.7,2.194,2.194,0,0,0-.853,1.762,1.777,1.777,0,0,0,.362,1.132,3.031,3.031,0,0,0,1.252.835,14.358,14.358,0,0,0,2.468.705,19.655,19.655,0,0,1,4.063,1.262,6.241,6.241,0,0,1,2.487,1.93,4.883,4.883,0,0,1,.872,2.968,5.233,5.233,0,0,1-1.011,3.155,6.553,6.553,0,0,1-2.867,2.162,11.142,11.142,0,0,1-4.286.769,10.1,10.1,0,0,1-4.565-.965,7.25,7.25,0,0,1-2.932-2.5,5.866,5.866,0,0,1-1-3.247h4.471a2.96,2.96,0,0,0,1.252,2.486,4.963,4.963,0,0,0,2.849.8,4.519,4.519,0,0,0,2.626-.659,2.043,2.043,0,0,0,.936-1.753,2.121,2.121,0,0,0-.334-1.206,2.975,2.975,0,0,0-1.27-.928,13.06,13.06,0,0,0-2.663-.78A13.443,13.443,0,0,1,567.3,358.181Z"/>
        <path class="cls-9" d="M601.924,348.625V368.7h-4.361l-.111-1.985a6.913,6.913,0,0,1-5.622,2.356,6.477,6.477,0,0,1-4.88-1.818q-1.764-1.818-1.763-5.659v-12.97h4.62v13.007a3.815,3.815,0,0,0,.864,2.811,3.106,3.106,0,0,0,2.272.844q3.21,0,4.342-2.282v-14.38Z"/>
        <path class="cls-9" d="M606.729,368.7V340.2h4.62v28.5Z"/>
        <path class="cls-9" d="M625.6,365.064v3.563a9.468,9.468,0,0,1-3.006.445,5.339,5.339,0,0,1-3.859-1.354,5.771,5.771,0,0,1-1.41-4.323V352.039h-3.266v-3.414h3.266v-4.9h4.62v4.9h3.525v3.414h-3.525v11.04a2.225,2.225,0,0,0,.52,1.716,2.3,2.3,0,0,0,1.558.455A7.2,7.2,0,0,0,625.6,365.064Z"/>
        <path class="cls-9" d="M645.527,368.386v.315h-4.713a8.221,8.221,0,0,1-.519-1.874,7.166,7.166,0,0,1-2.264,1.633,7.013,7.013,0,0,1-2.987.612,7.769,7.769,0,0,1-3.526-.779,5.963,5.963,0,0,1-2.43-2.152,5.618,5.618,0,0,1-.872-3.08,5.675,5.675,0,0,1,2.384-4.917,11.488,11.488,0,0,1,6.763-1.707h2.783v-1.3a3.094,3.094,0,0,0-3.451-3.4,4.328,4.328,0,0,0-1.8.353,2.863,2.863,0,0,0-1.206.965,2.342,2.342,0,0,0-.427,1.373h-4.62a5.07,5.07,0,0,1,1.031-3.035,7.172,7.172,0,0,1,2.931-2.281,10.414,10.414,0,0,1,4.351-.863,9.973,9.973,0,0,1,4.063.779,6.119,6.119,0,0,1,2.756,2.338,6.947,6.947,0,0,1,.992,3.8v8.85A10.358,10.358,0,0,0,645.527,368.386Zm-7.022-3.693a4.4,4.4,0,0,0,1.641-1.651v-3.748h-2.412a6.354,6.354,0,0,0-3.655.872,2.82,2.82,0,0,0-1.243,2.449,2.611,2.611,0,0,0,.816,1.994,3.192,3.192,0,0,0,2.282.771A4.829,4.829,0,0,0,638.505,364.693Z"/>
        <path class="cls-9" d="M666.216,340.2v28.5h-4.175l-.223-2.1a6.554,6.554,0,0,1-5.362,2.467,6.831,6.831,0,0,1-4.165-1.317,8.366,8.366,0,0,1-2.756-3.637,13.493,13.493,0,0,1-.965-5.232v-.39a14,14,0,0,1,.955-5.362,8.089,8.089,0,0,1,2.746-3.6,7.074,7.074,0,0,1,4.222-1.28,6.479,6.479,0,0,1,5.1,2.208V340.2ZM661.6,362.875v-8.5a4.1,4.1,0,0,0-3.933-2.356,3.68,3.68,0,0,0-3.367,1.8,8.834,8.834,0,0,0-1.1,4.676v.39a8.778,8.778,0,0,0,1.085,4.63,3.656,3.656,0,0,0,3.35,1.771A4.141,4.141,0,0,0,661.6,362.875Z"/>
        <path class="cls-9" d="M671.161,353.227a8.662,8.662,0,0,1,3.237-3.647,9.167,9.167,0,0,1,4.973-1.326,9.279,9.279,0,0,1,5.018,1.326,8.647,8.647,0,0,1,3.248,3.647,11.9,11.9,0,0,1,1.123,5.251v.389a11.9,11.9,0,0,1-1.123,5.251,8.6,8.6,0,0,1-3.238,3.637,10.135,10.135,0,0,1-9.992,0,8.569,8.569,0,0,1-3.246-3.637,11.89,11.89,0,0,1-1.123-5.251v-.389A11.89,11.89,0,0,1,671.161,353.227Zm4.684,10.316a3.969,3.969,0,0,0,3.563,1.818,4.06,4.06,0,0,0,2.643-.863,5.041,5.041,0,0,0,1.579-2.328,10.037,10.037,0,0,0,.509-3.3v-.389a10.067,10.067,0,0,0-.509-3.294,5.087,5.087,0,0,0-1.587-2.347,4.112,4.112,0,0,0-2.672-.872,4.005,4.005,0,0,0-2.635.872,5.137,5.137,0,0,0-1.567,2.347,10.014,10.014,0,0,0-.511,3.294v.389A8.4,8.4,0,0,0,675.845,363.543Z"/>
        <path class="cls-9" d="M694.1,358.181a4.53,4.53,0,0,1-1.874-3.823,5.3,5.3,0,0,1,.956-3.051,6.545,6.545,0,0,1,2.727-2.227,9.58,9.58,0,0,1,4.092-.826,10.25,10.25,0,0,1,4.295.835,6.6,6.6,0,0,1,2.811,2.292,5.721,5.721,0,0,1,.983,3.274h-4.62a2.82,2.82,0,0,0-1.577-2.56,4.034,4.034,0,0,0-1.892-.408,3.719,3.719,0,0,0-2.431.7,2.194,2.194,0,0,0-.854,1.762,1.777,1.777,0,0,0,.363,1.132,3.031,3.031,0,0,0,1.252.835,14.343,14.343,0,0,0,2.467.705,19.666,19.666,0,0,1,4.064,1.262,6.237,6.237,0,0,1,2.486,1.93,4.883,4.883,0,0,1,.872,2.968,5.239,5.239,0,0,1-1.01,3.155,6.551,6.551,0,0,1-2.868,2.162,11.138,11.138,0,0,1-4.286.769,10.093,10.093,0,0,1-4.564-.965,7.25,7.25,0,0,1-2.932-2.5,5.86,5.86,0,0,1-1-3.247h4.472a2.96,2.96,0,0,0,1.252,2.486,4.961,4.961,0,0,0,2.849.8,4.519,4.519,0,0,0,2.626-.659,2.043,2.043,0,0,0,.936-1.753,2.121,2.121,0,0,0-.334-1.206,2.981,2.981,0,0,0-1.27-.928,13.052,13.052,0,0,0-2.664-.78A13.45,13.45,0,0,1,694.1,358.181Z"/>
        <path class="cls-9" d="M711.248,359.053v-3.711h9.815v3.711Z"/>
        <path class="cls-9" d="M741.418,362.022a6.445,6.445,0,0,1-1.169,3.543,7.882,7.882,0,0,1-2.969,2.561,8.812,8.812,0,0,1-4.063.946,9.125,9.125,0,0,1-5.057-1.336,8.176,8.176,0,0,1-3.089-3.627,12.467,12.467,0,0,1-1.02-5.13v-.631a12.391,12.391,0,0,1,1.029-5.131,8.266,8.266,0,0,1,3.09-3.627,10.017,10.017,0,0,1,9.267-.381,7.105,7.105,0,0,1,2.886,2.682,7.908,7.908,0,0,1,1.1,3.952h-4.361a4.5,4.5,0,0,0-.538-1.958,3.663,3.663,0,0,0-1.345-1.4,3.874,3.874,0,0,0-2.032-.519,3.634,3.634,0,0,0-3.469,1.8,9.346,9.346,0,0,0-1,4.583v.631q0,6.382,4.49,6.382a4.327,4.327,0,0,0,1.93-.426,3.529,3.529,0,0,0,1.391-1.188,3.341,3.341,0,0,0,.575-1.725Z"/>
        <path class="cls-9" d="M761.42,355.806v12.9H756.8V355.769a3.992,3.992,0,0,0-.863-2.886,3.606,3.606,0,0,0-2.644-.862,4.448,4.448,0,0,0-2.348.612,4.537,4.537,0,0,0-1.623,1.707V368.7H744.7V340.2h4.62v10.613a7.13,7.13,0,0,1,5.548-2.56Q761.419,348.254,761.42,355.806Z"/>
        <path class="cls-9" d="M782.572,368.386v.315h-4.713a8.221,8.221,0,0,1-.519-1.874,7.166,7.166,0,0,1-2.264,1.633,7.013,7.013,0,0,1-2.987.612,7.769,7.769,0,0,1-3.526-.779,5.963,5.963,0,0,1-2.43-2.152,5.619,5.619,0,0,1-.873-3.08,5.676,5.676,0,0,1,2.385-4.917,11.488,11.488,0,0,1,6.763-1.707h2.783v-1.3a3.094,3.094,0,0,0-3.451-3.4,4.328,4.328,0,0,0-1.8.353,2.863,2.863,0,0,0-1.206.965,2.342,2.342,0,0,0-.427,1.373h-4.62a5.07,5.07,0,0,1,1.031-3.035,7.172,7.172,0,0,1,2.931-2.281,10.414,10.414,0,0,1,4.351-.863,9.976,9.976,0,0,1,4.063.779,6.119,6.119,0,0,1,2.756,2.338,6.947,6.947,0,0,1,.992,3.8v8.85A10.358,10.358,0,0,0,782.572,368.386Zm-7.022-3.693a4.408,4.408,0,0,0,1.641-1.651v-3.748h-2.412a6.354,6.354,0,0,0-3.655.872,2.82,2.82,0,0,0-1.243,2.449,2.611,2.611,0,0,0,.816,1.994,3.192,3.192,0,0,0,2.282.771A4.829,4.829,0,0,0,775.55,364.693Z"/>
        <path class="cls-9" d="M802.259,348.625l-6.94,20.076h-4.063l-6.977-20.076h4.787l4.249,14.231,4.156-14.231Z"/>
        <path class="cls-9" d="M822,360.11H808.92a6.605,6.605,0,0,0,.8,2.728,4.869,4.869,0,0,0,1.808,1.855,5.173,5.173,0,0,0,2.663.668,6.021,6.021,0,0,0,5.01-2.449l2.468,2.394a8.634,8.634,0,0,1-3.043,2.69,9.622,9.622,0,0,1-4.713,1.076,10.018,10.018,0,0,1-5.121-1.271,8.61,8.61,0,0,1-3.359-3.479,10.422,10.422,0,0,1-1.169-4.954v-.761a11.9,11.9,0,0,1,1.188-5.445,8.822,8.822,0,0,1,3.266-3.628,8.732,8.732,0,0,1,4.675-1.28,8.638,8.638,0,0,1,4.769,1.243,7.56,7.56,0,0,1,2.886,3.48,13.117,13.117,0,0,1,.955,5.185Zm-4.565-3.692a5.556,5.556,0,0,0-1.057-3.2,3.559,3.559,0,0,0-3.006-1.252,3.721,3.721,0,0,0-2.932,1.262,6.6,6.6,0,0,0-1.429,3.544h8.424Z"/>
        <path class="cls-9" d="M830.183,348.885a2.487,2.487,0,0,1,.724,1.837,2.432,2.432,0,0,1-.724,1.809,2.652,2.652,0,0,1-1.948.714,2.679,2.679,0,0,1-1.967-.714,2.435,2.435,0,0,1-.723-1.809,2.49,2.49,0,0,1,.723-1.837,2.657,2.657,0,0,1,1.967-.724A2.63,2.63,0,0,1,830.183,348.885Zm0,15.679a2.484,2.484,0,0,1,.724,1.836,2.431,2.431,0,0,1-.724,1.809,2.649,2.649,0,0,1-1.948.715,2.676,2.676,0,0,1-1.967-.715,2.434,2.434,0,0,1-.723-1.809,2.488,2.488,0,0,1,.723-1.836,2.657,2.657,0,0,1,1.967-.724A2.63,2.63,0,0,1,830.183,364.564Z"/>
      </g>
      <g>
        <path class="cls-9" d="M1054,371.293v.241h-5.159l-5.362-10.353h-5.139v10.353h-4.806V344.519h9.574q4.676,0,7.227,2.1a7.381,7.381,0,0,1,2.551,6.049,7.771,7.771,0,0,1-1.28,4.527,8.155,8.155,0,0,1-3.637,2.858Zm-15.66-13.972h4.787a5.144,5.144,0,0,0,3.682-1.206,4.215,4.215,0,0,0,1.272-3.21,4.41,4.41,0,0,0-1.225-3.321,5.2,5.2,0,0,0-3.748-1.187h-4.768Z"/>
        <path class="cls-9" d="M1073.893,362.943h-13.081a6.62,6.62,0,0,0,.8,2.728,4.871,4.871,0,0,0,1.809,1.855,5.168,5.168,0,0,0,2.663.668,6.021,6.021,0,0,0,5.01-2.449l2.467,2.394a8.625,8.625,0,0,1-3.043,2.69,9.62,9.62,0,0,1-4.713,1.076,10.018,10.018,0,0,1-5.121-1.271,8.6,8.6,0,0,1-3.358-3.479,10.422,10.422,0,0,1-1.169-4.954v-.761a11.9,11.9,0,0,1,1.188-5.445,8.639,8.639,0,0,1,7.941-4.908,8.637,8.637,0,0,1,4.768,1.243,7.548,7.548,0,0,1,2.886,3.48,13.1,13.1,0,0,1,.955,5.185Zm-4.564-3.692a5.557,5.557,0,0,0-1.058-3.2,3.557,3.557,0,0,0-3.006-1.252,3.719,3.719,0,0,0-2.931,1.262,6.6,6.6,0,0,0-1.429,3.544h8.424Z"/>
        <path class="cls-9" d="M1078.94,361.014a4.53,4.53,0,0,1-1.874-3.823,5.3,5.3,0,0,1,.956-3.051,6.545,6.545,0,0,1,2.727-2.227,9.58,9.58,0,0,1,4.092-.826,10.242,10.242,0,0,1,4.294.835,6.6,6.6,0,0,1,2.812,2.292,5.721,5.721,0,0,1,.983,3.274h-4.62a2.82,2.82,0,0,0-1.577-2.56,4.034,4.034,0,0,0-1.892-.408,3.719,3.719,0,0,0-2.431.705,2.194,2.194,0,0,0-.854,1.762,1.771,1.771,0,0,0,.363,1.132,3.031,3.031,0,0,0,1.252.835,14.343,14.343,0,0,0,2.467.7,19.666,19.666,0,0,1,4.064,1.262,6.237,6.237,0,0,1,2.486,1.93,4.883,4.883,0,0,1,.872,2.968,5.239,5.239,0,0,1-1.01,3.155,6.551,6.551,0,0,1-2.868,2.162,11.138,11.138,0,0,1-4.286.769,10.093,10.093,0,0,1-4.564-.965,7.25,7.25,0,0,1-2.932-2.5,5.86,5.86,0,0,1-1-3.247h4.472a2.96,2.96,0,0,0,1.252,2.486,4.96,4.96,0,0,0,2.848.8,4.519,4.519,0,0,0,2.626-.659,2.044,2.044,0,0,0,.937-1.753,2.121,2.121,0,0,0-.334-1.206,2.985,2.985,0,0,0-1.271-.928,13.04,13.04,0,0,0-2.663-.78A13.45,13.45,0,0,1,1078.94,361.014Z"/>
        <path class="cls-9" d="M1113.563,351.458v20.076h-4.36l-.111-1.985a6.914,6.914,0,0,1-5.623,2.356,6.473,6.473,0,0,1-4.879-1.818q-1.764-1.818-1.763-5.659v-12.97h4.62v13.007a3.82,3.82,0,0,0,.863,2.811,3.108,3.108,0,0,0,2.273.844q3.208,0,4.342-2.282v-14.38Z"/>
        <path class="cls-9" d="M1118.369,371.534v-28.5h4.62v28.5Z"/>
        <path class="cls-9" d="M1137.239,367.9v3.563a9.476,9.476,0,0,1-3.006.445,5.336,5.336,0,0,1-3.859-1.354,5.766,5.766,0,0,1-1.41-4.323V354.872H1125.7v-3.414h3.266v-4.9h4.62v4.9h3.525v3.414h-3.525v11.04a2.229,2.229,0,0,0,.519,1.716,2.3,2.3,0,0,0,1.559.455A7.211,7.211,0,0,0,1137.239,367.9Z"/>
        <path class="cls-9" d="M1157.167,371.219v.315h-4.713a8.266,8.266,0,0,1-.52-1.874,7.162,7.162,0,0,1-2.263,1.633,7.014,7.014,0,0,1-2.988.612,7.768,7.768,0,0,1-3.525-.779,5.966,5.966,0,0,1-2.431-2.152,5.618,5.618,0,0,1-.872-3.08,5.676,5.676,0,0,1,2.385-4.917A11.488,11.488,0,0,1,1149,359.27h2.783v-1.3a3.094,3.094,0,0,0-3.451-3.4,4.324,4.324,0,0,0-1.8.353,2.856,2.856,0,0,0-1.206.965,2.342,2.342,0,0,0-.427,1.373h-4.62a5.075,5.075,0,0,1,1.03-3.035,7.175,7.175,0,0,1,2.932-2.281,10.409,10.409,0,0,1,4.35-.863,9.978,9.978,0,0,1,4.064.779,6.119,6.119,0,0,1,2.756,2.338,6.947,6.947,0,0,1,.992,3.8v8.85A10.358,10.358,0,0,0,1157.167,371.219Zm-7.023-3.693a4.411,4.411,0,0,0,1.642-1.651v-3.748h-2.412a6.358,6.358,0,0,0-3.656.872,2.82,2.82,0,0,0-1.243,2.449,2.611,2.611,0,0,0,.817,1.994,3.191,3.191,0,0,0,2.282.771A4.825,4.825,0,0,0,1150.144,367.526Z"/>
        <path class="cls-9" d="M1177.855,343.034v28.5h-4.175l-.222-2.1a6.555,6.555,0,0,1-5.363,2.467,6.833,6.833,0,0,1-4.165-1.317,8.372,8.372,0,0,1-2.755-3.637,13.493,13.493,0,0,1-.965-5.232v-.39a14,14,0,0,1,.955-5.362,8.082,8.082,0,0,1,2.746-3.6,7.07,7.07,0,0,1,4.222-1.28,6.48,6.48,0,0,1,5.1,2.208V343.034Zm-4.62,22.674v-8.5a4.1,4.1,0,0,0-3.934-2.356,3.682,3.682,0,0,0-3.367,1.8,8.844,8.844,0,0,0-1.1,4.676v.39a8.778,8.778,0,0,0,1.085,4.63,3.655,3.655,0,0,0,3.349,1.771A4.142,4.142,0,0,0,1173.235,365.708Z"/>
        <path class="cls-9" d="M1182.8,356.06a8.662,8.662,0,0,1,3.237-3.647,9.163,9.163,0,0,1,4.972-1.326,9.282,9.282,0,0,1,5.019,1.326,8.647,8.647,0,0,1,3.248,3.647,11.9,11.9,0,0,1,1.122,5.251v.389a11.9,11.9,0,0,1-1.122,5.251,8.6,8.6,0,0,1-3.238,3.637,10.135,10.135,0,0,1-9.992,0,8.569,8.569,0,0,1-3.246-3.637,11.877,11.877,0,0,1-1.124-5.251v-.389A11.877,11.877,0,0,1,1182.8,356.06Zm4.684,10.316a3.969,3.969,0,0,0,3.563,1.818,4.064,4.064,0,0,0,2.643-.863,5.034,5.034,0,0,0,1.578-2.328,10.011,10.011,0,0,0,.51-3.3v-.389a10.04,10.04,0,0,0-.51-3.294,5.087,5.087,0,0,0-1.587-2.347,4.108,4.108,0,0,0-2.672-.872,4,4,0,0,0-2.634.872,5.139,5.139,0,0,0-1.568,2.347,10.04,10.04,0,0,0-.51,3.294v.389A8.4,8.4,0,0,0,1187.485,366.376Z"/>
        <path class="cls-9" d="M1205.743,361.014a4.53,4.53,0,0,1-1.874-3.823,5.3,5.3,0,0,1,.956-3.051,6.548,6.548,0,0,1,2.726-2.227,9.583,9.583,0,0,1,4.092-.826,10.247,10.247,0,0,1,4.3.835,6.6,6.6,0,0,1,2.812,2.292,5.721,5.721,0,0,1,.983,3.274h-4.62a2.82,2.82,0,0,0-1.577-2.56,4.042,4.042,0,0,0-1.893-.408,3.718,3.718,0,0,0-2.43.705,2.192,2.192,0,0,0-.854,1.762,1.777,1.777,0,0,0,.362,1.132,3.045,3.045,0,0,0,1.252.835,14.358,14.358,0,0,0,2.468.7,19.685,19.685,0,0,1,4.064,1.262,6.237,6.237,0,0,1,2.486,1.93,4.883,4.883,0,0,1,.872,2.968,5.233,5.233,0,0,1-1.011,3.155,6.553,6.553,0,0,1-2.867,2.162,11.138,11.138,0,0,1-4.286.769,10.093,10.093,0,0,1-4.564-.965,7.244,7.244,0,0,1-2.932-2.5,5.86,5.86,0,0,1-1-3.247h4.472a2.955,2.955,0,0,0,1.252,2.486,4.96,4.96,0,0,0,2.848.8,4.519,4.519,0,0,0,2.626-.659,2.044,2.044,0,0,0,.937-1.753,2.129,2.129,0,0,0-.334-1.206,2.985,2.985,0,0,0-1.271-.928,13.06,13.06,0,0,0-2.663-.78A13.443,13.443,0,0,1,1205.743,361.014Z"/>
        <path class="cls-9" d="M1222.887,361.886v-3.711h9.816v3.711Z"/>
        <path class="cls-9" d="M1253.057,364.855a6.437,6.437,0,0,1-1.169,3.543,7.879,7.879,0,0,1-2.968,2.561,8.816,8.816,0,0,1-4.064.946,9.122,9.122,0,0,1-5.056-1.336,8.17,8.17,0,0,1-3.089-3.627,12.468,12.468,0,0,1-1.021-5.13v-.631a12.407,12.407,0,0,1,1.029-5.131,8.273,8.273,0,0,1,3.09-3.627,10.02,10.02,0,0,1,9.268-.381,7.118,7.118,0,0,1,2.886,2.682,7.908,7.908,0,0,1,1.094,3.952h-4.36a4.518,4.518,0,0,0-.538-1.958,3.666,3.666,0,0,0-1.346-1.4,3.871,3.871,0,0,0-2.031-.519,3.635,3.635,0,0,0-3.47,1.8,9.346,9.346,0,0,0-1,4.583v.631q0,6.382,4.491,6.382a4.323,4.323,0,0,0,1.929-.426,3.532,3.532,0,0,0,1.392-1.188,3.341,3.341,0,0,0,.575-1.725Z"/>
        <path class="cls-9" d="M1273.059,358.639v12.895h-4.62V358.6a3.992,3.992,0,0,0-.862-2.886,3.607,3.607,0,0,0-2.645-.862,4.447,4.447,0,0,0-2.347.612,4.537,4.537,0,0,0-1.623,1.707v14.361h-4.62v-28.5h4.62v10.613a7.13,7.13,0,0,1,5.548-2.56Q1273.059,351.087,1273.059,358.639Z"/>
        <path class="cls-9" d="M1294.212,371.219v.315H1289.5a8.266,8.266,0,0,1-.52-1.874,7.173,7.173,0,0,1-2.263,1.633,7.014,7.014,0,0,1-2.988.612,7.768,7.768,0,0,1-3.525-.779,5.966,5.966,0,0,1-2.431-2.152,5.618,5.618,0,0,1-.872-3.08,5.676,5.676,0,0,1,2.385-4.917,11.488,11.488,0,0,1,6.763-1.707h2.783v-1.3a3.094,3.094,0,0,0-3.451-3.4,4.324,4.324,0,0,0-1.8.353,2.856,2.856,0,0,0-1.206.965,2.342,2.342,0,0,0-.427,1.373h-4.62a5.075,5.075,0,0,1,1.03-3.035,7.175,7.175,0,0,1,2.932-2.281,10.409,10.409,0,0,1,4.35-.863,9.978,9.978,0,0,1,4.064.779,6.119,6.119,0,0,1,2.756,2.338,6.947,6.947,0,0,1,.992,3.8v8.85A10.358,10.358,0,0,0,1294.212,371.219Zm-7.023-3.693a4.411,4.411,0,0,0,1.642-1.651v-3.748h-2.412a6.358,6.358,0,0,0-3.656.872,2.82,2.82,0,0,0-1.243,2.449,2.611,2.611,0,0,0,.817,1.994,3.191,3.191,0,0,0,2.282.771A4.825,4.825,0,0,0,1287.189,367.526Z"/>
        <path class="cls-9" d="M1313.9,351.458l-6.939,20.076H1302.9l-6.976-20.076h4.787l4.249,14.231,4.156-14.231Z"/>
        <path class="cls-9" d="M1333.64,362.943h-13.081a6.62,6.62,0,0,0,.8,2.728,4.871,4.871,0,0,0,1.809,1.855,5.168,5.168,0,0,0,2.663.668,6.021,6.021,0,0,0,5.01-2.449l2.467,2.394a8.625,8.625,0,0,1-3.043,2.69,9.618,9.618,0,0,1-4.712,1.076,10.019,10.019,0,0,1-5.122-1.271,8.6,8.6,0,0,1-3.358-3.479,10.422,10.422,0,0,1-1.169-4.954v-.761A11.9,11.9,0,0,1,1317.09,356a8.639,8.639,0,0,1,7.941-4.908,8.64,8.64,0,0,1,4.769,1.243,7.552,7.552,0,0,1,2.885,3.48,13.1,13.1,0,0,1,.955,5.185Zm-4.564-3.692a5.557,5.557,0,0,0-1.058-3.2,3.557,3.557,0,0,0-3.006-1.252,3.72,3.72,0,0,0-2.931,1.262,6.6,6.6,0,0,0-1.429,3.544h8.424Z"/>
        <path class="cls-9" d="M1341.823,351.718a2.491,2.491,0,0,1,.724,1.837,2.436,2.436,0,0,1-.724,1.809,3.04,3.04,0,0,1-3.915,0,2.436,2.436,0,0,1-.724-1.809,2.491,2.491,0,0,1,.724-1.837,3.008,3.008,0,0,1,3.915,0Zm0,15.679a2.488,2.488,0,0,1,.724,1.836,2.435,2.435,0,0,1-.724,1.809,3.037,3.037,0,0,1-3.915,0,2.435,2.435,0,0,1-.724-1.809,2.488,2.488,0,0,1,.724-1.836,3.008,3.008,0,0,1,3.915,0Z"/>
      </g>
      <g id="chevezinha">
        <g>
          <path class="cls-10" d="M121.669,446.635a20.312,20.312,0,0,1-10.2-2.738.835.835,0,0,1,.837-1.445,18.733,18.733,0,1,0-6.528-6.323.835.835,0,0,1-1.418.883,20.405,20.405,0,1,1,17.3,9.623Z"/>
          <path class="cls-10" d="M121.655,440.891a14.568,14.568,0,0,1-7.026-1.8.835.835,0,0,1,.8-1.463,13.063,13.063,0,0,0,15.45-2.207A13,13,0,1,0,112.5,417.041a13.063,13.063,0,0,0-2.208,15.449.835.835,0,1,1-1.463.8,14.672,14.672,0,0,1,23.237-17.434,14.67,14.67,0,0,1,0,20.747A14.724,14.724,0,0,1,121.655,440.891Z"/>
          <path class="cls-10" d="M121.691,433.727a7.557,7.557,0,0,1-1.432-.137.835.835,0,0,1,.318-1.64,5.823,5.823,0,1,0-4.369-3.748.835.835,0,0,1-1.572.563,7.495,7.495,0,1,1,7.055,4.962Z"/>
          <path class="cls-10" d="M101.019,447.74a.836.836,0,0,1-.591-1.426L121.1,425.643a.835.835,0,0,1,1.181,1.181L101.609,447.5A.833.833,0,0,1,101.019,447.74Z"/>
          <path class="cls-10" d="M120.693,428.065a.835.835,0,0,1-.629-1.384l-.407.107a.835.835,0,1,1-.426-1.614l3.4-.9a.834.834,0,0,1,.8,1.4l-2.146,2.146A.83.83,0,0,1,120.693,428.065Z"/>
          <path class="cls-10" d="M121.943,429.316a.839.839,0,0,1-.808-1.049l.108-.408a.835.835,0,0,1-1.14-1.219l2.145-2.145a.835.835,0,0,1,1.4.8l-.9,3.395A.836.836,0,0,1,121.943,429.316Z"/>
          <path class="cls-10" d="M101.294,452.236a.824.824,0,0,1-.3-.054.836.836,0,0,1-.537-.73l-.231-3.759-3.759-.23a.835.835,0,0,1-.539-1.424l5.25-5.25a.811.811,0,0,1,.61-.244l4.66.113a.835.835,0,0,1,.815.814l.112,4.659a.84.84,0,0,1-.244.611l-5.25,5.25A.836.836,0,0,1,101.294,452.236Zm-2.871-6.327,2.647.162a.835.835,0,0,1,.782.783l.162,2.646,3.687-3.686-.085-3.506-3.506-.085Z"/>
        </g>
        <path class="cls-11" d="M147.934,420.487,219.718,435.4a11.233,11.233,0,0,1,8.809,13.218l-.879,2.6"/>
        <rect class="cls-12" x="154.58" y="432.949" width="62.66" height="1.355" rx="0.623" transform="translate(88.727 -28.055) rotate(11.319)"/>
        <path class="cls-11" d="M193.6,448.6l-6.675,7.15a2.36,2.36,0,0,1-4.008-.8l-3.62-10.7c-.226-.668-1.5-.781-4.187,1.786"/>
        <path class="cls-13" d="M164.476,443.205l-6.924,6.84a2.652,2.652,0,0,1-4.326-.866l-4.058-10.792c-.254-.674-2.492-2.6-4.48,1.727"/>
        <path class="cls-11" d="M175.705,445.5l-5.385,4.825a2.36,2.36,0,0,1-4.008-.8l-1.668-6.022"/>
        <path class="cls-11" d="M210.361,450.461l-7.46,8.487a2.361,2.361,0,0,1-4.009-.8l-3.619-10.7c-.182-1.223-1.867,1.714-2.6,2.137"/>
        <path class="cls-11" d="M228.527,448.619a7.8,7.8,0,0,1-.417,1.511,16.545,16.545,0,0,1-3.164,5.26l-5.959,6.778a2.36,2.36,0,0,1-4.008-.8l-3.619-10.7c-.982-1.071-3.143,2.287-2.645,1.692"/>
        <path class="cls-14" d="M109.862,450.607a27.139,27.139,0,0,0,35.347-11.542"/>
        <path class="cls-14" d="M147.934,420.487c-2.93-9.014-11.248-18.986-21.2-20.979a27.1,27.1,0,0,0-31.894,21.255c-1.364,7.3-1.017,12.826,1.844,18.3"/>
        <circle class="cls-15" cx="164.476" cy="443.205" r="0.613"/>
      </g>
      <g id="chevezinha-2" data-name="chevezinha">
        <g>
          <path class="cls-10" d="M124.907,532.191a20.306,20.306,0,0,1-10.195-2.738.835.835,0,1,1,.836-1.445,18.733,18.733,0,1,0-6.528-6.323.835.835,0,0,1-1.418.883,20.405,20.405,0,1,1,17.3,9.623Z"/>
          <path class="cls-10" d="M124.893,526.447a14.578,14.578,0,0,1-7.026-1.794.835.835,0,0,1,.8-1.464,13.063,13.063,0,0,0,15.45-2.207A13,13,0,1,0,115.736,502.6a13.063,13.063,0,0,0-2.208,15.449.835.835,0,1,1-1.463.8A14.672,14.672,0,0,1,135.3,501.416a14.67,14.67,0,0,1,0,20.747A14.724,14.724,0,0,1,124.893,526.447Z"/>
          <path class="cls-10" d="M124.929,519.283a7.557,7.557,0,0,1-1.432-.137.835.835,0,0,1,.318-1.64,5.823,5.823,0,1,0-4.369-3.748.835.835,0,1,1-1.572.563,7.495,7.495,0,1,1,7.055,4.962Z"/>
          <path class="cls-10" d="M104.257,533.3a.836.836,0,0,1-.591-1.426L124.338,511.2a.835.835,0,1,1,1.181,1.181l-20.672,20.671A.833.833,0,0,1,104.257,533.3Z"/>
          <path class="cls-10" d="M123.931,513.622a.836.836,0,0,1-.629-1.385l-.407.108a.835.835,0,1,1-.426-1.615l3.4-.9a.834.834,0,0,1,.8,1.4l-2.146,2.146A.831.831,0,0,1,123.931,513.622Z"/>
          <path class="cls-10" d="M125.181,514.872a.859.859,0,0,1-.213-.028.836.836,0,0,1-.595-1.021l.108-.408a.835.835,0,0,1-1.14-1.219l2.145-2.145a.835.835,0,0,1,1.4.8l-.9,3.4A.836.836,0,0,1,125.181,514.872Z"/>
          <path class="cls-10" d="M104.532,537.792a.824.824,0,0,1-.3-.054.836.836,0,0,1-.537-.73l-.231-3.759-3.759-.23a.835.835,0,0,1-.539-1.424l5.25-5.25a.811.811,0,0,1,.61-.244l4.66.113a.835.835,0,0,1,.815.814l.112,4.66a.837.837,0,0,1-.244.61l-5.25,5.25A.836.836,0,0,1,104.532,537.792Zm-2.871-6.327,2.647.162a.835.835,0,0,1,.782.783l.162,2.647,3.687-3.687-.085-3.506-3.506-.085Z"/>
        </g>
        <path class="cls-11" d="M151.172,506.043l71.784,14.914a11.233,11.233,0,0,1,8.809,13.218l-.879,2.606"/>
        <rect class="cls-12" x="157.818" y="518.505" width="62.66" height="1.355" rx="0.623" transform="translate(105.582 -27.026) rotate(11.319)"/>
        <path class="cls-11" d="M196.841,534.156l-6.675,7.151a2.36,2.36,0,0,1-4.008-.8l-3.62-10.7c-.226-.668-1.5-.781-4.187,1.786"/>
        <path class="cls-13" d="M167.714,528.761l-6.924,6.84a2.652,2.652,0,0,1-4.326-.866l-4.058-10.792c-.254-.674-2.492-2.6-4.48,1.727"/>
        <path class="cls-11" d="M178.943,531.055l-5.385,4.825a2.36,2.36,0,0,1-4.008-.8l-1.668-6.022"/>
        <path class="cls-11" d="M213.6,536.018l-7.46,8.486a2.36,2.36,0,0,1-4.008-.8L198.511,533c-.182-1.222-1.866,1.714-2.6,2.137"/>
        <path class="cls-11" d="M231.765,534.175a7.8,7.8,0,0,1-.417,1.511,16.545,16.545,0,0,1-3.164,5.26l-5.959,6.778a2.36,2.36,0,0,1-4.008-.8L214.6,536.217c-.982-1.071-3.143,2.287-2.645,1.692"/>
        <path class="cls-14" d="M113.1,536.164a27.144,27.144,0,0,0,35.347-11.542"/>
        <path class="cls-14" d="M151.172,506.043c-2.93-9.014-11.248-18.986-21.2-20.978A27.1,27.1,0,0,0,98.074,506.32c-1.364,7.3-1.017,12.825,1.844,18.3"/>
        <circle class="cls-15" cx="167.714" cy="528.761" r="0.613"/>
      </g>
      <g id="chevezinha-3" data-name="chevezinha">
        <g>
          <path class="cls-10" d="M124.126,617.747a20.3,20.3,0,0,1-10.2-2.738.835.835,0,0,1,.837-1.445,18.732,18.732,0,1,0-6.529-6.323.835.835,0,1,1-1.417.883,20.4,20.4,0,1,1,17.305,9.623Z"/>
          <path class="cls-10" d="M124.112,612a14.575,14.575,0,0,1-7.026-1.794.835.835,0,0,1,.8-1.464,13.06,13.06,0,0,0,15.449-2.207,13,13,0,1,0-18.385-18.385,13.063,13.063,0,0,0-2.207,15.449.835.835,0,1,1-1.463.8,14.672,14.672,0,0,1,23.236-17.434A14.658,14.658,0,0,1,124.112,612Z"/>
          <path class="cls-10" d="M124.148,604.839a7.557,7.557,0,0,1-1.432-.137.835.835,0,1,1,.318-1.64,5.823,5.823,0,1,0-4.369-3.748.835.835,0,1,1-1.573.563,7.5,7.5,0,1,1,7.056,4.962Z"/>
          <path class="cls-10" d="M103.475,618.852a.836.836,0,0,1-.59-1.426l20.672-20.671a.835.835,0,0,1,1.18,1.181l-20.671,20.671A.835.835,0,0,1,103.475,618.852Z"/>
          <path class="cls-10" d="M123.15,599.178a.835.835,0,0,1-.629-1.385l-.408.108a.835.835,0,0,1-.426-1.615l3.395-.9a.835.835,0,0,1,.8,1.4l-2.145,2.145A.833.833,0,0,1,123.15,599.178Z"/>
          <path class="cls-10" d="M124.4,600.428a.836.836,0,0,1-.808-1.049l.107-.408a.835.835,0,0,1-1.14-1.219l2.146-2.145a.834.834,0,0,1,1.4.8l-.9,3.4A.836.836,0,0,1,124.4,600.428Z"/>
          <path class="cls-10" d="M103.751,623.349a.821.821,0,0,1-.3-.055.837.837,0,0,1-.538-.729l-.23-3.76-3.76-.23a.835.835,0,0,1-.539-1.424l5.25-5.25a.813.813,0,0,1,.611-.244l4.66.113a.834.834,0,0,1,.814.815l.113,4.659a.838.838,0,0,1-.245.61l-5.25,5.25A.836.836,0,0,1,103.751,623.349Zm-2.871-6.327,2.646.161a.837.837,0,0,1,.783.783l.162,2.647,3.686-3.687-.084-3.506-3.507-.085Z"/>
        </g>
        <path class="cls-11" d="M150.391,591.6l71.783,14.914a11.232,11.232,0,0,1,8.809,13.218l-.878,2.606"/>
        <rect class="cls-12" x="157.037" y="604.061" width="62.66" height="1.355" rx="0.623" transform="translate(122.36 -25.209) rotate(11.319)"/>
        <path class="cls-11" d="M196.06,619.712l-6.676,7.151a2.36,2.36,0,0,1-4.008-.8l-3.619-10.7c-.226-.668-1.5-.781-4.188,1.786"/>
        <path class="cls-13" d="M166.933,614.318l-6.925,6.839a2.651,2.651,0,0,1-4.326-.866L151.624,609.5c-.253-.673-2.492-2.6-4.479,1.728"/>
        <path class="cls-11" d="M178.161,616.612l-5.385,4.824a2.36,2.36,0,0,1-4.008-.8l-1.667-6.022"/>
        <path class="cls-11" d="M212.818,621.574l-7.461,8.486a2.36,2.36,0,0,1-4.008-.8l-3.619-10.7c-.182-1.223-1.867,1.713-2.6,2.136"/>
        <path class="cls-11" d="M230.983,619.731a7.655,7.655,0,0,1-.417,1.511,16.545,16.545,0,0,1-3.164,5.26l-5.958,6.778a2.36,2.36,0,0,1-4.009-.8l-3.619-10.7c-.982-1.071-3.142,2.286-2.645,1.691"/>
        <path class="cls-14" d="M112.318,621.72a27.14,27.14,0,0,0,35.347-11.542"/>
        <path class="cls-14" d="M150.391,591.6c-2.931-9.014-11.249-18.986-21.2-20.978a27.1,27.1,0,0,0-31.894,21.255c-1.365,7.3-1.017,12.825,1.844,18.3"/>
        <circle class="cls-15" cx="166.933" cy="614.318" r="0.613"/>
      </g>
      <g id="chevezinha-4" data-name="chevezinha">
        <g>
          <path class="cls-10" d="M576.332,448.8a20.3,20.3,0,0,1-10.2-2.738.835.835,0,0,1,.837-1.445,18.732,18.732,0,1,0-6.529-6.323.835.835,0,1,1-1.417.883,20.4,20.4,0,1,1,17.3,9.623Z"/>
          <path class="cls-10" d="M576.318,443.06a14.575,14.575,0,0,1-7.026-1.794.835.835,0,1,1,.8-1.464,13.062,13.062,0,0,0,15.449-2.207A13,13,0,0,0,567.16,419.21a13.063,13.063,0,0,0-2.207,15.449.835.835,0,1,1-1.463.8,14.672,14.672,0,0,1,23.236-17.434,14.668,14.668,0,0,1,0,20.747A14.724,14.724,0,0,1,576.318,443.06Z"/>
          <path class="cls-10" d="M576.354,435.9a7.549,7.549,0,0,1-1.432-.137.835.835,0,0,1,.318-1.64,5.822,5.822,0,1,0-4.37-3.748.835.835,0,1,1-1.572.563,7.5,7.5,0,1,1,7.056,4.962Z"/>
          <path class="cls-10" d="M555.681,449.909a.836.836,0,0,1-.59-1.426l20.671-20.671a.835.835,0,0,1,1.181,1.181l-20.672,20.671A.831.831,0,0,1,555.681,449.909Z"/>
          <path class="cls-10" d="M575.355,430.235a.835.835,0,0,1-.628-1.385l-.408.108a.835.835,0,0,1-.426-1.615l3.395-.9a.834.834,0,0,1,.8,1.4l-2.145,2.146A.834.834,0,0,1,575.355,430.235Z"/>
          <path class="cls-10" d="M576.606,431.485a.873.873,0,0,1-.214-.028.837.837,0,0,1-.6-1.021l.108-.408a.835.835,0,0,1-1.14-1.219l2.146-2.145a.834.834,0,0,1,1.4.8l-.9,3.4A.836.836,0,0,1,576.606,431.485Z"/>
          <path class="cls-10" d="M555.957,454.405a.82.82,0,0,1-.3-.054.837.837,0,0,1-.538-.73l-.231-3.759-3.759-.23a.835.835,0,0,1-.539-1.424l5.25-5.25a.813.813,0,0,1,.611-.244l4.659.113a.834.834,0,0,1,.815.814l.112,4.66a.837.837,0,0,1-.244.61l-5.25,5.25A.835.835,0,0,1,555.957,454.405Zm-2.872-6.327,2.647.162a.835.835,0,0,1,.782.783l.163,2.647,3.686-3.687-.085-3.506-3.506-.085Z"/>
        </g>
        <path class="cls-11" d="M602.6,422.656,674.38,437.57a11.232,11.232,0,0,1,8.809,13.218l-.879,2.606"/>
        <rect class="cls-12" x="609.242" y="435.118" width="62.66" height="1.355" rx="0.623" transform="translate(97.996 -117.252) rotate(11.319)"/>
        <path class="cls-11" d="M648.265,450.769l-6.675,7.151a2.36,2.36,0,0,1-4.008-.8l-3.619-10.7c-.226-.668-1.5-.781-4.188,1.786"/>
        <path class="cls-13" d="M619.139,445.374l-6.925,6.84a2.652,2.652,0,0,1-4.326-.866l-4.058-10.792c-.253-.674-2.492-2.6-4.479,1.727"/>
        <path class="cls-11" d="M630.367,447.668l-5.385,4.825a2.36,2.36,0,0,1-4.008-.8l-1.667-6.022"/>
        <path class="cls-11" d="M665.024,452.631l-7.461,8.486a2.36,2.36,0,0,1-4.008-.8l-3.619-10.7c-.182-1.222-1.867,1.714-2.6,2.137"/>
        <path class="cls-11" d="M683.189,450.788a7.8,7.8,0,0,1-.417,1.511,16.545,16.545,0,0,1-3.164,5.26l-5.959,6.778a2.36,2.36,0,0,1-4.008-.8l-3.619-10.705c-.982-1.071-3.142,2.287-2.645,1.692"/>
        <path class="cls-14" d="M564.524,452.777a27.145,27.145,0,0,0,35.347-11.542"/>
        <path class="cls-14" d="M602.6,422.656c-2.931-9.014-11.249-18.986-21.2-20.978A27.1,27.1,0,0,0,549.5,422.933c-1.365,7.3-1.017,12.825,1.844,18.3"/>
        <circle class="cls-15" cx="619.139" cy="445.374" r="0.613"/>
      </g>
      <g id="chevezinha-5" data-name="chevezinha">
        <g>
          <path class="cls-10" d="M738.007,455.344a20.306,20.306,0,0,1-10.195-2.738.835.835,0,0,1,.836-1.445,18.733,18.733,0,1,0-6.528-6.323.835.835,0,1,1-1.417.883,20.4,20.4,0,1,1,17.3,9.623Z"/>
          <path class="cls-10" d="M737.993,449.6a14.571,14.571,0,0,1-7.025-1.794.835.835,0,1,1,.8-1.464,13.062,13.062,0,0,0,15.449-2.207,13,13,0,0,0-18.385-18.385,13.065,13.065,0,0,0-2.208,15.449.834.834,0,1,1-1.462.8A14.672,14.672,0,0,1,748.4,424.569a14.67,14.67,0,0,1,0,20.747A14.724,14.724,0,0,1,737.993,449.6Z"/>
          <path class="cls-10" d="M738.029,442.436a7.557,7.557,0,0,1-1.432-.137.835.835,0,0,1,.318-1.64,5.822,5.822,0,1,0-4.369-3.748.835.835,0,1,1-1.572.563,7.495,7.495,0,1,1,7.055,4.962Z"/>
          <path class="cls-10" d="M717.357,456.449a.836.836,0,0,1-.591-1.426l20.672-20.671a.835.835,0,0,1,1.181,1.181L717.947,456.2A.833.833,0,0,1,717.357,456.449Z"/>
          <path class="cls-10" d="M737.031,436.775a.835.835,0,0,1-.628-1.385L736,435.5a.835.835,0,0,1-.426-1.615l3.4-.9a.834.834,0,0,1,.8,1.4l-2.145,2.146A.835.835,0,0,1,737.031,436.775Z"/>
          <path class="cls-10" d="M738.281,438.025a.865.865,0,0,1-.213-.028.837.837,0,0,1-.6-1.021l.108-.408a.835.835,0,0,1-1.14-1.219l2.145-2.145a.835.835,0,0,1,1.4.8l-.9,3.4A.836.836,0,0,1,738.281,438.025Z"/>
          <path class="cls-10" d="M717.632,460.945a.834.834,0,0,1-.833-.784l-.231-3.759-3.759-.23a.835.835,0,0,1-.539-1.424l5.25-5.25a.812.812,0,0,1,.611-.244l4.659.113a.835.835,0,0,1,.815.814l.112,4.66a.839.839,0,0,1-.244.61l-5.25,5.25A.836.836,0,0,1,717.632,460.945Zm-2.871-6.327,2.647.162a.835.835,0,0,1,.782.783l.162,2.647,3.687-3.687-.085-3.506-3.506-.085Z"/>
        </g>
        <path class="cls-11" d="M764.272,429.2l71.784,14.914a11.233,11.233,0,0,1,8.809,13.218l-.879,2.606"/>
        <rect class="cls-12" x="770.918" y="441.658" width="62.66" height="1.355" rx="0.623" transform="matrix(0.981, 0.196, -0.196, 0.981, 102.425, -148.858)"/>
        <path class="cls-11" d="M809.941,457.309l-6.675,7.151a2.36,2.36,0,0,1-4.008-.8l-3.619-10.7c-.226-.668-1.5-.781-4.188,1.786"/>
        <path class="cls-13" d="M780.815,451.914l-6.925,6.84a2.652,2.652,0,0,1-4.326-.866L765.506,447.1c-.253-.674-2.492-2.6-4.48,1.727"/>
        <path class="cls-11" d="M792.043,454.208l-5.385,4.825a2.36,2.36,0,0,1-4.008-.8l-1.667-6.022"/>
        <path class="cls-11" d="M826.7,459.171l-7.46,8.486a2.36,2.36,0,0,1-4.008-.8l-3.619-10.705c-.183-1.222-1.867,1.714-2.6,2.137"/>
        <path class="cls-11" d="M844.865,457.328a7.8,7.8,0,0,1-.417,1.511,16.545,16.545,0,0,1-3.164,5.26l-5.959,6.778a2.36,2.36,0,0,1-4.008-.8l-3.619-10.7c-.982-1.071-3.143,2.287-2.645,1.692"/>
        <path class="cls-14" d="M726.2,459.317a27.145,27.145,0,0,0,35.347-11.542"/>
        <path class="cls-14" d="M764.272,429.2c-2.93-9.014-11.248-18.986-21.2-20.979a27.1,27.1,0,0,0-31.893,21.256c-1.365,7.3-1.017,12.825,1.844,18.3"/>
        <circle class="cls-15" cx="780.815" cy="451.914" r="0.613"/>
      </g>
      <g id="chevezinha-6" data-name="chevezinha">
        <g>
          <path class="cls-10" d="M579.57,534.36a20.3,20.3,0,0,1-10.2-2.738.835.835,0,0,1,.837-1.445,18.732,18.732,0,1,0-6.529-6.323.835.835,0,1,1-1.417.883,20.4,20.4,0,1,1,17.305,9.623Z"/>
          <path class="cls-10" d="M579.556,528.616a14.575,14.575,0,0,1-7.026-1.794.835.835,0,1,1,.8-1.464,13.06,13.06,0,0,0,15.449-2.207A13,13,0,1,0,570.4,504.766a13.063,13.063,0,0,0-2.207,15.449.835.835,0,1,1-1.463.8,14.672,14.672,0,0,1,23.236-17.434,14.668,14.668,0,0,1,0,20.747A14.724,14.724,0,0,1,579.556,528.616Z"/>
          <path class="cls-10" d="M579.592,521.452a7.549,7.549,0,0,1-1.432-.137.835.835,0,0,1,.318-1.64,5.823,5.823,0,1,0-4.369-3.748.835.835,0,1,1-1.573.563,7.5,7.5,0,1,1,7.056,4.962Z"/>
          <path class="cls-10" d="M558.919,535.465a.836.836,0,0,1-.59-1.426L579,513.368a.835.835,0,1,1,1.181,1.181L559.509,535.22A.831.831,0,0,1,558.919,535.465Z"/>
          <path class="cls-10" d="M578.593,515.791a.835.835,0,0,1-.628-1.385l-.408.108a.835.835,0,0,1-.426-1.615l3.395-.9a.835.835,0,0,1,.8,1.4l-2.145,2.145A.834.834,0,0,1,578.593,515.791Z"/>
          <path class="cls-10" d="M579.844,517.041a.828.828,0,0,1-.214-.028.837.837,0,0,1-.6-1.021l.108-.408a.835.835,0,0,1-1.14-1.219l2.146-2.145a.834.834,0,0,1,1.4.8l-.9,3.4A.836.836,0,0,1,579.844,517.041Z"/>
          <path class="cls-10" d="M559.2,539.962a.821.821,0,0,1-.3-.055.837.837,0,0,1-.538-.729l-.231-3.76-3.759-.23a.835.835,0,0,1-.539-1.424l5.25-5.25a.813.813,0,0,1,.611-.244l4.659.113a.835.835,0,0,1,.815.815l.113,4.659a.842.842,0,0,1-.245.61l-5.25,5.25A.836.836,0,0,1,559.2,539.962Zm-2.872-6.327,2.647.161a.835.835,0,0,1,.782.783l.163,2.647,3.686-3.687-.085-3.506-3.506-.085Z"/>
        </g>
        <path class="cls-11" d="M605.835,508.212l71.783,14.914a11.232,11.232,0,0,1,8.809,13.218l-.879,2.606"/>
        <rect class="cls-12" x="612.48" y="520.674" width="62.66" height="1.355" rx="0.623" transform="translate(114.852 -116.224) rotate(11.319)"/>
        <path class="cls-11" d="M651.5,536.325l-6.675,7.151a2.36,2.36,0,0,1-4.008-.8l-3.619-10.7c-.226-.668-1.5-.781-4.188,1.786"/>
        <path class="cls-13" d="M622.377,530.931l-6.925,6.839a2.651,2.651,0,0,1-4.326-.866l-4.058-10.792c-.253-.673-2.492-2.6-4.479,1.728"/>
        <path class="cls-11" d="M633.605,533.225l-5.385,4.824a2.36,2.36,0,0,1-4.008-.8l-1.667-6.022"/>
        <path class="cls-11" d="M668.262,538.187l-7.461,8.486a2.36,2.36,0,0,1-4.008-.8l-3.619-10.7c-.182-1.223-1.867,1.713-2.6,2.136"/>
        <path class="cls-11" d="M686.427,536.344a7.725,7.725,0,0,1-.417,1.511,16.545,16.545,0,0,1-3.164,5.26l-5.958,6.778a2.36,2.36,0,0,1-4.009-.8l-3.619-10.7c-.982-1.071-3.142,2.286-2.645,1.691"/>
        <path class="cls-14" d="M567.762,538.333a27.14,27.14,0,0,0,35.347-11.542"/>
        <path class="cls-14" d="M605.835,508.212c-2.931-9.014-11.249-18.985-21.2-20.978a27.1,27.1,0,0,0-31.894,21.255c-1.365,7.3-1.017,12.825,1.844,18.3"/>
        <circle class="cls-15" cx="622.377" cy="530.931" r="0.613"/>
      </g>
      <g id="chevezinha-7" data-name="chevezinha">
        <g>
          <path class="cls-10" d="M578.788,619.916a20.3,20.3,0,0,1-10.2-2.738.835.835,0,1,1,.837-1.444,18.734,18.734,0,1,0-6.528-6.324.835.835,0,0,1-1.418.883,20.405,20.405,0,1,1,17.305,9.623Z"/>
          <path class="cls-10" d="M578.774,614.172a14.567,14.567,0,0,1-7.026-1.794.835.835,0,0,1,.8-1.464A13.062,13.062,0,0,0,588,608.707a13,13,0,0,0-18.385-18.385,13.065,13.065,0,0,0-2.208,15.45.835.835,0,0,1-1.463.8,14.673,14.673,0,0,1,23.237-17.435,14.67,14.67,0,0,1,0,20.747A14.724,14.724,0,0,1,578.774,614.172Z"/>
          <path class="cls-10" d="M578.81,607.009a7.558,7.558,0,0,1-1.432-.138.835.835,0,0,1,.318-1.64,5.823,5.823,0,1,0-4.369-3.748.835.835,0,0,1-1.572.564,7.494,7.494,0,1,1,7.055,4.962Z"/>
          <path class="cls-10" d="M558.138,621.021a.836.836,0,0,1-.591-1.426l20.672-20.671a.835.835,0,1,1,1.181,1.181l-20.672,20.671A.833.833,0,0,1,558.138,621.021Z"/>
          <path class="cls-10" d="M577.812,601.347a.836.836,0,0,1-.629-1.385l-.407.108a.835.835,0,1,1-.426-1.615l3.395-.9a.835.835,0,0,1,.8,1.4L578.4,601.1A.831.831,0,0,1,577.812,601.347Z"/>
          <path class="cls-10" d="M579.062,602.6a.828.828,0,0,1-.214-.028.836.836,0,0,1-.594-1.021l.108-.407a.835.835,0,0,1-1.14-1.22l2.145-2.145a.835.835,0,0,1,1.4.8l-.9,3.395A.837.837,0,0,1,579.062,602.6Z"/>
          <path class="cls-10" d="M558.413,625.518a.846.846,0,0,1-.3-.054.837.837,0,0,1-.537-.73l-.231-3.76-3.759-.23a.835.835,0,0,1-.539-1.424l5.25-5.25a.813.813,0,0,1,.61-.244l4.66.113a.836.836,0,0,1,.815.815l.112,4.659a.837.837,0,0,1-.244.61l-5.25,5.25A.833.833,0,0,1,558.413,625.518Zm-2.871-6.327,2.647.162a.834.834,0,0,1,.782.782l.162,2.647,3.687-3.687-.085-3.506-3.506-.085Z"/>
        </g>
        <path class="cls-11" d="M605.053,593.768l71.784,14.914a11.234,11.234,0,0,1,8.809,13.219l-.879,2.605"/>
        <rect class="cls-12" x="611.699" y="606.23" width="62.66" height="1.355" rx="0.623" transform="translate(131.629 -114.406) rotate(11.319)"/>
        <path class="cls-11" d="M650.722,621.881l-6.675,7.151a2.361,2.361,0,0,1-4.009-.8l-3.619-10.705c-.226-.668-1.5-.781-4.187,1.786"/>
        <path class="cls-13" d="M621.6,616.487l-6.924,6.839a2.651,2.651,0,0,1-4.326-.865l-4.058-10.792c-.254-.674-2.492-2.6-4.48,1.727"/>
        <path class="cls-11" d="M632.823,618.781l-5.384,4.825a2.36,2.36,0,0,1-4.008-.8l-1.668-6.021"/>
        <path class="cls-11" d="M667.48,623.743l-7.46,8.486a2.36,2.36,0,0,1-4.009-.8l-3.619-10.7c-.182-1.223-1.867,1.713-2.6,2.136"/>
        <path class="cls-11" d="M685.646,621.9a7.809,7.809,0,0,1-.417,1.51,16.535,16.535,0,0,1-3.164,5.26l-5.959,6.778a2.36,2.36,0,0,1-4.008-.8l-3.619-10.7c-.982-1.071-3.143,2.286-2.645,1.692"/>
        <path class="cls-14" d="M566.981,623.889a27.139,27.139,0,0,0,35.347-11.542"/>
        <path class="cls-14" d="M605.053,593.768c-2.93-9.014-11.248-18.985-21.2-20.978a27.1,27.1,0,0,0-31.894,21.255c-1.364,7.3-1.017,12.825,1.844,18.3"/>
        <circle class="cls-15" cx="621.595" cy="616.487" r="0.613"/>
      </g>
      <g id="chevezinha-8" data-name="chevezinha">
        <g>
          <path class="cls-10" d="M1076.582,448.551a20.312,20.312,0,0,1-10.2-2.738.835.835,0,0,1,.837-1.445,18.732,18.732,0,1,0-6.529-6.323.835.835,0,1,1-1.417.883,20.4,20.4,0,1,1,17.305,9.623Z"/>
          <path class="cls-10" d="M1076.568,442.807a14.578,14.578,0,0,1-7.026-1.794.835.835,0,0,1,.8-1.464,13.063,13.063,0,0,0,15.45-2.207,13,13,0,0,0-18.386-18.385,13.065,13.065,0,0,0-2.207,15.449.835.835,0,1,1-1.463.8,14.672,14.672,0,0,1,23.236-17.434,14.658,14.658,0,0,1-10.408,25.031Z"/>
          <path class="cls-10" d="M1076.6,435.643a7.557,7.557,0,0,1-1.432-.137.835.835,0,1,1,.318-1.64,5.823,5.823,0,1,0-4.369-3.748.835.835,0,1,1-1.572.563,7.495,7.495,0,1,1,7.055,4.962Z"/>
          <path class="cls-10" d="M1055.931,449.656a.836.836,0,0,1-.59-1.426l20.672-20.671a.835.835,0,1,1,1.18,1.181l-20.671,20.671A.834.834,0,0,1,1055.931,449.656Z"/>
          <path class="cls-10" d="M1075.606,429.982a.835.835,0,0,1-.629-1.385l-.408.108a.835.835,0,1,1-.425-1.615l3.394-.9a.835.835,0,0,1,.8,1.4l-2.146,2.146A.833.833,0,0,1,1075.606,429.982Z"/>
          <path class="cls-10" d="M1076.856,431.232a.873.873,0,0,1-.214-.028.835.835,0,0,1-.594-1.021l.107-.408a.835.835,0,0,1-1.14-1.219l2.146-2.145a.835.835,0,0,1,1.4.8l-.9,3.4A.835.835,0,0,1,1076.856,431.232Z"/>
          <path class="cls-10" d="M1056.207,454.152a.82.82,0,0,1-.3-.054.834.834,0,0,1-.537-.73l-.231-3.759-3.76-.23a.835.835,0,0,1-.538-1.424l5.249-5.25a.813.813,0,0,1,.611-.244l4.66.113a.833.833,0,0,1,.814.814l.113,4.66a.836.836,0,0,1-.245.61l-5.25,5.25A.833.833,0,0,1,1056.207,454.152Zm-2.871-6.327,2.647.162a.835.835,0,0,1,.782.783l.162,2.647,3.687-3.687-.085-3.506-3.507-.085Z"/>
        </g>
        <path class="cls-11" d="M1102.847,422.4l71.783,14.914a11.232,11.232,0,0,1,8.809,13.218l-.878,2.606"/>
        <rect class="cls-12" x="1109.493" y="434.865" width="62.66" height="1.355" rx="0.623" transform="translate(107.677 -215.444) rotate(11.319)"/>
        <path class="cls-11" d="M1148.516,450.516l-6.675,7.151a2.361,2.361,0,0,1-4.009-.8l-3.619-10.7c-.226-.668-1.5-.781-4.188,1.786"/>
        <path class="cls-13" d="M1119.389,445.121l-6.924,6.84a2.652,2.652,0,0,1-4.326-.866L1104.08,440.3c-.253-.674-2.492-2.6-4.479,1.727"/>
        <path class="cls-11" d="M1130.617,447.415l-5.384,4.825a2.36,2.36,0,0,1-4.009-.8l-1.667-6.022"/>
        <path class="cls-11" d="M1165.274,452.378l-7.46,8.486a2.361,2.361,0,0,1-4.009-.8l-3.619-10.7c-.182-1.222-1.867,1.714-2.6,2.137"/>
        <path class="cls-11" d="M1183.439,450.535a7.655,7.655,0,0,1-.417,1.511,16.545,16.545,0,0,1-3.164,5.26l-5.958,6.778a2.361,2.361,0,0,1-4.009-.8l-3.619-10.7c-.982-1.071-3.142,2.287-2.645,1.692"/>
        <path class="cls-14" d="M1064.774,452.524a27.145,27.145,0,0,0,35.347-11.542"/>
        <path class="cls-14" d="M1102.847,422.4c-2.93-9.014-11.249-18.986-21.2-20.978a27.1,27.1,0,0,0-31.894,21.255c-1.364,7.3-1.017,12.825,1.844,18.3"/>
        <circle class="cls-15" cx="1119.389" cy="445.121" r="0.613"/>
      </g>
      <g id="chevezinha-9" data-name="chevezinha">
        <g>
          <path class="cls-10" d="M1238.258,455.091a20.309,20.309,0,0,1-10.2-2.738.835.835,0,1,1,.837-1.445,18.732,18.732,0,1,0-6.529-6.323.835.835,0,1,1-1.417.883,20.4,20.4,0,1,1,17.305,9.623Z"/>
          <path class="cls-10" d="M1238.244,449.347a14.575,14.575,0,0,1-7.026-1.794.835.835,0,0,1,.8-1.464,13.062,13.062,0,0,0,15.449-2.207,13,13,0,0,0-18.385-18.385,13.063,13.063,0,0,0-2.207,15.449.835.835,0,1,1-1.463.8,14.672,14.672,0,0,1,23.236-17.434,14.658,14.658,0,0,1-10.408,25.031Z"/>
          <path class="cls-10" d="M1238.28,442.183a7.549,7.549,0,0,1-1.432-.137.835.835,0,1,1,.318-1.64,5.823,5.823,0,1,0-4.369-3.748.835.835,0,0,1-1.573.563,7.5,7.5,0,1,1,7.056,4.962Z"/>
          <path class="cls-10" d="M1217.607,456.2a.836.836,0,0,1-.59-1.426l20.672-20.671a.835.835,0,1,1,1.18,1.181L1218.2,455.951A.835.835,0,0,1,1217.607,456.2Z"/>
          <path class="cls-10" d="M1237.282,436.522a.835.835,0,0,1-.629-1.385l-.408.107a.835.835,0,0,1-.426-1.614l3.395-.9a.834.834,0,0,1,.8,1.4l-2.145,2.146A.833.833,0,0,1,1237.282,436.522Z"/>
          <path class="cls-10" d="M1238.532,437.772a.873.873,0,0,1-.214-.028.835.835,0,0,1-.594-1.021l.107-.408a.835.835,0,0,1-1.14-1.219l2.146-2.145a.834.834,0,0,1,1.4.8l-.9,3.395A.836.836,0,0,1,1238.532,437.772Z"/>
          <path class="cls-10" d="M1217.883,460.692a.82.82,0,0,1-.3-.054.837.837,0,0,1-.538-.73l-.231-3.759-3.759-.23a.835.835,0,0,1-.539-1.424l5.25-5.25a.813.813,0,0,1,.611-.244l4.66.113a.833.833,0,0,1,.814.814l.113,4.659a.84.84,0,0,1-.245.611l-5.25,5.25A.835.835,0,0,1,1217.883,460.692Zm-2.871-6.327,2.646.162a.836.836,0,0,1,.783.783l.162,2.647,3.686-3.687-.084-3.506-3.507-.085Z"/>
        </g>
        <path class="cls-11" d="M1264.523,428.943l71.783,14.914a11.232,11.232,0,0,1,8.809,13.218l-.879,2.605"/>
        <rect class="cls-12" x="1271.169" y="441.405" width="62.66" height="1.355" rx="0.623" transform="translate(112.105 -247.05) rotate(11.319)"/>
        <path class="cls-11" d="M1310.192,457.056l-6.676,7.151a2.36,2.36,0,0,1-4.008-.8l-3.619-10.7c-.226-.668-1.5-.781-4.188,1.786"/>
        <path class="cls-13" d="M1281.065,451.661l-6.925,6.84a2.652,2.652,0,0,1-4.326-.866l-4.058-10.792c-.253-.674-2.492-2.6-4.479,1.727"/>
        <path class="cls-11" d="M1292.293,453.955l-5.385,4.825a2.36,2.36,0,0,1-4.008-.8l-1.667-6.022"/>
        <path class="cls-11" d="M1326.95,458.917l-7.461,8.487a2.36,2.36,0,0,1-4.008-.8l-3.619-10.7c-.182-1.223-1.867,1.714-2.6,2.137"/>
        <path class="cls-11" d="M1345.115,457.075a7.725,7.725,0,0,1-.417,1.511,16.545,16.545,0,0,1-3.164,5.26l-5.958,6.778a2.361,2.361,0,0,1-4.009-.8l-3.619-10.7c-.982-1.071-3.142,2.287-2.645,1.692"/>
        <path class="cls-14" d="M1226.45,459.063a27.141,27.141,0,0,0,35.347-11.541"/>
        <path class="cls-14" d="M1264.523,428.943c-2.931-9.014-11.249-18.986-21.2-20.979a27.1,27.1,0,0,0-31.894,21.255c-1.365,7.3-1.017,12.826,1.844,18.3"/>
        <circle class="cls-15" cx="1281.065" cy="451.661" r="0.613"/>
      </g>
      <g id="chevezinha-10" data-name="chevezinha">
        <g>
          <path class="cls-10" d="M1240.714,558.7a20.3,20.3,0,0,1-10.195-2.737.835.835,0,1,1,.836-1.445,18.734,18.734,0,1,0-6.528-6.324.835.835,0,0,1-1.418.883,20.406,20.406,0,1,1,17.3,9.623Z"/>
          <path class="cls-10" d="M1240.7,552.957a14.568,14.568,0,0,1-7.026-1.795.835.835,0,0,1,.8-1.464,13.062,13.062,0,0,0,15.45-2.207,13,13,0,1,0-18.385-18.385,13.067,13.067,0,0,0-2.208,15.45.835.835,0,1,1-1.463.8,14.673,14.673,0,0,1,23.237-17.435,14.67,14.67,0,0,1,0,20.747A14.725,14.725,0,0,1,1240.7,552.957Z"/>
          <path class="cls-10" d="M1240.736,545.793a7.558,7.558,0,0,1-1.432-.138.835.835,0,0,1,.318-1.64,5.823,5.823,0,1,0-4.369-3.748.835.835,0,0,1-1.572.564,7.495,7.495,0,1,1,7.055,4.962Z"/>
          <path class="cls-10" d="M1220.064,559.8a.835.835,0,0,1-.591-1.425l20.672-20.672a.835.835,0,0,1,1.181,1.181l-20.672,20.671A.829.829,0,0,1,1220.064,559.8Z"/>
          <path class="cls-10" d="M1239.738,540.131a.836.836,0,0,1-.629-1.385l-.407.108a.835.835,0,1,1-.426-1.615l3.395-.9a.835.835,0,0,1,.8,1.4l-2.145,2.145A.835.835,0,0,1,1239.738,540.131Z"/>
          <path class="cls-10" d="M1240.988,541.381a.82.82,0,0,1-.213-.028.836.836,0,0,1-.6-1.021l.108-.407a.835.835,0,0,1-1.14-1.219l2.145-2.146a.835.835,0,0,1,1.4.8l-.9,3.395A.836.836,0,0,1,1240.988,541.381Z"/>
          <path class="cls-10" d="M1220.339,564.3a.85.85,0,0,1-.3-.054.836.836,0,0,1-.537-.73l-.231-3.76-3.759-.23a.835.835,0,0,1-.539-1.424l5.25-5.249a.813.813,0,0,1,.611-.245l4.659.113a.836.836,0,0,1,.815.815l.112,4.659a.837.837,0,0,1-.244.61l-5.25,5.25A.833.833,0,0,1,1220.339,564.3Zm-2.871-6.327,2.647.162a.834.834,0,0,1,.782.782l.162,2.647,3.687-3.687-.085-3.506-3.506-.084Z"/>
        </g>
        <path class="cls-11" d="M1266.979,532.552l71.784,14.915a11.232,11.232,0,0,1,8.809,13.218l-.879,2.605"/>
        <rect class="cls-12" x="1273.625" y="545.014" width="62.66" height="1.355" rx="0.623" transform="translate(132.489 -245.517) rotate(11.319)"/>
        <path class="cls-11" d="M1312.648,560.665l-6.675,7.151a2.36,2.36,0,0,1-4.008-.8l-3.62-10.7c-.225-.669-1.5-.782-4.187,1.785"/>
        <path class="cls-13" d="M1283.521,555.271l-6.924,6.84a2.652,2.652,0,0,1-4.326-.866l-4.058-10.792c-.254-.674-2.492-2.6-4.48,1.727"/>
        <path class="cls-11" d="M1294.75,557.565l-5.385,4.825a2.36,2.36,0,0,1-4.008-.8l-1.668-6.021"/>
        <path class="cls-11" d="M1329.406,562.527l-7.46,8.486a2.36,2.36,0,0,1-4.008-.8l-3.62-10.7c-.182-1.223-1.866,1.713-2.6,2.136"/>
        <path class="cls-11" d="M1347.572,560.685a7.816,7.816,0,0,1-.417,1.511,16.541,16.541,0,0,1-3.164,5.259l-5.959,6.778a2.36,2.36,0,0,1-4.008-.8l-3.619-10.7c-.982-1.071-3.143,2.286-2.645,1.692"/>
        <path class="cls-14" d="M1228.907,562.673a27.139,27.139,0,0,0,35.347-11.542"/>
        <path class="cls-14" d="M1266.979,532.552c-2.93-9.014-11.248-18.985-21.2-20.978a27.1,27.1,0,0,0-31.894,21.255c-1.364,7.3-1.016,12.826,1.845,18.3"/>
        <circle class="cls-15" cx="1283.521" cy="555.271" r="0.613"/>
      </g>
      <g id="chevezinha-11" data-name="chevezinha">
        <g>
          <path class="cls-10" d="M1079.82,534.107a20.3,20.3,0,0,1-10.2-2.738.835.835,0,0,1,.837-1.445,18.731,18.731,0,1,0-6.529-6.323.835.835,0,1,1-1.417.883,20.405,20.405,0,1,1,17.3,9.623Z"/>
          <path class="cls-10" d="M1079.806,528.363a14.578,14.578,0,0,1-7.026-1.794.835.835,0,0,1,.8-1.464,13.063,13.063,0,0,0,15.45-2.207,13,13,0,0,0-18.385-18.385,13.064,13.064,0,0,0-2.208,15.449.835.835,0,1,1-1.463.8,14.672,14.672,0,0,1,23.237-17.434,14.658,14.658,0,0,1-10.409,25.031Z"/>
          <path class="cls-10" d="M1079.842,521.2a7.557,7.557,0,0,1-1.432-.137.835.835,0,0,1,.318-1.64,5.823,5.823,0,1,0-4.369-3.748.835.835,0,1,1-1.572.563,7.495,7.495,0,1,1,7.055,4.962Z"/>
          <path class="cls-10" d="M1059.169,535.212a.836.836,0,0,1-.59-1.426l20.672-20.671a.835.835,0,0,1,1.18,1.181l-20.671,20.671A.834.834,0,0,1,1059.169,535.212Z"/>
          <path class="cls-10" d="M1078.844,515.538a.835.835,0,0,1-.629-1.385l-.408.108a.835.835,0,1,1-.425-1.615l3.394-.9a.835.835,0,0,1,.8,1.4l-2.146,2.145A.833.833,0,0,1,1078.844,515.538Z"/>
          <path class="cls-10" d="M1080.094,516.788a.873.873,0,0,1-.214-.028.835.835,0,0,1-.594-1.021l.107-.408a.835.835,0,0,1-1.14-1.219l2.146-2.145a.835.835,0,0,1,1.4.8l-.9,3.4A.835.835,0,0,1,1080.094,516.788Z"/>
          <path class="cls-10" d="M1059.445,539.709a.821.821,0,0,1-.3-.055.834.834,0,0,1-.537-.729l-.231-3.76-3.76-.23a.835.835,0,0,1-.538-1.424l5.249-5.25a.813.813,0,0,1,.611-.244l4.66.113a.834.834,0,0,1,.814.815l.113,4.659a.834.834,0,0,1-.245.61l-5.25,5.25A.834.834,0,0,1,1059.445,539.709Zm-2.871-6.328,2.647.162a.836.836,0,0,1,.782.783l.162,2.647,3.687-3.687-.085-3.506-3.507-.085Z"/>
        </g>
        <path class="cls-11" d="M1106.085,507.959l71.783,14.914a11.232,11.232,0,0,1,8.809,13.218l-.878,2.606"/>
        <rect class="cls-12" x="1112.731" y="520.421" width="62.66" height="1.355" rx="0.623" transform="translate(124.533 -214.416) rotate(11.319)"/>
        <path class="cls-11" d="M1151.754,536.072l-6.675,7.151a2.361,2.361,0,0,1-4.009-.8l-3.619-10.7c-.226-.668-1.5-.781-4.188,1.786"/>
        <path class="cls-13" d="M1122.627,530.677l-6.924,6.84a2.651,2.651,0,0,1-4.326-.866l-4.058-10.792c-.254-.674-2.492-2.6-4.48,1.728"/>
        <path class="cls-11" d="M1133.855,532.972l-5.384,4.824a2.36,2.36,0,0,1-4.009-.8l-1.667-6.022"/>
        <path class="cls-11" d="M1168.512,537.934l-7.46,8.486a2.36,2.36,0,0,1-4.009-.8l-3.619-10.7c-.182-1.223-1.867,1.713-2.6,2.136"/>
        <path class="cls-11" d="M1186.677,536.091a7.655,7.655,0,0,1-.417,1.511,16.561,16.561,0,0,1-3.163,5.26l-5.959,6.778a2.36,2.36,0,0,1-4.008-.8l-3.62-10.7c-.982-1.072-3.142,2.286-2.645,1.691"/>
        <path class="cls-14" d="M1068.012,538.08a27.145,27.145,0,0,0,35.347-11.542"/>
        <path class="cls-14" d="M1106.085,507.959c-2.93-9.014-11.249-18.986-21.2-20.978a27.1,27.1,0,0,0-31.894,21.255c-1.364,7.3-1.017,12.825,1.844,18.3"/>
        <circle class="cls-15" cx="1122.627" cy="530.677" r="0.613"/>
      </g>
      <g id="chevezinha-12" data-name="chevezinha">
        <g>
          <path class="cls-10" d="M1079.038,619.663a20.3,20.3,0,0,1-10.195-2.738.834.834,0,0,1,.836-1.444,18.735,18.735,0,1,0-6.528-6.324.835.835,0,1,1-1.417.883,20.4,20.4,0,1,1,17.3,9.623Z"/>
          <path class="cls-10" d="M1079.024,613.919a14.563,14.563,0,0,1-7.025-1.794.835.835,0,1,1,.8-1.464,13.06,13.06,0,0,0,15.449-2.207,13,13,0,0,0-18.385-18.385,13.065,13.065,0,0,0-2.207,15.45.835.835,0,0,1-1.463.8,14.672,14.672,0,0,1,23.236-17.435,14.67,14.67,0,0,1,0,20.747A14.724,14.724,0,0,1,1079.024,613.919Z"/>
          <path class="cls-10" d="M1079.06,606.756a7.548,7.548,0,0,1-1.431-.138.835.835,0,0,1,.318-1.64,5.822,5.822,0,1,0-4.37-3.748.835.835,0,1,1-1.572.563,7.493,7.493,0,1,1,7.055,4.963Z"/>
          <path class="cls-10" d="M1058.388,620.768a.836.836,0,0,1-.591-1.426l20.672-20.671a.835.835,0,0,1,1.181,1.181l-20.672,20.671A.831.831,0,0,1,1058.388,620.768Z"/>
          <path class="cls-10" d="M1078.062,601.094a.835.835,0,0,1-.628-1.385l-.408.108a.835.835,0,0,1-.426-1.615l3.395-.9a.835.835,0,0,1,.8,1.4l-2.145,2.145A.834.834,0,0,1,1078.062,601.094Z"/>
          <path class="cls-10" d="M1079.312,602.344a.82.82,0,0,1-.213-.028.837.837,0,0,1-.6-1.021l.108-.407a.835.835,0,0,1-1.14-1.22l2.145-2.145a.835.835,0,0,1,1.4.8l-.9,3.395A.836.836,0,0,1,1079.312,602.344Z"/>
          <path class="cls-10" d="M1058.663,625.265a.835.835,0,0,1-.833-.784l-.231-3.76-3.759-.23a.835.835,0,0,1-.539-1.424l5.25-5.25a.816.816,0,0,1,.611-.244l4.659.113a.836.836,0,0,1,.815.815l.112,4.659a.837.837,0,0,1-.244.61l-5.25,5.25A.833.833,0,0,1,1058.663,625.265Zm-2.871-6.327,2.647.161a.835.835,0,0,1,.782.783l.162,2.647,3.687-3.687-.085-3.506-3.506-.085Z"/>
        </g>
        <path class="cls-11" d="M1105.3,593.515l71.784,14.914a11.233,11.233,0,0,1,8.809,13.219l-.879,2.605"/>
        <rect class="cls-12" x="1111.949" y="605.977" width="62.66" height="1.355" rx="0.623" transform="translate(141.31 -212.598) rotate(11.319)"/>
        <path class="cls-11" d="M1150.972,621.628l-6.675,7.151a2.36,2.36,0,0,1-4.008-.8l-3.619-10.7c-.226-.668-1.5-.781-4.188,1.786"/>
        <path class="cls-13" d="M1121.846,616.234l-6.925,6.839a2.651,2.651,0,0,1-4.326-.866l-4.058-10.792c-.253-.673-2.492-2.6-4.479,1.728"/>
        <path class="cls-11" d="M1133.074,618.528l-5.385,4.825a2.36,2.36,0,0,1-4.008-.8l-1.667-6.021"/>
        <path class="cls-11" d="M1167.731,623.49l-7.461,8.486a2.36,2.36,0,0,1-4.008-.8l-3.619-10.7c-.182-1.223-1.867,1.713-2.6,2.136"/>
        <path class="cls-11" d="M1185.9,621.648a7.809,7.809,0,0,1-.417,1.51,16.545,16.545,0,0,1-3.164,5.26l-5.959,6.778a2.36,2.36,0,0,1-4.008-.8l-3.619-10.7c-.982-1.071-3.142,2.286-2.645,1.692"/>
        <path class="cls-14" d="M1067.231,623.636a27.14,27.14,0,0,0,35.347-11.542"/>
        <path class="cls-14" d="M1105.3,593.515c-2.93-9.014-11.248-18.985-21.2-20.978a27.1,27.1,0,0,0-31.893,21.255c-1.365,7.3-1.017,12.825,1.844,18.3"/>
        <circle class="cls-15" cx="1121.846" cy="616.234" r="0.613"/>
      </g>
      <g>
        <polygon class="cls-16" points="211.528 153.218 268.006 124.423 274.574 159.863 211.528 153.218"/>
        <rect class="cls-17" x="274.512" y="120.57" width="185.1" height="7.91" transform="translate(-16.545 68.972) rotate(-10.499)"/>
        <polygon class="cls-18" points="480.507 83.875 456.201 113.301 442.979 90.829 480.507 83.875"/>
        <polygon class="cls-18" points="486.871 122.234 453.634 103.471 449.343 129.189 486.871 122.234"/>
        <polygon class="cls-19" points="402.206 118.163 433.755 91.539 441.2 131.714 402.206 118.163"/>
        <rect class="cls-19" x="437.342" y="89.727" width="16.104" height="40.862" transform="translate(-12.616 83.005) rotate(-10.499)"/>
      </g>
      <g>
        <polygon class="cls-16" points="683.692 203.16 747.03 205.848 735.328 239.938 683.692 203.16"/>
        <rect class="cls-17" x="740.692" y="250.676" width="185.1" height="7.91" transform="translate(127.811 -256.736) rotate(18.946)"/>
        <polygon class="cls-18" points="952.016 274.999 916.383 288.676 915.916 262.608 952.016 274.999"/>
        <polygon class="cls-18" points="938.7 311.532 918.98 278.854 902.601 299.14 938.7 311.532"/>
        <polygon class="cls-19" points="866.973 266.367 907.535 258.691 894.269 297.337 866.973 266.367"/>
        <rect class="cls-19" x="900.466" y="260.196" width="16.104" height="40.862" transform="translate(140.329 -279.767) rotate(18.946)"/>
      </g>
    </g>
  </g>
</svg>
