<svg xmlns="http://www.w3.org/2000/svg" viewBox="0 0 888.707 719.333">
  <defs>
    <style>
      .cls-1 {
        fill: #eef3ff;
      }

      .cls-2 {
        fill: #e1e8f9;
      }

      .cls-3 {
        fill: none;
        stroke: #1c2122;
        stroke-miterlimit: 10;
      }

      .cls-4 {
        fill: #1c2122;
      }

      .cls-5 {
        fill: #e31b23;
      }
    </style>
  </defs>
  <g id="Camada_2" data-name="Camada 2">
    <g id="Camada_2-2" data-name="Camada 2">
      <polygon class="cls-1" points="322.438 355.707 261.085 441.768 0 441.768 0 559.848 311.04 559.848 311.04 472.117 322.438 355.707"/>
      <rect class="cls-2" x="2.187" y="449.683" width="23.733" height="23.733"/>
      <rect class="cls-2" x="35.326" y="559.848" width="64.034" height="11.866"/>
      <circle class="cls-2" cx="217.739" cy="449.683" r="18.947"/>
      <polygon class="cls-3" points="331.531 359.479 270.179 445.539 9.093 445.539 9.093 563.619 320.133 563.619 320.133 475.889 331.531 359.479"/>
      <g>
        <path class="cls-4" d="M72.832,517.263v3.657H51.153V486.8H72.6v3.679H55.7v10.992H70.442v3.657H55.7v12.14Z"/>
        <path class="cls-4" d="M79.875,507.162a5.457,5.457,0,0,1-2.308-4.664,6.348,6.348,0,0,1,1.172-3.7,8.133,8.133,0,0,1,3.316-2.7,11.415,11.415,0,0,1,4.91-1.008,11.819,11.819,0,0,1,5.156,1.055,7.991,7.991,0,0,1,3.364,2.848,7.2,7.2,0,0,1,1.16,4H92.262a3.87,3.87,0,0,0-.633-2.086,4.743,4.743,0,0,0-1.84-1.652,5.9,5.9,0,0,0-2.824-.645,6.7,6.7,0,0,0-2.836.527,3.723,3.723,0,0,0-1.652,1.383,3.44,3.44,0,0,0-.527,1.84,2.8,2.8,0,0,0,.48,1.676,4.08,4.08,0,0,0,1.734,1.207,20.97,20.97,0,0,0,3.622,1.055,23.851,23.851,0,0,1,5.179,1.71,7.481,7.481,0,0,1,2.965,2.415,6.021,6.021,0,0,1,.973,3.468,6.53,6.53,0,0,1-1.219,3.9,7.961,7.961,0,0,1-3.445,2.648,13.057,13.057,0,0,1-5.157.949,12.513,12.513,0,0,1-5.589-1.16,8.662,8.662,0,0,1-3.575-3.058,7.381,7.381,0,0,1-1.218-4.055h4.382a4.567,4.567,0,0,0,.985,2.754,5.015,5.015,0,0,0,2.215,1.535,8.337,8.337,0,0,0,2.8.469,8.1,8.1,0,0,0,2.942-.481,4.179,4.179,0,0,0,1.863-1.312,3.037,3.037,0,0,0,.633-1.887,3.608,3.608,0,0,0-.445-1.828,4.06,4.06,0,0,0-1.711-1.43,14.7,14.7,0,0,0-3.657-1.148A17.847,17.847,0,0,1,79.875,507.162Z"/>
        <path class="cls-4" d="M119.45,496.7a9.856,9.856,0,0,1,3.375,4.523,18.542,18.542,0,0,1,1.148,6.809v.492a17.886,17.886,0,0,1-1.16,6.645,10.285,10.285,0,0,1-3.375,4.57,8.593,8.593,0,0,1-5.285,1.652,9.3,9.3,0,0,1-7.242-2.906V530.67h-4.383V495.56h3.984l.234,2.766a9.87,9.87,0,0,1,12.7-1.629Zm.14,11.332a14.174,14.174,0,0,0-.738-4.723,7.3,7.3,0,0,0-2.274-3.34,5.857,5.857,0,0,0-3.808-1.242,6.349,6.349,0,0,0-3.516.938,6.981,6.981,0,0,0-2.343,2.554v12.211a6.354,6.354,0,0,0,5.906,3.446,5.739,5.739,0,0,0,3.773-1.254,7.4,7.4,0,0,0,2.262-3.364,14.27,14.27,0,0,0,.738-4.734Z"/>
        <path class="cls-4" d="M149.918,509.435H132.762a10.616,10.616,0,0,0,.984,4.289,7.351,7.351,0,0,0,2.59,3.035,6.923,6.923,0,0,0,3.926,1.114,7.732,7.732,0,0,0,3.809-.891,9.281,9.281,0,0,0,2.871-2.555l2.648,2.063a11.058,11.058,0,0,1-3.75,3.527,11.348,11.348,0,0,1-5.812,1.371,11.761,11.761,0,0,1-6.117-1.57,10.637,10.637,0,0,1-4.09-4.359,13.585,13.585,0,0,1-1.442-6.329v-1.007a14.77,14.77,0,0,1,1.547-6.926,11.339,11.339,0,0,1,4.09-4.535,10.938,10.938,0,0,1,11.32.011,9.367,9.367,0,0,1,3.457,4.372,17.133,17.133,0,0,1,1.125,6.445Zm-4.382-3.844a9.478,9.478,0,0,0-1.606-4.98,5.092,5.092,0,0,0-4.465-2,5.676,5.676,0,0,0-4.371,1.91,9.6,9.6,0,0,0-2.191,5.4h12.633Z"/>
        <path class="cls-4" d="M175.254,512.9a7.763,7.763,0,0,1-1.523,4.183,10.17,10.17,0,0,1-3.692,3.129,10.6,10.6,0,0,1-4.91,1.172,10.944,10.944,0,0,1-6.222-1.7,10.435,10.435,0,0,1-3.809-4.57,15.662,15.662,0,0,1-1.266-6.387v-.984a15.662,15.662,0,0,1,1.266-6.387,10.429,10.429,0,0,1,3.809-4.57,12.02,12.02,0,0,1,11.39-.5,9.021,9.021,0,0,1,3.551,3.293,9.652,9.652,0,0,1,1.406,4.7h-4.148a6.474,6.474,0,0,0-.891-2.871,5.645,5.645,0,0,0-2.086-2.051,5.939,5.939,0,0,0-3-.75,6.087,6.087,0,0,0-4.054,1.3,7.1,7.1,0,0,0-2.2,3.351,14.684,14.684,0,0,0-.656,4.489v.984a12.276,12.276,0,0,0,1.606,6.516,5.735,5.735,0,0,0,5.308,2.625,6.418,6.418,0,0,0,2.848-.645,5.832,5.832,0,0,0,2.168-1.781,4.871,4.871,0,0,0,.961-2.543Z"/>
        <path class="cls-4" d="M180.481,520.92V495.56h4.359v25.36Zm9.914-35.954-6.305,6.868h-3.515l4.546-6.868Z"/>
        <path class="cls-4" d="M199.676,489.337a4.986,4.986,0,0,0-1.148,3.528v2.695h5.39v3.305h-5.39V520.92h-4.383V498.865h-3.984V495.56h3.984v-2.695a7.66,7.66,0,0,1,8.367-8.438,12.636,12.636,0,0,1,2.977.375l-.235,3.493a13.432,13.432,0,0,0-2.343-.188A4.209,4.209,0,0,0,199.676,489.337Z"/>
        <path class="cls-4" d="M213.211,487.029a2.435,2.435,0,0,1,.692,1.781,2.367,2.367,0,0,1-.692,1.746,2.58,2.58,0,0,1-1.91.692,2.5,2.5,0,0,1-1.887-.692,2.413,2.413,0,0,1-.668-1.746,2.361,2.361,0,0,1,2.555-2.484A2.555,2.555,0,0,1,213.211,487.029Zm-4.136,33.891V495.56h4.382v25.36Z"/>
        <path class="cls-4" d="M240.668,512.9a7.763,7.763,0,0,1-1.523,4.183,10.17,10.17,0,0,1-3.692,3.129,10.6,10.6,0,0,1-4.91,1.172,10.944,10.944,0,0,1-6.222-1.7,10.435,10.435,0,0,1-3.809-4.57,15.662,15.662,0,0,1-1.266-6.387v-.984a15.662,15.662,0,0,1,1.266-6.387,10.429,10.429,0,0,1,3.809-4.57,12.02,12.02,0,0,1,11.39-.5,9.021,9.021,0,0,1,3.551,3.293,9.652,9.652,0,0,1,1.406,4.7H236.52a6.474,6.474,0,0,0-.891-2.871,5.645,5.645,0,0,0-2.086-2.051,5.939,5.939,0,0,0-3-.75,6.087,6.087,0,0,0-4.054,1.3,7.088,7.088,0,0,0-2.2,3.351,14.653,14.653,0,0,0-.657,4.489v.984a12.276,12.276,0,0,0,1.606,6.516,5.735,5.735,0,0,0,5.308,2.625,6.418,6.418,0,0,0,2.848-.645,5.832,5.832,0,0,0,2.168-1.781,4.871,4.871,0,0,0,.961-2.543Z"/>
        <path class="cls-4" d="M245.8,501.373a10.782,10.782,0,0,1,10.1-6.282,11.165,11.165,0,0,1,6.14,1.676,10.969,10.969,0,0,1,4.032,4.606,15.088,15.088,0,0,1,1.406,6.609v.539a15.018,15.018,0,0,1-1.406,6.6,11.222,11.222,0,0,1-20.262,0,14.911,14.911,0,0,1-1.418-6.6v-.539A15.088,15.088,0,0,1,245.8,501.373Zm3.785,11.859a7.563,7.563,0,0,0,2.426,3.387,6.773,6.773,0,0,0,7.852,0,7.561,7.561,0,0,0,2.425-3.387,13.194,13.194,0,0,0,.809-4.711v-.539a13.021,13.021,0,0,0-.82-4.711,7.72,7.72,0,0,0-2.438-3.4,6.191,6.191,0,0,0-3.937-1.266,6.11,6.11,0,0,0-3.9,1.266,7.676,7.676,0,0,0-2.414,3.4,13.194,13.194,0,0,0-.808,4.711v.539A13.194,13.194,0,0,0,249.586,513.232Z"/>
      </g>
      <polygon class="cls-1" points="477.464 358.106 398.855 586.828 137.912 586.828 137.912 704.908 448.952 704.908 448.952 586.828 446.701 586.828 477.464 358.106"/>
      <circle class="cls-2" cx="185.761" cy="707.633" r="11.7"/>
      <rect class="cls-2" x="423.72" y="640.62" width="63.432" height="15.665"/>
      <rect class="cls-2" x="829.764" y="555.931" width="13.234" height="13.234"/>
      <polygon class="cls-3" points="487.152 357.268 408.543 585.99 147.6 585.99 147.6 704.07 458.64 704.07 458.64 585.99 456.389 585.99 487.152 357.268"/>
      <g>
        <path class="cls-4" d="M231.215,657.244H216.989l-3.235,8.929h-4.687L222.1,632.048h3.984l13.055,34.125h-4.664Zm-1.336-3.68-5.789-15.937-5.765,15.937Z"/>
        <path class="cls-4" d="M253.411,666.173a11.2,11.2,0,0,1-3.352.469,5.771,5.771,0,0,1-4.254-1.594q-1.6-1.593-1.605-5.179v-15.75h-4.618v-3.305H244.2V634.65h4.382v6.164h4.735v3.305h-4.735v15.773a3.069,3.069,0,0,0,.75,2.426,3.1,3.1,0,0,0,2.039.621,7.777,7.777,0,0,0,1.079-.082,8.154,8.154,0,0,0,.937-.176Z"/>
        <path class="cls-4" d="M262.868,632.283a2.439,2.439,0,0,1,.691,1.781,2.37,2.37,0,0,1-.691,1.746,2.583,2.583,0,0,1-1.911.692,2.5,2.5,0,0,1-1.886-.692,2.409,2.409,0,0,1-.668-1.746,2.36,2.36,0,0,1,2.554-2.484A2.557,2.557,0,0,1,262.868,632.283Zm-4.137,33.89V640.814h4.383v25.359Z"/>
        <path class="cls-4" d="M290,649.556v16.617h-4.382V649.509a5.958,5.958,0,0,0-1.254-4.218,5,5,0,0,0-3.785-1.313,6.251,6.251,0,0,0-3.622,1.1,7.743,7.743,0,0,0-2.542,2.953v18.14h-4.383V640.814h4.148l.141,3.117a9.658,9.658,0,0,1,3.3-2.648,9.551,9.551,0,0,1,4.243-.938Q290,640.345,290,649.556Z"/>
        <path class="cls-4" d="M316.95,640.814v24.82a11.277,11.277,0,0,1-1.36,5.684,9,9,0,0,1-3.785,3.621,12.15,12.15,0,0,1-5.613,1.242,13.574,13.574,0,0,1-6.668-1.875,8.409,8.409,0,0,1-2.731-2.531l2.274-2.555a8.5,8.5,0,0,0,6.8,3.446,6.685,6.685,0,0,0,4.91-1.77,6.782,6.782,0,0,0,1.793-5.051v-2.179a8.874,8.874,0,0,1-7.078,2.976,8.644,8.644,0,0,1-5.262-1.664,10.684,10.684,0,0,1-3.492-4.582,16.885,16.885,0,0,1-1.231-6.621v-.492a17.534,17.534,0,0,1,1.219-6.774,10.253,10.253,0,0,1,3.492-4.547,8.942,8.942,0,0,1,5.321-1.617,8.75,8.75,0,0,1,7.242,3.258l.187-2.789Zm-4.383,18.445V647.611a7.057,7.057,0,0,0-2.367-2.66,6.372,6.372,0,0,0-3.586-.973,5.8,5.8,0,0,0-3.786,1.231,7.135,7.135,0,0,0-2.226,3.339,14.692,14.692,0,0,0-.715,4.735v.492a14.365,14.365,0,0,0,.715,4.7,7.1,7.1,0,0,0,2.215,3.293,5.751,5.751,0,0,0,3.75,1.219A6.333,6.333,0,0,0,312.567,659.259Z"/>
        <path class="cls-4" d="M323.864,666.173V640.814h4.359v25.359Zm9.914-35.953-6.305,6.867h-3.516l4.547-6.867Z"/>
        <path class="cls-4" d="M354.5,640.814,345.4,666.173h-3.328l-9.188-25.359h4.477l6.422,19.43,6.234-19.43Z"/>
        <path class="cls-4" d="M379.106,654.689H361.95a10.6,10.6,0,0,0,.984,4.289,7.343,7.343,0,0,0,2.59,3.035,6.931,6.931,0,0,0,3.926,1.114,7.728,7.728,0,0,0,3.808-.891,9.27,9.27,0,0,0,2.871-2.555l2.649,2.063a11.076,11.076,0,0,1-3.75,3.527,11.352,11.352,0,0,1-5.813,1.371,11.766,11.766,0,0,1-6.117-1.57,10.633,10.633,0,0,1-4.09-4.36,13.577,13.577,0,0,1-1.441-6.328v-1.007a14.758,14.758,0,0,1,1.547-6.926,11.331,11.331,0,0,1,4.089-4.535,10.939,10.939,0,0,1,11.321.011,9.375,9.375,0,0,1,3.457,4.371,17.142,17.142,0,0,1,1.125,6.446Zm-4.383-3.844a9.478,9.478,0,0,0-1.605-4.98,5.093,5.093,0,0,0-4.465-2,5.676,5.676,0,0,0-4.371,1.91,9.605,9.605,0,0,0-2.192,5.4h12.633Z"/>
        <path class="cls-4" d="M384.52,666.173v-36H388.9v36Z"/>
      </g>
      <polygon class="cls-1" points="670.076 461.549 621.706 355.352 616.176 461.549 552.24 461.549 552.24 579.629 863.28 579.629 863.28 461.549 670.076 461.549"/>
      <rect class="cls-2" x="511.576" y="552.015" width="76.664" height="7.832"/>
      <circle class="cls-2" cx="869.76" cy="465.973" r="18.947"/>
      <rect class="cls-2" x="150.72" y="591.061" width="23.733" height="23.733"/>
      <polygon class="cls-3" points="676.556 470.596 628.186 364.399 622.656 470.596 558.72 470.596 558.72 588.676 869.76 588.676 869.76 470.596 676.556 470.596"/>
      <g>
        <path class="cls-4" d="M636.371,516.363H625.426v30.445h-4.5V516.363H610v-3.68h26.367Z"/>
        <path class="cls-4" d="M661.192,535.324H644.036a10.6,10.6,0,0,0,.984,4.289,7.343,7.343,0,0,0,2.59,3.035,6.93,6.93,0,0,0,3.926,1.113,7.739,7.739,0,0,0,3.808-.89,9.294,9.294,0,0,0,2.871-2.555l2.649,2.062a11.069,11.069,0,0,1-3.75,3.528,11.352,11.352,0,0,1-5.813,1.371,11.775,11.775,0,0,1-6.117-1.57,10.633,10.633,0,0,1-4.09-4.36,13.58,13.58,0,0,1-1.441-6.328v-1.008a14.757,14.757,0,0,1,1.547-6.925,11.34,11.34,0,0,1,4.089-4.536,10.942,10.942,0,0,1,11.321.012,9.375,9.375,0,0,1,3.457,4.371,17.14,17.14,0,0,1,1.125,6.445Zm-4.383-3.844a9.47,9.47,0,0,0-1.606-4.98,5.09,5.09,0,0,0-4.464-2,5.672,5.672,0,0,0-4.371,1.91,9.6,9.6,0,0,0-2.192,5.4h12.633Z"/>
        <path class="cls-4" d="M699.606,523.207q2.156,2.226,2.156,6.937v16.664h-4.383V530.1q0-3.023-1.371-4.254a5.837,5.837,0,0,0-4.019-1.23,5.9,5.9,0,0,0-2.953.715,5.233,5.233,0,0,0-1.981,1.933,6.8,6.8,0,0,0-.879,2.742v16.8h-4.383V530.121q0-5.508-5.414-5.508a6.392,6.392,0,0,0-3.609.949,6.011,6.011,0,0,0-2.18,2.637v18.609h-4.383V521.449h4.149l.14,2.742a8.82,8.82,0,0,1,3.188-2.379,10.473,10.473,0,0,1,4.289-.832,9.281,9.281,0,0,1,4.4,1,6.409,6.409,0,0,1,2.847,3.035,9.362,9.362,0,0,1,3.363-2.953,9.95,9.95,0,0,1,4.7-1.078Q697.45,520.98,699.606,523.207Z"/>
        <path class="cls-4" d="M725.223,522.586a9.856,9.856,0,0,1,3.375,4.523,18.517,18.517,0,0,1,1.148,6.809v.492a17.857,17.857,0,0,1-1.16,6.644,10.268,10.268,0,0,1-3.375,4.571,8.591,8.591,0,0,1-5.285,1.652,9.311,9.311,0,0,1-7.242-2.906v12.187H708.3V521.449h3.985l.234,2.765a9.87,9.87,0,0,1,12.7-1.628Zm.141,11.332a14.144,14.144,0,0,0-.739-4.723,7.292,7.292,0,0,0-2.273-3.34,5.861,5.861,0,0,0-3.809-1.242,6.343,6.343,0,0,0-3.515.937,6.986,6.986,0,0,0-2.344,2.555v12.211a6.355,6.355,0,0,0,5.906,3.445,5.743,5.743,0,0,0,3.774-1.254,7.412,7.412,0,0,0,2.261-3.363,14.244,14.244,0,0,0,.739-4.734Z"/>
        <path class="cls-4" d="M735.536,527.261a10.781,10.781,0,0,1,10.1-6.281,11.166,11.166,0,0,1,6.141,1.676,10.964,10.964,0,0,1,4.031,4.605,15.093,15.093,0,0,1,1.406,6.61v.539a15.01,15.01,0,0,1-1.406,6.6,11.221,11.221,0,0,1-20.262,0,14.9,14.9,0,0,1-1.418-6.6v-.539A15.079,15.079,0,0,1,735.536,527.261Zm3.785,11.86a7.558,7.558,0,0,0,2.425,3.386,6.773,6.773,0,0,0,7.852,0,7.56,7.56,0,0,0,2.426-3.386,13.2,13.2,0,0,0,.808-4.711v-.539a13.021,13.021,0,0,0-.82-4.711,7.727,7.727,0,0,0-2.437-3.4,6.2,6.2,0,0,0-3.938-1.265,6.112,6.112,0,0,0-3.9,1.265,7.677,7.677,0,0,0-2.414,3.4,13.194,13.194,0,0,0-.809,4.711v.539A13.2,13.2,0,0,0,739.321,539.121Z"/>
        <path class="cls-4" d="M774.067,521.086a3.47,3.47,0,0,1,.867.222v4.008a11.653,11.653,0,0,0-2.133-.188,6.356,6.356,0,0,0-3.6.961,5.872,5.872,0,0,0-2.167,2.7v18.023h-4.383V521.449h4.265l.094,2.883a7.158,7.158,0,0,1,2.484-2.473,6.828,6.828,0,0,1,3.516-.879A6.566,6.566,0,0,1,774.067,521.086Z"/>
        <path class="cls-4" d="M797.762,544.031a10.485,10.485,0,0,0,.656,2.4v.375h-4.57a9.882,9.882,0,0,1-.609-2.648,10.061,10.061,0,0,1-3.153,2.261,9.459,9.459,0,0,1-4.043.856,9.761,9.761,0,0,1-4.488-1,7.447,7.447,0,0,1-3.023-2.707,7.035,7.035,0,0,1-1.067-3.8,7.44,7.44,0,0,1,1.395-4.57,8.414,8.414,0,0,1,3.961-2.825,17.478,17.478,0,0,1,6.058-.949h4.266v-2.015a4.831,4.831,0,0,0-1.371-3.645,5.46,5.46,0,0,0-3.949-1.324,6.858,6.858,0,0,0-2.813.551,4.753,4.753,0,0,0-1.934,1.476,3.286,3.286,0,0,0-.691,2H778a6.011,6.011,0,0,1,1.266-3.586,9.144,9.144,0,0,1,3.562-2.824,12.1,12.1,0,0,1,5.25-1.09,11.978,11.978,0,0,1,4.934.949,7.356,7.356,0,0,1,3.316,2.86,8.644,8.644,0,0,1,1.2,4.675v11.813A16.9,16.9,0,0,0,797.762,544.031ZM789.477,543a7.3,7.3,0,0,0,2.238-1.395,6.37,6.37,0,0,0,1.43-1.875v-5.25h-3.563a11.364,11.364,0,0,0-5.742,1.184,3.828,3.828,0,0,0-1.992,3.5,4.4,4.4,0,0,0,.563,2.226,4,4,0,0,0,1.64,1.559,5.522,5.522,0,0,0,2.625.574A7.4,7.4,0,0,0,789.477,543Z"/>
        <path class="cls-4" d="M804.7,546.808v-36h4.382v36Z"/>
      </g>
      <polygon class="cls-1" points="380.365 285.38 358.232 142.221 358.232 80.786 47.192 80.786 47.192 198.866 325.698 198.866 380.365 285.38"/>
      <rect class="cls-2" x="3.61" y="144.453" width="90.71" height="15.665"/>
      <rect class="cls-2" x="288.882" y="183.083" width="20.458" height="20.458"/>
      <circle class="cls-2" cx="236.34" cy="81.081" r="11.7"/>
      <polygon class="cls-3" points="390.805 280.979 368.672 137.82 368.672 76.385 57.632 76.385 57.632 194.465 336.138 194.465 390.805 280.979"/>
      <g>
        <path class="cls-4" d="M117.505,152.285h-4.523V138.949l.422-14.226-11.18,27.562H98.779L87.622,124.746l.422,14.2v13.336H83.521V118.16H89.38l11.133,27.891,11.133-27.891h5.859Z"/>
        <path class="cls-4" d="M145.208,140.8H128.052a10.616,10.616,0,0,0,.984,4.289,7.351,7.351,0,0,0,2.59,3.035,6.933,6.933,0,0,0,3.926,1.113,7.743,7.743,0,0,0,3.809-.89,9.294,9.294,0,0,0,2.871-2.555l2.648,2.063a11.058,11.058,0,0,1-3.75,3.527,11.348,11.348,0,0,1-5.812,1.371,11.761,11.761,0,0,1-6.117-1.57,10.633,10.633,0,0,1-4.09-4.36,13.578,13.578,0,0,1-1.442-6.328v-1.008a14.769,14.769,0,0,1,1.547-6.925,11.342,11.342,0,0,1,4.09-4.536,10.941,10.941,0,0,1,11.32.012,9.369,9.369,0,0,1,3.457,4.371,17.142,17.142,0,0,1,1.125,6.446Zm-4.382-3.844a9.478,9.478,0,0,0-1.606-4.98,5.092,5.092,0,0,0-4.465-2,5.672,5.672,0,0,0-4.371,1.91,9.6,9.6,0,0,0-2.191,5.4h12.633Z"/>
        <path class="cls-4" d="M170.216,135.668v16.617h-4.383V135.621a5.96,5.96,0,0,0-1.254-4.219,5,5,0,0,0-3.785-1.312,6.256,6.256,0,0,0-3.621,1.1,7.755,7.755,0,0,0-2.543,2.954v18.14h-4.383V126.926H154.4l.14,3.117a9.649,9.649,0,0,1,3.305-2.648,9.544,9.544,0,0,1,4.242-.938Q170.216,126.457,170.216,135.668Z"/>
        <path class="cls-4" d="M178.876,138.527a5.456,5.456,0,0,1-2.308-4.664,6.35,6.35,0,0,1,1.172-3.7,8.131,8.131,0,0,1,3.316-2.695,11.415,11.415,0,0,1,4.91-1.008,11.819,11.819,0,0,1,5.156,1.055,8,8,0,0,1,3.364,2.847,7.208,7.208,0,0,1,1.16,4h-4.383a3.868,3.868,0,0,0-.633-2.086,4.753,4.753,0,0,0-1.84-1.653,5.915,5.915,0,0,0-2.824-.644,6.7,6.7,0,0,0-2.836.527,3.723,3.723,0,0,0-1.652,1.383,3.438,3.438,0,0,0-.527,1.84,2.8,2.8,0,0,0,.48,1.676,4.08,4.08,0,0,0,1.734,1.207,21,21,0,0,0,3.621,1.054,23.911,23.911,0,0,1,5.18,1.711,7.479,7.479,0,0,1,2.965,2.414,6.025,6.025,0,0,1,.973,3.469,6.525,6.525,0,0,1-1.219,3.9,7.956,7.956,0,0,1-3.445,2.649,13.06,13.06,0,0,1-5.157.949,12.527,12.527,0,0,1-5.589-1.16,8.664,8.664,0,0,1-3.575-3.059,7.375,7.375,0,0,1-1.218-4.054h4.382a4.562,4.562,0,0,0,.985,2.753,5.012,5.012,0,0,0,2.215,1.536,8.337,8.337,0,0,0,2.8.468,8.1,8.1,0,0,0,2.942-.48,4.173,4.173,0,0,0,1.863-1.313,3.032,3.032,0,0,0,.633-1.886,3.608,3.608,0,0,0-.445-1.828,4.053,4.053,0,0,0-1.711-1.43,14.7,14.7,0,0,0-3.657-1.149A17.847,17.847,0,0,1,178.876,138.527Z"/>
        <path class="cls-4" d="M221.427,126.926v25.359h-4.172l-.07-2.508q-2.532,2.978-7.43,2.977a8.077,8.077,0,0,1-6.117-2.3q-2.2-2.3-2.2-7.172V126.926h4.383v16.406q0,3.163,1.3,4.465a4.521,4.521,0,0,0,3.339,1.3q4.923,0,6.586-3.68V126.926Z"/>
        <path class="cls-4" d="M239.4,126.563a3.47,3.47,0,0,1,.867.222v4.008a11.654,11.654,0,0,0-2.133-.187,6.355,6.355,0,0,0-3.6.96,5.879,5.879,0,0,0-2.168,2.7v18.023H227.99V126.926h4.265l.094,2.883a7.158,7.158,0,0,1,2.484-2.473,6.828,6.828,0,0,1,3.516-.879A6.566,6.566,0,0,1,239.4,126.563Z"/>
        <path class="cls-4" d="M263.826,149.508a10.485,10.485,0,0,0,.656,2.4v.375h-4.571a9.96,9.96,0,0,1-.609-2.648,10.087,10.087,0,0,1-3.152,2.262,9.476,9.476,0,0,1-4.043.855,9.755,9.755,0,0,1-4.488-1,7.45,7.45,0,0,1-3.024-2.707,7.034,7.034,0,0,1-1.066-3.8,7.445,7.445,0,0,1,1.394-4.57,8.419,8.419,0,0,1,3.961-2.825,17.484,17.484,0,0,1,6.059-.949h4.265V134.9a4.831,4.831,0,0,0-1.371-3.645,5.458,5.458,0,0,0-3.949-1.324,6.854,6.854,0,0,0-2.812.551,4.746,4.746,0,0,0-1.934,1.476,3.28,3.28,0,0,0-.691,2h-4.383a6.016,6.016,0,0,1,1.265-3.586,9.156,9.156,0,0,1,3.563-2.824,13.24,13.24,0,0,1,10.183-.141,7.358,7.358,0,0,1,3.317,2.86,8.644,8.644,0,0,1,1.195,4.675v11.813A16.794,16.794,0,0,0,263.826,149.508Zm-8.286-1.031a7.3,7.3,0,0,0,2.239-1.4,6.366,6.366,0,0,0,1.429-1.875v-5.25h-3.562a11.364,11.364,0,0,0-5.742,1.184,3.829,3.829,0,0,0-1.993,3.5,4.4,4.4,0,0,0,.563,2.226,4.007,4.007,0,0,0,1.641,1.559,5.516,5.516,0,0,0,2.625.574A7.389,7.389,0,0,0,255.54,148.477Zm6.715-32.192-6.3,6.867h-3.516l4.547-6.867Z"/>
        <path class="cls-4" d="M289.49,126.926,280.4,152.285h-3.328l-9.188-25.359h4.477l6.422,19.43,6.234-19.43Z"/>
        <path class="cls-4" d="M314.1,140.8H296.943a10.616,10.616,0,0,0,.984,4.289,7.343,7.343,0,0,0,2.59,3.035,6.93,6.93,0,0,0,3.926,1.113,7.739,7.739,0,0,0,3.808-.89,9.271,9.271,0,0,0,2.871-2.555l2.649,2.063a11.076,11.076,0,0,1-3.75,3.527,11.352,11.352,0,0,1-5.813,1.371,11.766,11.766,0,0,1-6.117-1.57,10.64,10.64,0,0,1-4.09-4.36,13.577,13.577,0,0,1-1.441-6.328v-1.008a14.769,14.769,0,0,1,1.547-6.925,11.335,11.335,0,0,1,4.09-4.536,10.941,10.941,0,0,1,11.32.012,9.369,9.369,0,0,1,3.457,4.371,17.142,17.142,0,0,1,1.125,6.446Zm-4.383-3.844a9.478,9.478,0,0,0-1.605-4.98,5.093,5.093,0,0,0-4.465-2,5.672,5.672,0,0,0-4.371,1.91,9.6,9.6,0,0,0-2.192,5.4h12.633Z"/>
        <path class="cls-4" d="M319.513,152.285v-36H323.9v36Z"/>
      </g>
      <polygon class="cls-1" points="786.96 6.98 475.92 6.98 475.92 124.224 475.45 124.298 530.571 277.179 535.63 125.06 786.96 125.06 786.96 6.98"/>
      <rect class="cls-2" x="740.326" y="32.765" width="76.664" height="7.832"/>
      <rect class="cls-2" x="740.325" y="110.549" width="31.816" height="31.816"/>
      <circle class="cls-2" cx="477.464" cy="67.989" r="18.947"/>
      <polygon class="cls-3" points="790.817 0.5 479.777 0.5 479.777 117.744 479.306 117.818 534.428 270.699 539.487 118.58 790.817 118.58 790.817 0.5"/>
      <g>
        <path class="cls-4" d="M562.2,79.966v.281h-4.875l-7.407-13.828h-7.945V80.247h-4.547V46.122h11.3q5.788,0,8.883,2.637t3.094,7.6a9.2,9.2,0,0,1-1.723,5.543,10.4,10.4,0,0,1-4.793,3.575Zm-13.36-17.2a8.624,8.624,0,0,0,3.985-.844,5.828,5.828,0,0,0,2.472-2.3,6.437,6.437,0,0,0,.832-3.258,6.335,6.335,0,0,0-1.828-4.828q-1.829-1.734-5.578-1.734h-6.75V62.763Z"/>
        <path class="cls-4" d="M586.74,68.763H569.583a10.6,10.6,0,0,0,.985,4.289,7.336,7.336,0,0,0,2.59,3.035,6.927,6.927,0,0,0,3.925,1.113,7.74,7.74,0,0,0,3.809-.89,9.294,9.294,0,0,0,2.871-2.555l2.648,2.062a11.051,11.051,0,0,1-3.75,3.528,11.348,11.348,0,0,1-5.812,1.371,11.77,11.77,0,0,1-6.117-1.57,10.633,10.633,0,0,1-4.09-4.36,13.58,13.58,0,0,1-1.441-6.328V67.45a14.776,14.776,0,0,1,1.546-6.926,11.353,11.353,0,0,1,4.09-4.535A10.942,10.942,0,0,1,582.158,56a9.375,9.375,0,0,1,3.457,4.371,17.14,17.14,0,0,1,1.125,6.445Zm-4.383-3.844a9.467,9.467,0,0,0-1.606-4.98,5.091,5.091,0,0,0-4.465-2,5.672,5.672,0,0,0-4.371,1.91,9.6,9.6,0,0,0-2.191,5.4h12.633Z"/>
        <path class="cls-4" d="M592.154,80.247v-36h4.382v36Z"/>
        <path class="cls-4" d="M623.888,68.763H606.732a10.616,10.616,0,0,0,.984,4.289,7.351,7.351,0,0,0,2.59,3.035,6.93,6.93,0,0,0,3.926,1.113,7.736,7.736,0,0,0,3.808-.89,9.271,9.271,0,0,0,2.871-2.555l2.649,2.062a11.069,11.069,0,0,1-3.75,3.528A11.352,11.352,0,0,1,614,80.716a11.775,11.775,0,0,1-6.117-1.57,10.64,10.64,0,0,1-4.09-4.36,13.58,13.58,0,0,1-1.441-6.328V67.45a14.776,14.776,0,0,1,1.547-6.926,11.339,11.339,0,0,1,4.09-4.535,10.941,10.941,0,0,1,11.32.012,9.369,9.369,0,0,1,3.457,4.371,17.14,17.14,0,0,1,1.125,6.445Zm-4.383-3.844a9.475,9.475,0,0,0-1.605-4.98,5.093,5.093,0,0,0-4.465-2,5.672,5.672,0,0,0-4.371,1.91,9.6,9.6,0,0,0-2.192,5.4h12.633Z"/>
        <path class="cls-4" d="M647.724,54.888,638.63,80.247H635.3l-9.187-25.359h4.476l6.422,19.429,6.234-19.429Z"/>
        <path class="cls-4" d="M671.115,77.47a10.485,10.485,0,0,0,.656,2.4v.375H667.2a9.915,9.915,0,0,1-.61-2.648,10.068,10.068,0,0,1-3.152,2.261,9.462,9.462,0,0,1-4.043.856,9.755,9.755,0,0,1-4.488-1,7.45,7.45,0,0,1-3.024-2.707,7.034,7.034,0,0,1-1.066-3.8,7.445,7.445,0,0,1,1.394-4.57,8.419,8.419,0,0,1,3.961-2.825,17.484,17.484,0,0,1,6.059-.949H666.5V62.857a4.831,4.831,0,0,0-1.371-3.645,5.458,5.458,0,0,0-3.949-1.324,6.854,6.854,0,0,0-2.812.551,4.746,4.746,0,0,0-1.934,1.476,3.28,3.28,0,0,0-.691,2h-4.383a6.016,6.016,0,0,1,1.265-3.586,9.147,9.147,0,0,1,3.563-2.824,13.242,13.242,0,0,1,10.184-.141,7.361,7.361,0,0,1,3.316,2.86,8.644,8.644,0,0,1,1.2,4.675V74.716A16.8,16.8,0,0,0,671.115,77.47Zm-8.286-1.031a7.3,7.3,0,0,0,2.239-1.395,6.366,6.366,0,0,0,1.429-1.875v-5.25h-3.562a11.364,11.364,0,0,0-5.742,1.184,3.828,3.828,0,0,0-1.992,3.5,4.4,4.4,0,0,0,.562,2.226,4.007,4.007,0,0,0,1.641,1.559,5.528,5.528,0,0,0,2.625.574A7.389,7.389,0,0,0,662.829,76.439Z"/>
        <path class="cls-4" d="M697.646,63.63V80.247h-4.383V63.583a5.96,5.96,0,0,0-1.254-4.219,5,5,0,0,0-3.785-1.312,6.252,6.252,0,0,0-3.621,1.1,7.755,7.755,0,0,0-2.543,2.954v18.14h-4.383V54.888h4.149l.14,3.117a9.649,9.649,0,0,1,3.3-2.648,9.544,9.544,0,0,1,4.242-.938Q697.646,54.419,697.646,63.63Z"/>
        <path class="cls-4" d="M714.943,80.247a11.193,11.193,0,0,1-3.352.469,5.774,5.774,0,0,1-4.254-1.594q-1.6-1.593-1.605-5.18V58.192h-4.617v-3.3h4.617V48.724h4.383v6.164h4.734v3.3h-4.734V73.966a2.495,2.495,0,0,0,2.789,3.047,7.933,7.933,0,0,0,1.078-.082,8.378,8.378,0,0,0,.937-.176Z"/>
        <path class="cls-4" d="M740.326,68.763H723.169a10.6,10.6,0,0,0,.985,4.289,7.336,7.336,0,0,0,2.59,3.035,6.927,6.927,0,0,0,3.925,1.113,7.74,7.74,0,0,0,3.809-.89,9.294,9.294,0,0,0,2.871-2.555L740,75.817a11.051,11.051,0,0,1-3.75,3.528,11.348,11.348,0,0,1-5.812,1.371,11.77,11.77,0,0,1-6.117-1.57,10.633,10.633,0,0,1-4.09-4.36,13.58,13.58,0,0,1-1.442-6.328V67.45a14.776,14.776,0,0,1,1.547-6.926,11.353,11.353,0,0,1,4.09-4.535A10.942,10.942,0,0,1,735.744,56a9.375,9.375,0,0,1,3.457,4.371,17.14,17.14,0,0,1,1.125,6.445Zm-4.383-3.844a9.467,9.467,0,0,0-1.606-4.98,5.091,5.091,0,0,0-4.465-2,5.672,5.672,0,0,0-4.371,1.91,9.6,9.6,0,0,0-2.191,5.4h12.633Z"/>
      </g>
      <g>
        <path class="cls-5" d="M316.106,319.927a25.414,25.414,0,0,1-8.491-7.3,18.317,18.317,0,0,1,.274-21.043,22.217,22.217,0,0,1,9.587-7.122,36.622,36.622,0,0,1,14-2.514,32.984,32.984,0,0,1,14,2.813,21.952,21.952,0,0,1,9.413,7.919,20.875,20.875,0,0,1,3.337,11.68H342.627a9.49,9.49,0,0,0-2.914-7.3q-2.912-2.714-8.541-2.714a15.888,15.888,0,0,0-6.1,1.046,8.391,8.391,0,0,0-3.785,2.863,6.935,6.935,0,0,0-1.27,4.06q0,3.336,3.437,5.652a42.379,42.379,0,0,0,10.658,4.558q12.2,3.735,18.153,9.338a18.858,18.858,0,0,1,5.952,14.369,18.3,18.3,0,0,1-3.237,10.882,20.121,20.121,0,0,1-9.19,6.948,37.337,37.337,0,0,1-13.969,2.391,39.243,39.243,0,0,1-14.419-2.64,25.231,25.231,0,0,1-10.982-8.094,21.15,21.15,0,0,1-4.233-13.372h15.688q0,6.225,3.611,8.989t10.335,2.765q5.328,0,8.044-2.142a6.825,6.825,0,0,0,2.714-5.628,8.012,8.012,0,0,0-1.1-4.333,10.622,10.622,0,0,0-4.034-3.336,53.6,53.6,0,0,0-8.666-3.437A73.619,73.619,0,0,1,316.106,319.927Z"/>
        <path class="cls-5" d="M444.876,355.463H429.188V336.737l1.544-34.664-19.026,53.39H401.1l-18.976-53.39,1.544,34.664v18.726H368.028V282.948H388.5l17.93,51.747,17.93-51.747h20.519Z"/>
        <path class="cls-5" d="M498.516,341.07h-25.7l-4.732,14.393H451.451l26.894-72.515h14.543l27.044,72.515H503.247Zm-4.184-12.65-8.715-26.447-8.666,26.447Z"/>
        <path class="cls-5" d="M583.333,354.716v.747H566.6l-13.348-26.2h-11.3v26.2H526.307V282.948H553.7a37.634,37.634,0,0,1,14.467,2.514,19.95,19.95,0,0,1,9.289,7.421,21.27,21.27,0,0,1,3.238,11.979q0,7.719-3.337,12.625a22.507,22.507,0,0,1-9.563,7.745Zm-41.387-38.1H553.7q5.575,0,8.466-2.789a10.167,10.167,0,0,0,2.889-7.67q0-4.98-2.864-7.77T553.7,295.6H541.946Z"/>
        <path class="cls-5" d="M645.589,295.6H623.476v59.865H607.887V295.6H586.122v-12.65h59.467Z"/>
      </g>
      <g>
        <path class="cls-3" d="M319.493,321.943a25.408,25.408,0,0,1-8.492-7.3,18.319,18.319,0,0,1,.275-21.043,22.211,22.211,0,0,1,9.587-7.122,36.6,36.6,0,0,1,14-2.515,32.984,32.984,0,0,1,14,2.814,21.951,21.951,0,0,1,9.413,7.919,20.874,20.874,0,0,1,3.337,11.679H346.014a9.491,9.491,0,0,0-2.914-7.3q-2.912-2.714-8.541-2.714a15.874,15.874,0,0,0-6.1,1.046,8.4,8.4,0,0,0-3.785,2.863,6.938,6.938,0,0,0-1.269,4.059q0,3.338,3.436,5.653a42.4,42.4,0,0,0,10.658,4.557q12.2,3.736,18.154,9.338a18.861,18.861,0,0,1,5.952,14.369,18.3,18.3,0,0,1-3.237,10.882,20.128,20.128,0,0,1-9.19,6.949,37.363,37.363,0,0,1-13.97,2.39,39.267,39.267,0,0,1-14.419-2.639,25.222,25.222,0,0,1-10.981-8.094,21.15,21.15,0,0,1-4.233-13.372h15.688q0,6.225,3.61,8.989t10.335,2.765q5.329,0,8.044-2.142a6.825,6.825,0,0,0,2.714-5.628,8.009,8.009,0,0,0-1.095-4.333,10.636,10.636,0,0,0-4.035-3.337,53.579,53.579,0,0,0-8.666-3.436A73.685,73.685,0,0,1,319.493,321.943Z"/>
        <path class="cls-3" d="M448.263,357.479H432.575V338.753l1.544-34.665-19.026,53.391H404.485l-18.976-53.391,1.544,34.665v18.726H371.414V284.963h20.47l17.93,51.748,17.93-51.748h20.519Z"/>
        <path class="cls-3" d="M501.9,343.086H476.2l-4.731,14.393H454.837l26.9-72.516h14.543l27.044,72.516H506.634Zm-4.184-12.651L489,303.989l-8.666,26.446Z"/>
        <path class="cls-3" d="M586.72,356.732v.747H569.986l-13.348-26.2H545.332v26.2H529.694V284.963h27.392a37.616,37.616,0,0,1,14.468,2.515,19.949,19.949,0,0,1,9.289,7.421,21.275,21.275,0,0,1,3.237,11.979q0,7.719-3.336,12.625a22.513,22.513,0,0,1-9.563,7.745Zm-41.388-38.1h11.754q5.577,0,8.467-2.789a10.165,10.165,0,0,0,2.889-7.67q0-4.98-2.864-7.769t-8.492-2.789H545.332Z"/>
        <path class="cls-3" d="M648.976,297.614H626.863v59.865H611.274V297.614H589.509V284.963h59.467Z"/>
      </g>
    </g>
  </g>
</svg>
